<svg xmlns="http://www.w3.org/2000/svg" viewBox="0 0 832.13 832.13"><defs><style>.cls-1,.cls-6{fill:#221e1f;}.cls-2{fill:#fff;}.cls-2,.cls-3,.cls-4,.cls-6{fill-rule:evenodd;}.cls-3{fill:#FFDD57;}.cls-4,.cls-5{fill:#FFDD57;}</style></defs><title>Element 1</title><g id="Ebene_2" data-name="Ebene 2"><g id="Layer_3" data-name="Layer 3"><circle class="cls-1" cx="416.06" cy="416.06" r="415.99" transform="translate(-172.34 416.06) rotate(-45)"/><path class="cls-2" d="M643.37,550h0c18.74,0,47.9-6.79,80.38-39.09,38.89-38.68,47.15-108,20.56-172.42-28.16-68.25-84.46-109-150.59-109-1.06,0-2.14,0-3.2,0-38.89.73-77.6,13.77-106.19,35.77-11,8.43-22.18,21.25-31.57,36.08a.91.91,0,0,1-1,.4,128.18,128.18,0,0,0-65.24,0,.92.92,0,0,1-1-.4c-9.22-14.58-20.75-27.73-31.61-36.08-28.55-22-67.24-35-106.14-35.77l-3.2,0c-66.13,0-122.43,40.74-150.59,109-26.59,64.45-18.34,133.74,20.55,172.42C147.06,543.17,176.21,550,195,550c27.6,0,49.07-14.46,56.52-29.05-3.27-.74-8.1.16-13.88,1.36A103.77,103.77,0,0,1,215.8,525c-18.21,0-36-7.11-54.41-21.73-25.17-20-37.19-50.81-32.95-84.48,4.6-36.64,27.85-69.41,59.22-83.49a57.14,57.14,0,0,1,23.55-5.05c25.56,0,49.66,16.52,62.9,43.11a.92.92,0,0,1-.06.91l-.33.49a.91.91,0,0,1-.58.39,1,1,0,0,1-.69-.14c-16.85-11.37-34.76-17.14-53.22-17.14-36.54,0-64.85,22.94-68.1,35.42-1.71,6.58,23.23,20.21,47.56,29.7,15.27,5.94,32.48,9,51.15,9,4.82,0,9.76-.21,14.68-.61h.08a.9.9,0,0,1,.9.82c9.3,95.35,68.59,265.67,153.65,265.67S563.49,527.51,572.83,432.16a.89.89,0,0,1,1-.81c4.93.4,9.86.61,14.68.61,18.68,0,35.88-3,51.11-9,24.35-9.48,49.31-23.11,47.6-29.7-3.24-12.48-31.57-35.42-68.11-35.42-18.47,0-36.39,5.77-53.25,17.14a.9.9,0,0,1-.71.13.93.93,0,0,1-.59-.43l-.28-.49a.88.88,0,0,1,0-.86c13.23-26.59,37.33-43.11,62.89-43.11a57.11,57.11,0,0,1,23.55,5.05c31.37,14.08,54.62,46.85,59.23,83.49,4.23,33.67-7.78,64.46-33,84.48C658.54,517.9,640.74,525,622.53,525a103.87,103.87,0,0,1-21.8-2.75c-5.79-1.2-10.62-2.1-13.9-1.36C594.29,535.49,615.79,550,643.37,550Zm-481.43-10c1.32-4.54,4.18-9.68,6.93-14.64,1.61-2.9,3.13-5.63,4.35-8.22a.91.91,0,0,1,1-.51.93.93,0,0,1,.73.86c.41,11.92-5.69,21.37-11.82,23.62a.85.85,0,0,1-.31.06.93.93,0,0,1-.88-1.17Zm-36.14-89.4c-10.94,7.88-21.17,9.54-27.83,9.54h0a31.48,31.48,0,0,1-9.51-1.26.9.9,0,0,1-.61-.85.88.88,0,0,1,.6-.86c10.07-3.64,26.44-6.95,36.72-8.21a.9.9,0,0,1,1,.57A.91.91,0,0,1,125.8,450.54Zm9.52-72.38a.91.91,0,0,1-.78.44.78.78,0,0,1-.26,0c-19-5.46-30.89-15.66-38.69-33.06A.91.91,0,0,1,97,344.41l2.63,2c12.82,10,23.88,18.71,35.57,30.59A.92.92,0,0,1,135.32,378.16Zm52.46-46.4a.91.91,0,0,1-.35.07.92.92,0,0,1-.75-.39C169.47,307,168.78,268,185.13,244.5a.91.91,0,0,1,1.11-.32.9.9,0,0,1,.52,1c-7.7,34.4,1.47,85,1.56,85.55A.91.91,0,0,1,187.78,331.76Zm73.94,79.48a.92.92,0,0,1-.67.64,109.92,109.92,0,0,1-24.82,2.69h0c-23.92,0-47.8-7.12-53.16-13.49a3.87,3.87,0,0,1-1.1-3.14c.81-4.74,13-6.42,23.15-6.42,18.19,0,42.55,5,56.38,18.83A.91.91,0,0,1,261.72,411.24Zm315.12-.89c13.83-13.88,38.2-18.83,56.38-18.83,10.18,0,22.35,1.68,23.16,6.42a3.91,3.91,0,0,1-1.13,3.15c-5.38,6.36-29.26,13.48-53.14,13.48a110,110,0,0,1-24.83-2.69.92.92,0,0,1-.67-.64A.91.91,0,0,1,576.84,410.35ZM259.41,327.92c-1.64,2.9-3.33,5.89-5.18,8.9a.9.9,0,0,1-.77.44,1,1,0,0,1-.25,0,.92.92,0,0,1-.66-.88c0-35.92,31.21-68,68.15-70.12a.87.87,0,0,1,.92.63.91.91,0,0,1-.39,1.05C278.42,294.29,269.19,310.63,259.41,327.92Zm91.71,150.15a12.79,12.79,0,0,1-12.7,11.29,13.08,13.08,0,0,1-1.53-.09,12.81,12.81,0,1,1,11.62-20.62A12.61,12.61,0,0,1,351.12,478.07Zm-9.95-24.22a21.77,21.77,0,0,0-2.79-.17,22.85,22.85,0,1,0,9.19,43.81.91.91,0,0,1,1.15.37.93.93,0,0,1-.23,1.19,33.77,33.77,0,0,1-24.59,6.71,33.64,33.64,0,0,1-29.31-37.42c2.47-20.33,19.39-29.43,35.06-29.43a40.12,40.12,0,0,1,21.21,5.95c32,20,38.39,89.52,32.7,119.66a.92.92,0,0,1-.85.75h0a.91.91,0,0,1-.87-.66c-1.81-6.09-3.18-15.9-4.77-27.27C372.27,503.37,365.77,456.85,341.17,453.85ZM475,624.43c-11,24.71-37,33.48-55.88,33.48s-44.88-8.77-55.85-33.48a.91.91,0,0,1,1.62-.83c11.94,20.48,40.25,23.89,49.7,24.45,1.48-4.09,2.08-12.33,1.48-20.29h0c-4.72,0-13.16-1.09-16.78-8.35-1.69-3.4-5.29-5.53-9.11-7.78-6.52-3.85-13.92-8.21-13.3-20.14a.91.91,0,0,1,1.73-.34c3.33,7,19.73,19.59,40.52,19.59s37.21-12.56,40.51-19.59a.91.91,0,0,1,1-.51.93.93,0,0,1,.74.85c.64,11.93-6.76,16.3-13.28,20.15-3.81,2.25-7.41,4.37-9.1,7.77-3.66,7.26-12.08,8.35-16.78,8.35h0c-.6,8,0,16.2,1.48,20.29,9.44-.56,37.71-4,49.7-24.45a.91.91,0,0,1,1.62.83Zm14.79-155.79a12.81,12.81,0,1,1,11.63,20.63,13.34,13.34,0,0,1-1.53.09,12.8,12.8,0,0,1-10.1-20.72Zm47,24.48a33.66,33.66,0,0,1-47,5.93.91.91,0,0,1-.22-1.19.9.9,0,0,1,1.14-.37,22.86,22.86,0,1,0,9.16-43.81,21.92,21.92,0,0,0-2.8.17c-24.59,3-31.09,49.58-35.84,83.6-1.58,11.32-2.95,21.09-4.74,27.16a.91.91,0,0,1-.87.66h0a.92.92,0,0,1-.85-.74c-5.73-30.12.62-99.66,32.69-119.66a39.94,39.94,0,0,1,21.18-6c15.67,0,32.6,9.1,35.09,29.43A33.4,33.4,0,0,1,536.82,493.12Zm48.3-155.89-.24,0a.9.9,0,0,1-.78-.44c-1.85-3-3.54-6-5.18-8.9-9.77-17.29-19-33.63-61.82-60a.93.93,0,0,1-.39-1.05.87.87,0,0,1,.92-.63c37,2.08,68.16,34.2,68.16,70.12A.92.92,0,0,1,585.12,337.23Zm66.53-5.79a.89.89,0,0,1-.74.39.84.84,0,0,1-.35-.07.9.9,0,0,1-.55-1c.1-.51,9.26-51.16,1.52-85.54a.91.91,0,0,1,.52-1,.92.92,0,0,1,1.12.32C669.5,268,668.83,307,651.65,331.44ZM749.9,457.11a.9.9,0,0,1,0,1.71,31.48,31.48,0,0,1-9.51,1.26c-6.66,0-16.9-1.65-27.84-9.54a.91.91,0,0,1,.64-1.64C723.48,450.17,739.85,453.48,749.9,457.11Zm-45.85-78.55a.73.73,0,0,1-.25,0,.91.91,0,0,1-.65-1.55c11.69-11.88,22.76-20.55,35.58-30.59l2.62-2a.92.92,0,0,1,1.13,0,.89.89,0,0,1,.26,1.09C734.94,362.9,723,373.1,704.05,378.56ZM663.38,517.43a.91.91,0,0,1,1.74-.35c1.23,2.65,2.78,5.46,4.43,8.43,2.71,4.89,5.51,10,6.84,14.43a.91.91,0,0,1-.25.92.92.92,0,0,1-.62.25.87.87,0,0,1-.32-.06C669.07,538.81,663,529.37,663.38,517.43Z"/><path class="cls-3" d="M637.1,649.24a5.45,5.45,0,1,1-4.43-6.3A5.45,5.45,0,0,1,637.1,649.24Z"/><path class="cls-3" d="M227.78,712.82a5.45,5.45,0,1,1-4.42-6.31A5.45,5.45,0,0,1,227.78,712.82Z"/><path class="cls-2" d="M470.88,234.28c-1.67-2.37-11.66-5.92-11.66-5.92s10.6.07,13-1.6,5.91-11.66,5.91-11.66-.06,10.61,1.6,13S491.37,234,491.37,234s-10.6-.07-13,1.6-5.91,11.66-5.91,11.66.06-10.61-1.6-13Z"/><path class="cls-4" d="M246.51,110.44c-1.36-1.94-9.51-4.83-9.51-4.83s8.65,0,10.59-1.31,4.83-9.51,4.83-9.51-.06,8.65,1.3,10.59,9.51,4.83,9.51,4.83-8.65-.06-10.58,1.3-4.83,9.52-4.83,9.52.05-8.65-1.31-10.59Z"/><path class="cls-4" d="M160.06,647.31c-1.15-1.63-8-4.07-8-4.07s7.29,0,8.92-1.1,4.07-8,4.07-8-.05,7.29,1.1,8.92,8,4.06,8,4.06-7.29,0-8.92,1.1-4.07,8-4.07,8,0-7.28-1.09-8.91Z"/><path class="cls-2" d="M34.27,453a72,72,0,0,0-7.11-7.7A71.35,71.35,0,0,0,36,451a71.91,71.91,0,0,0,3.11-10,71.22,71.22,0,0,0-.47,10.47,70.78,70.78,0,0,0,10.22-2.3,69.3,69.3,0,0,0-9.3,4.82,71.51,71.51,0,0,0,7.1,7.7A71.53,71.53,0,0,0,37.83,456a70.17,70.17,0,0,0-3.12,10,71.63,71.63,0,0,0,.48-10.46A70.48,70.48,0,0,0,25,457.84a70,70,0,0,0,9.3-4.82Z"/><path class="cls-2" d="M579,505.44a70.05,70.05,0,0,0-7.11-7.7,70.8,70.8,0,0,0,8.83,5.64,71.6,71.6,0,0,0,3.11-10,71.22,71.22,0,0,0-.47,10.47,71.35,71.35,0,0,0,10.22-2.31,71.89,71.89,0,0,0-9.3,4.82,69.56,69.56,0,0,0,7.1,7.7,71,71,0,0,0-8.82-5.64,69.71,69.71,0,0,0-3.12,10,71.71,71.71,0,0,0,.48-10.46,70.19,70.19,0,0,0-10.22,2.3,72,72,0,0,0,9.3-4.82Z"/><path class="cls-2" d="M419.79,74.16a71,71,0,0,0-7.11-7.7,69.55,69.55,0,0,0,8.83,5.64,69.73,69.73,0,0,0,3.11-10,71.22,71.22,0,0,0-.47,10.47,71.35,71.35,0,0,0,10.22-2.31,70.15,70.15,0,0,0-9.3,4.83,71.92,71.92,0,0,0,7.1,7.69,71,71,0,0,0-8.82-5.64,71.1,71.1,0,0,0-3.12,10,70.22,70.22,0,0,0,.48-10.46A70.78,70.78,0,0,0,410.49,79a71.29,71.29,0,0,0,9.3-4.82Z"/><path class="cls-2" d="M202.93,188.73a68.5,68.5,0,0,0-7.1-7.7,70.8,70.8,0,0,0,8.83,5.64,71.6,71.6,0,0,0,3.11-10,69.67,69.67,0,0,0-.47,10.46,70.78,70.78,0,0,0,10.22-2.3,70.57,70.57,0,0,0-9.3,4.82,68.5,68.5,0,0,0,7.1,7.7,70.8,70.8,0,0,0-8.83-5.64,71.6,71.6,0,0,0-3.11,10,69.67,69.67,0,0,0,.47-10.46,69.35,69.35,0,0,0-10.22,2.3,71.89,71.89,0,0,0,9.3-4.82Z"/><path class="cls-2" d="M273.6,648.31c0,.05-5-6.35-8.75-9.47,3.73,3.12,10.91,6.93,10.87,6.94s3-7.52,3.83-12.31c-.84,4.79-.55,12.91-.58,12.88s8-1.16,12.57-2.83c-4.56,1.67-11.45,6-11.44,5.93s5,6.36,8.74,9.48c-3.72-3.12-10.9-6.93-10.86-6.95s-3,7.53-3.83,12.31c.84-4.78.55-12.9.58-12.88s-8,1.17-12.58,2.84c4.57-1.67,11.46-6,11.45-5.94Z"/><path class="cls-2" d="M602.47,712.19s-5-6.36-8.75-9.48c3.73,3.12,10.91,6.93,10.87,6.95s3-7.53,3.83-12.31c-.84,4.78-.55,12.91-.58,12.88s8-1.17,12.57-2.84c-4.56,1.67-11.45,6-11.44,5.94s5,6.35,8.74,9.47c-3.72-3.12-10.9-6.93-10.86-6.94s-3,7.52-3.83,12.31c.83-4.79.54-12.91.58-12.88s-8,1.17-12.58,2.83c4.57-1.66,11.45-6,11.45-5.93Z"/><path class="cls-2" d="M78.22,581.85a3.39,3.39,0,1,1-2.76-3.92A3.39,3.39,0,0,1,78.22,581.85Z"/><path class="cls-2" d="M27,420.68a3.39,3.39,0,1,1-2.75-3.92A3.39,3.39,0,0,1,27,420.68Z"/><path class="cls-2" d="M80.22,256a3.39,3.39,0,1,1-2.75-3.92A3.39,3.39,0,0,1,80.22,256Z"/><path class="cls-2" d="M159.15,450.29a6.77,6.77,0,1,1-5.5-7.84A6.78,6.78,0,0,1,159.15,450.29Z"/><path class="cls-3" d="M210.35,469.82a3.8,3.8,0,1,1-3.09-4.4A3.81,3.81,0,0,1,210.35,469.82Z"/><path class="cls-3" d="M307.42,176.53a3.8,3.8,0,1,1-3.09-4.4A3.79,3.79,0,0,1,307.42,176.53Z"/><path class="cls-2" d="M521.49,730.08c-1.52-2.16-10.61-5.39-10.61-5.39s9.65.06,11.81-1.45,5.39-10.62,5.39-10.62-.06,9.66,1.45,11.82,10.62,5.39,10.62,5.39-9.65-.07-11.82,1.45S523,741.9,523,741.9s.06-9.66-1.46-11.82Z"/><path class="cls-4" d="M309.72,756.28c-1.05-1.48-7.3-3.7-7.3-3.7s6.64,0,8.12-1,3.7-7.29,3.7-7.29,0,6.63,1,8.11,7.3,3.71,7.3,3.71-6.64-.05-8.12,1-3.7,7.29-3.7,7.29,0-6.63-1-8.12Z"/><path class="cls-4" d="M604.22,187.18c-1.24-1.77-8.66-4.4-8.66-4.4s7.88.05,9.64-1.19,4.4-8.66,4.4-8.66-.05,7.88,1.19,9.64,8.66,4.4,8.66,4.4-7.88-.05-9.64,1.19-4.4,8.66-4.4,8.66.05-7.88-1.19-9.64Z"/><path class="cls-4" d="M738.27,536.25c-1.24-1.76-8.66-4.39-8.66-4.39s7.88,0,9.64-1.19,4.4-8.66,4.4-8.66,0,7.87,1.19,9.64,8.66,4.4,8.66,4.4-7.88-.06-9.64,1.18-4.4,8.66-4.4,8.66,0-7.87-1.19-9.64Z"/><path class="cls-2" d="M703.1,223.89s-4.57-5.79-8-8.63c3.39,2.84,9.93,6.31,9.89,6.32s2.73-6.85,3.49-11.2c-.76,4.35-.5,11.75-.53,11.72s7.3-1.06,11.45-2.58C715.29,221,709,225,709,224.93s4.57,5.78,8,8.62c-3.39-2.84-9.93-6.31-9.89-6.32s-2.72,6.85-3.49,11.21c.77-4.36.5-11.76.53-11.73s-7.29,1.06-11.45,2.58c4.16-1.52,10.43-5.44,10.42-5.4Z"/><path class="cls-2" d="M767.75,335.88a3.08,3.08,0,1,1-2.51-3.57A3.08,3.08,0,0,1,767.75,335.88Z"/><path class="cls-2" d="M148.65,239.85a3.08,3.08,0,1,1-2.5-3.57A3.08,3.08,0,0,1,148.65,239.85Z"/><path class="cls-2" d="M402.6,729.14a3.09,3.09,0,1,1-2.51-3.57A3.1,3.1,0,0,1,402.6,729.14Z"/><path class="cls-2" d="M692.21,592.36a6.17,6.17,0,1,1-5-7.14A6.18,6.18,0,0,1,692.21,592.36Z"/><path class="cls-2" d="M511.13,775.56a6.16,6.16,0,1,1-5-7.14A6.17,6.17,0,0,1,511.13,775.56Z"/><path class="cls-3" d="M627.85,479.43a3.46,3.46,0,1,1-2.81-4A3.46,3.46,0,0,1,627.85,479.43Z"/><path class="cls-3" d="M778.59,265a3.46,3.46,0,1,1-2.81-4A3.45,3.45,0,0,1,778.59,265Z"/><path class="cls-2" d="M652.72,111.57c-.57-.82-4-2-4-2s3.65,0,4.46-.55,2-4,2-4,0,3.64.54,4.46,4,2,4,2-3.64,0-4.46.55-2,4-2,4,0-3.64-.55-4.45Z"/><path class="cls-2" d="M570.17,641.84c-.57-.81-4-2-4-2s3.64,0,4.46-.55,2-4,2-4,0,3.65.55,4.46,4,2,4,2-3.64,0-4.45.55-2,4-2,4,0-3.64-.55-4.46Z"/><path class="cls-5" d="M512.09,135.31A30.36,30.36,0,0,0,505,121.07a31.76,31.76,0,0,0-16.83-9.62,43.14,43.14,0,0,0-10.45-.9l-2.8.16-2.36.26-.59.07-.29,0h-.07l-.28,0-.18,0-1.44.32c-1,.23-1.94.43-2.88.71a37.88,37.88,0,0,0-10.5,5.31,21.21,21.21,0,0,0-2.31,1.75l-2.23,1.85c-1.34,1.33-2.77,2.64-4,4.07a88.22,88.22,0,0,0-12.31,18.37,147,147,0,0,0-8.24,19.71c-2.26,6.61-4.06,13.2-5.56,19.6-1,4.17-1.78,8.26-2.47,12.25-.7-4-1.5-8.08-2.48-12.25a202.52,202.52,0,0,0-5.56-19.6,145.75,145.75,0,0,0-8.24-19.71,87.44,87.44,0,0,0-12.31-18.37c-1.22-1.43-2.65-2.74-4-4.07l-2.22-1.85a20.41,20.41,0,0,0-2.32-1.75,37.82,37.82,0,0,0-10.49-5.31c-.95-.28-1.93-.48-2.89-.71l-1.44-.32-.18,0-.27,0h-.08l-.29,0-.59-.07-2.36-.26-2.79-.16a43.18,43.18,0,0,0-10.46.9,31.79,31.79,0,0,0-16.83,9.62,30.36,30.36,0,0,0-7.14,14.24,27.4,27.4,0,0,0,0,12,17.7,17.7,0,0,0,3.27,7.09,9.94,9.94,0,0,0,1.44,1.52l.53.48a1.41,1.41,0,0,0,2-2,11.5,11.5,0,0,1-1.06-1.85,15.12,15.12,0,0,1-1.23-5.95,24.81,24.81,0,0,1,8.66-19,22.93,22.93,0,0,1,12.29-5.11,35.06,35.06,0,0,1,7.58.1l1.84.26,2.29.45.58.12.29,0,.07,0-.13,0,.11,0,.86.29c.58.19,1.16.33,1.74.55a33.23,33.23,0,0,1,12.63,10,84.87,84.87,0,0,1,9.9,15.77,169.69,169.69,0,0,1,7.55,17.93c2.19,6.11,4.14,12.24,5.86,18.26s3.22,11.89,4.56,17.51,2.51,11,3.5,15.91,1.89,9.52,2.6,13.57,1.27,7.52,1.71,10.43c.11,2.93.32,5.32.48,6.84s.27,2.47.27,2.47a2.44,2.44,0,0,0,2.11,2.15,2.25,2.25,0,0,0,.58,0h0a2.44,2.44,0,0,0,2.7-2.16s.09-.86.27-2.47.37-3.91.49-6.84c.43-2.91,1-6.41,1.7-10.43s1.58-8.62,2.6-13.57,2.16-10.3,3.51-15.91,2.82-11.5,4.55-17.51,3.67-12.15,5.86-18.26a171.81,171.81,0,0,1,7.55-17.93,84.91,84.91,0,0,1,9.91-15.77,33.23,33.23,0,0,1,12.63-10c.57-.22,1.16-.36,1.73-.55l.86-.29.11,0-.13,0,.07,0,.3,0,.58-.12,2.28-.45,1.85-.26a35,35,0,0,1,7.57-.1,22.93,22.93,0,0,1,12.29,5.11,24.81,24.81,0,0,1,8.66,19,14.94,14.94,0,0,1-1.23,5.95,11.5,11.5,0,0,1-1.06,1.85,1.41,1.41,0,0,0,2,2l.53-.48a9.05,9.05,0,0,0,1.44-1.52,17.57,17.57,0,0,0,3.27-7.09A27.4,27.4,0,0,0,512.09,135.31Z"/><path class="cls-6" d="M487.54,329.1c-1-1.49-7.29-3.7-7.29-3.7s6.63,0,8.12-1,3.7-7.3,3.7-7.3,0,6.64,1,8.12,7.29,3.7,7.29,3.7-6.63,0-8.12,1-3.7,7.3-3.7,7.3,0-6.64-1-8.12Z"/></g></g></svg>
