<svg xmlns="http://www.w3.org/2000/svg" viewBox="0 0 832.15 832.15"><defs><style>.cls-1{fill:#221e1f;}.cls-2{fill:#FFDD57;}.cls-2,.cls-3,.cls-4{fill-rule:evenodd;}.cls-3{fill:#fff;}.cls-4,.cls-5{fill:#FFDD57;}</style></defs><title>Element 10</title><g id="Ebene_2" data-name="Ebene 2"><g id="Layer_3" data-name="Layer 3"><circle class="cls-1" cx="416.08" cy="416.08" r="415.99"/><path class="cls-2" d="M553.27,706.61a5.45,5.45,0,1,1-2.24-7.38A5.45,5.45,0,0,1,553.27,706.61Z"/><path class="cls-2" d="M144.56,639.22a5.45,5.45,0,1,1-2.23-7.37A5.44,5.44,0,0,1,144.56,639.22Z"/><path class="cls-3" d="M492.13,248.89c-.84-2.78-9.22-9.26-9.22-9.26s10,3.37,12.82,2.53,9.26-9.23,9.26-9.23-3.37,10-2.53,12.83,9.23,9.26,9.23,9.26-10.05-3.37-12.83-2.53-9.26,9.23-9.26,9.23,3.38-10.05,2.53-12.83Z"/><path class="cls-4" d="M314.94,55.43c-.69-2.27-7.53-7.56-7.53-7.56s8.2,2.75,10.46,2.07,7.56-7.53,7.56-7.53-2.75,8.2-2.07,10.46,7.53,7.56,7.53,7.56-8.2-2.75-10.46-2.07-7.56,7.53-7.56,7.53,2.75-8.2,2.07-10.46Z"/><path class="cls-4" d="M69,567.78c-.58-1.91-6.34-6.36-6.34-6.36s6.9,2.31,8.81,1.74,6.36-6.35,6.36-6.35-2.32,6.91-1.74,8.82S82.43,572,82.43,572s-6.9-2.32-8.81-1.74-6.36,6.34-6.36,6.34,2.31-6.9,1.74-8.81Z"/><path class="cls-3" d="M41.82,332a70.25,70.25,0,0,0-4.34-9.54,70.25,70.25,0,0,0,6.62,8.12,71.34,71.34,0,0,0,6.08-8.53,69.23,69.23,0,0,0-3.71,9.8,72,72,0,0,0,10.42,1,73,73,0,0,0-10.34,1.67,70.82,70.82,0,0,0,4.35,9.54,71.38,71.38,0,0,0-6.62-8.12,71,71,0,0,0-6.09,8.53,70.32,70.32,0,0,0,3.72-9.79,71.44,71.44,0,0,0-10.43-1A70.94,70.94,0,0,0,41.82,332Z"/><path class="cls-3" d="M581.49,567.14a71.62,71.62,0,0,0-4.34-9.54,69.16,69.16,0,0,0,6.62,8.12,71.34,71.34,0,0,0,6.08-8.53,71.22,71.22,0,0,0-3.72,9.79,71.44,71.44,0,0,0,10.43,1,70.94,70.94,0,0,0-10.34,1.67,70.33,70.33,0,0,0,4.35,9.53,70.41,70.41,0,0,0-6.63-8.11,71.34,71.34,0,0,0-6.08,8.53,71.16,71.16,0,0,0,3.72-9.8,72,72,0,0,0-10.43-1,72.44,72.44,0,0,0,10.34-1.67Z"/><path class="cls-3" d="M524,133.78a70.33,70.33,0,0,0-4.35-9.53,71.89,71.89,0,0,0,6.62,8.11,71,71,0,0,0,6.09-8.53,69.78,69.78,0,0,0-3.72,9.8,70.5,70.5,0,0,0,10.43,1,70.42,70.42,0,0,0-10.34,1.68,70.93,70.93,0,0,0,4.34,9.53,70.25,70.25,0,0,0-6.62-8.12,71.34,71.34,0,0,0-6.08,8.53,71.22,71.22,0,0,0,3.72-9.79,71.79,71.79,0,0,0-10.43-1A70,70,0,0,0,524,133.78Z"/><path class="cls-3" d="M284.57,133.56a71.51,71.51,0,0,0-4.35-9.53,69.92,69.92,0,0,0,6.63,8.12,71.34,71.34,0,0,0,6.08-8.53,71.22,71.22,0,0,0-3.72,9.79,71.44,71.44,0,0,0,10.43,1,70.94,70.94,0,0,0-10.34,1.67,71.62,71.62,0,0,0,4.34,9.54,70.25,70.25,0,0,0-6.62-8.12,71.34,71.34,0,0,0-6.08,8.53,71.16,71.16,0,0,0,3.72-9.8,72,72,0,0,0-10.43-1,70.42,70.42,0,0,0,10.34-1.68Z"/><path class="cls-3" d="M273.39,595s-2.79-7.6-5.35-11.73c2.56,4.13,8.19,10,8.15,10s5.19-6.21,7.48-10.5c-2.29,4.29-4.55,12.09-4.57,12.06s8,1.39,12.83,1.23c-4.85.16-12.75,2.1-12.72,2.06s2.78,7.61,5.34,11.74c-2.56-4.13-8.19-10-8.15-10s-5.19,6.21-7.48,10.49c2.29-4.28,4.55-12.09,4.57-12s-8-1.39-12.83-1.23c4.85-.16,12.75-2.11,12.73-2.07Z"/><path class="cls-3" d="M529.34,769.7S526.56,762.09,524,758c2.57,4.12,8.2,10,8.16,10s5.19-6.22,7.48-10.5c-2.29,4.28-4.55,12.09-4.57,12s8,1.39,12.83,1.24c-4.86.15-12.75,2.1-12.73,2.06s2.79,7.61,5.35,11.73c-2.56-4.12-8.19-10-8.15-10s-5.19,6.22-7.49,10.5c2.3-4.28,4.56-12.09,4.58-12s-8-1.39-12.83-1.24c4.85-.15,12.74-2.1,12.72-2.06Z"/><path class="cls-3" d="M43.36,468.1A3.38,3.38,0,1,1,42,463.52,3.39,3.39,0,0,1,43.36,468.1Z"/><path class="cls-3" d="M45,299a3.39,3.39,0,1,1-1.39-4.59A3.39,3.39,0,0,1,45,299Z"/><path class="cls-3" d="M451.74,61.73a3.38,3.38,0,1,1-1.39-4.58A3.38,3.38,0,0,1,451.74,61.73Z"/><path class="cls-3" d="M152.66,350.81a6.77,6.77,0,1,1-2.78-9.16A6.77,6.77,0,0,1,152.66,350.81Z"/><path class="cls-2" d="M264.57,387.43a3.8,3.8,0,1,1-1.56-5.15A3.79,3.79,0,0,1,264.57,387.43Z"/><path class="cls-2" d="M296.43,177a3.8,3.8,0,1,1-1.56-5.15A3.8,3.8,0,0,1,296.43,177Z"/><path class="cls-3" d="M211.19,684.35c-.76-2.52-8.4-8.43-8.4-8.43s9.15,3.07,11.68,2.31,8.43-8.41,8.43-8.41-3.07,9.16-2.3,11.68,8.4,8.44,8.4,8.44-9.15-3.08-11.68-2.31-8.43,8.4-8.43,8.4,3.07-9.15,2.3-11.68Z"/><path class="cls-4" d="M539.64,214c-.53-1.73-5.77-5.79-5.77-5.79s6.28,2.11,8,1.59,5.8-5.78,5.8-5.78-2.12,6.29-1.59,8,5.77,5.79,5.77,5.79-6.28-2.11-8-1.58-5.79,5.77-5.79,5.77,2.11-6.29,1.58-8Z"/><path class="cls-4" d="M671,347.25c-.63-2.06-6.86-6.88-6.86-6.88s7.47,2.51,9.53,1.88,6.88-6.85,6.88-6.85-2.5,7.46-1.88,9.53,6.86,6.88,6.86,6.88S678,349.3,676,349.93s-6.88,6.85-6.88,6.85,2.5-7.47,1.88-9.53Z"/><path class="cls-4" d="M684.66,630.85c-.62-2.06-6.86-6.88-6.86-6.88s7.47,2.5,9.53,1.88,6.88-6.86,6.88-6.86-2.5,7.47-1.88,9.53,6.86,6.88,6.86,6.88-7.47-2.5-9.53-1.88-6.88,6.86-6.88,6.86,2.51-7.47,1.88-9.53Z"/><path class="cls-3" d="M748.76,323.11s-2.53-6.92-4.87-10.68c2.34,3.76,7.47,9.1,7.43,9.1s4.72-5.66,6.81-9.56c-2.09,3.9-4.14,11-4.16,11s7.26,1.27,11.68,1.13c-4.42.14-11.61,1.91-11.59,1.88s2.54,6.92,4.87,10.68c-2.33-3.76-7.46-9.1-7.42-9.1s-4.73,5.66-6.81,9.56c2.08-3.9,4.14-11,4.16-11s-7.26-1.27-11.68-1.13c4.42-.14,11.6-1.91,11.58-1.88Z"/><path class="cls-3" d="M775.22,449.69a3.08,3.08,0,1,1-1.27-4.17A3.1,3.1,0,0,1,775.22,449.69Z"/><path class="cls-3" d="M217,165.19a3.08,3.08,0,1,1-1.26-4.17A3.07,3.07,0,0,1,217,165.19Z"/><path class="cls-3" d="M305.54,709.3a3.08,3.08,0,1,1-1.26-4.17A3.08,3.08,0,0,1,305.54,709.3Z"/><path class="cls-3" d="M682.18,420.92a6.17,6.17,0,1,1-2.53-8.34A6.17,6.17,0,0,1,682.18,420.92Z"/><path class="cls-3" d="M617,699.56a6.16,6.16,0,1,1-2.53-8.34A6.16,6.16,0,0,1,617,699.56Z"/><path class="cls-2" d="M584.12,409.11a3.46,3.46,0,1,1-1.41-4.68A3.46,3.46,0,0,1,584.12,409.11Z"/><path class="cls-2" d="M807.65,385.72a3.46,3.46,0,1,1-1.42-4.68A3.45,3.45,0,0,1,807.65,385.72Z"/><path class="cls-3" d="M736,200.68c-.29-1-3.17-3.19-3.17-3.19s3.46,1.16,4.41.87,3.18-3.17,3.18-3.17-1.16,3.46-.87,4.41,3.17,3.18,3.17,3.18-3.45-1.16-4.4-.87-3.19,3.17-3.19,3.17,1.16-3.45.87-4.4Z"/><path class="cls-3" d="M692.13,281.44c18.82-43-6.15-84.4-30.42-111.53-19.7-22-42.11-38.47-52.36-45.49,13.85,16.45,54.29,69.8,45.55,122.33-4.33,25.92-18.84,38-45.66,38h0c-14.61,0-31.24-3.5-47.33-6.9-13.09-2.76-25.45-5.36-36.7-6.2-1.34-.1-2.71-.15-4.08-.15-42.79,0-93.59,49.33-97.53,115.35a.93.93,0,0,1-.7.83,27.13,27.13,0,0,1-13.63,0,.9.9,0,0,1-.69-.83c-3.94-66-54.75-115.35-97.54-115.35-1.36,0-2.73.05-4.07.15-11.25.84-23.62,3.44-36.71,6.2-16.09,3.4-32.72,6.9-47.34,6.9-26.81,0-41.32-12.07-45.65-38C168.51,194.22,209,140.87,222.8,124.42c-10.25,7-32.68,23.49-52.38,45.52-24.25,27.12-49.22,68.49-30.39,111.5,19.55,44.7,55.32,50.43,84.29,50.43,8.12,0,15.94-.46,23.51-.92,6.61-.39,12.85-.76,18.5-.76,12.93,0,20.38,2,24.92,6.82,12.65,13.37,7.14,40.46.29,60.84a1,1,0,0,1-.27.4c-18.23,15.49-27.66,36-32.37,50.4a.91.91,0,0,1-1.46.41c-6.95-6.06-16.69-8.45-27-11-14.38-3.53-29.26-7.17-36.44-21.56-2-4-4.17-6.18-6.13-6.18-2.14,0-4.29,2.69-5.75,7.21-5.33,16.49-1.23,49.53,24.47,68.07,22.38,16.18,38.11,19.57,47.36,19.57h.35a.92.92,0,0,1,.89.73c5.88,28.74,20.88,55,40.11,70.29,29.53,23.4,42.19,44.72,38.73,65.18C328,676.71,334.64,709,352.37,730c14.79,17.55,36.23,26.45,63.73,26.45s48.92-8.89,63.7-26.43c17.72-21,24.4-53.33,18.33-88.64-3.46-20.47,9.21-41.79,38.73-65.19C556.1,561,571.09,534.67,577,505.93a.92.92,0,0,1,.9-.73h.34c9.25,0,25-3.39,47.36-19.57,25.71-18.54,29.8-51.58,24.47-68.07-1.46-4.52-3.61-7.21-5.75-7.21-1.95,0-4.13,2.19-6.12,6.18-7.19,14.39-22.06,18-36.45,21.56-10.32,2.52-20.06,4.91-27,11a.92.92,0,0,1-1.47-.41c-4.71-14.45-14.14-34.92-32.36-50.4a1,1,0,0,1-.28-.4c-6.85-20.38-12.35-47.47.29-60.84,4.54-4.78,12-6.82,24.93-6.82,5.65,0,11.88.37,18.49.76,7.57.46,15.39.92,23.51.92C636.81,331.87,672.58,326.14,692.13,281.44Zm-439,194a93.63,93.63,0,0,0,.13,17.68.91.91,0,0,1-.32.79.88.88,0,0,1-.58.21,1.07,1.07,0,0,1-.25,0c-40.77-11.35-49-33.63-47.46-45,.39-2.88,1.38-4.6,2.65-4.6a1.47,1.47,0,0,1,1.22.7l.34.48c2.2,3.18,8.06,11.62,17.8,12.73,10.79,1.22,19.87,4.5,27,9.76a.9.9,0,0,1,.35.89C253.54,471.44,253.28,473.7,253.1,475.4Zm325.45-7.28c7.11-5.26,16.18-8.54,27-9.76,9.9-1.12,15.91-9.94,17.88-12.83l.26-.38a1.47,1.47,0,0,1,1.23-.7c1.26,0,2.26,1.72,2.65,4.61,1.55,11.37-6.69,33.64-47.43,45l-.24,0a.88.88,0,0,1-.58-.21.93.93,0,0,1-.33-.78,97.18,97.18,0,0,0,.09-17.7c-.18-1.69-.44-3.95-.86-6.38A.9.9,0,0,1,578.55,468.12ZM230,325.63c-.19.7-.85.71-1.44.71-1.57.12-3.23.19-4.87.19h0c-39.77,0-76.29-35.46-76.61-74.39-.45-47.38,25.23-79,36.29-90.37a.91.91,0,0,1,1.45,1.08c-43.94,77.53-29.42,112.14-9.42,135.76,21.65,25.62,52.76,25.91,53.07,25.91l.59,0a.92.92,0,0,1,.54.13A.91.91,0,0,1,230,325.63Zm67.45-34c-10,0-21.72,1.1-34.13,2.27-13.25,1.25-26.95,2.53-39.43,2.53-20.46,0-33.27-3.53-40.29-11.11-4.62-5-6.63-11.8-6-20.28a.91.91,0,0,1,1.78-.17c5.31,19.43,15.34,25.51,42.94,26,8.22.14,19.68-1,31.86-2.22,13.53-1.35,28.87-2.89,42.43-2.89,15.62,0,26.6,2,33.59,6.24,5.9,3.53,9.62,10.71,10.73,20.73,2.79,25.13-10.83,63.4-28.57,80.29a1,1,0,0,1-.63.25.9.9,0,0,1-.52-.17.91.91,0,0,1-.32-1.11c12.5-28.8,27.82-69.32,16.57-88.47-3.9-6.64-10.88-10.51-20.75-11.49A91.54,91.54,0,0,0,297.47,291.59Zm46.21,227.07a13.6,13.6,0,0,1-13.23,10.47,14,14,0,0,1-3.21-.38,13.62,13.62,0,0,1,3.19-26.86,14.06,14.06,0,0,1,3.16.37A13.68,13.68,0,0,1,343.68,518.66Zm3.64,87.54a.9.9,0,0,1-.86.62h-.15a.91.91,0,0,1-.76-.91,224.13,224.13,0,0,1,3.28-33.32c.51-2.82,1.26-6.23,2.05-9.83,5.27-23.94,14.07-64-15.31-71.05a24.48,24.48,0,1,0,5.17,45.76.91.91,0,0,1,1,1.54,36.3,36.3,0,0,1-30.23,6.44,35.85,35.85,0,0,1,8.31-70.71,36.47,36.47,0,0,1,8.37,1c23,5.51,36.86,22.76,38.09,47.34a97.56,97.56,0,0,1-2.11,26.53C360.56,565.82,352.28,591.09,347.32,606.2Zm128.36,79.48C464,712,436.26,721.39,416.1,721.39s-47.92-9.35-59.62-35.71a.91.91,0,0,1,1.61-.83c12.85,21.94,43.14,25.56,53.18,26.15,1.68-4.6,2.31-14.3,1.48-23.24-10.69-5.69-19.66-11.09-21.64-19-.54-2.16-3.4-5-6.43-7.93-4.78-4.7-10.21-10-9-15.33.86-3.8,5-6.92,12.58-9.51a.9.9,0,0,1,.78.09.91.91,0,0,1,.42.66c1.25,9.58,4.24,18.52,26.64,22.59,22.36-4.07,25.34-13,26.59-22.59a.89.89,0,0,1,.43-.66.87.87,0,0,1,.77-.09c7.61,2.59,11.72,5.71,12.59,9.51,1.21,5.31-4.22,10.63-9,15.33-3,3-5.89,5.77-6.43,7.93-2,7.91-10.94,13.31-21.64,19-.82,8.94-.19,18.64,1.49,23.24,10-.59,40.33-4.21,53.17-26.15a.91.91,0,0,1,1.2-.35A.92.92,0,0,1,475.68,685.68Zm22.87-183.41a13.75,13.75,0,0,1,3.18-.38,13.62,13.62,0,0,1,3.18,26.86,13.88,13.88,0,0,1-3.21.38h0a13.62,13.62,0,0,1-3.15-26.86Zm48.65,0a35.81,35.81,0,0,1-26.52,43.2A36.25,36.25,0,0,1,490.46,539a.91.91,0,0,1,1-1.54A24.77,24.77,0,0,0,502.24,540h0a24.51,24.51,0,0,0,23.84-30.18A24.39,24.39,0,0,0,502.31,491a24.73,24.73,0,0,0-5.73.68c-29.38,7-20.57,47.11-15.31,71.05.79,3.6,1.54,7,2.05,9.83a225,225,0,0,1,3.29,33.32.91.91,0,0,1-.77.91h-.15a.91.91,0,0,1-.86-.62c-4.95-15.11-13.24-40.38-16.8-56.62a96.67,96.67,0,0,1-2.11-26.52c1.22-24.58,15.11-41.83,38.08-47.34a36.47,36.47,0,0,1,8.37-1A35.72,35.72,0,0,1,547.2,502.24Zm21.61-208.38c-12.41-1.17-24.13-2.27-34.13-2.27a91.68,91.68,0,0,0-9.28.41c-9.85,1-16.83,4.85-20.73,11.49-11.25,19.17,4.06,59.67,16.55,88.47a.92.92,0,0,1-.31,1.11.9.9,0,0,1-1.15-.08C502,376.1,488.39,337.83,491.18,312.7c1.12-10,4.83-17.2,10.74-20.73,7-4.2,18-6.24,33.58-6.24,13.57,0,28.9,1.54,42.43,2.89,12.19,1.22,23.64,2.37,31.86,2.22,27.59-.5,37.63-6.58,43-26a.92.92,0,0,1,1-.66.9.9,0,0,1,.82.84c.64,8.47-1.38,15.29-6,20.27-7,7.58-19.84,11.11-40.32,11.11C595.76,296.39,582.06,295.11,568.81,293.86Zm39.64,32.67c-1.64,0-3.29-.07-4.91-.19-.58,0-1.22,0-1.41-.71a.91.91,0,0,1,.41-1,1,1,0,0,1,.55-.13l.55,0c.34,0,31.46-.3,53.11-25.92,20-23.62,34.51-58.22-9.38-135.76a.91.91,0,0,1,1.44-1.08c11.05,11.4,36.7,43,36.3,90.37C684.74,291.07,648.2,326.53,608.45,326.53Z"/><path class="cls-5" d="M492,177.17a38,38,0,0,0-1.27-8.16,30,30,0,0,0-8.61-14.53,26.9,26.9,0,0,0-15.65-6.9,29.53,29.53,0,0,0-16.24,3.22,35,35,0,0,0-8.44,6.12c0-5.6.23-11.33.47-17.12.39-9.18.89-18.5.34-28.26a72.6,72.6,0,0,0-2.27-15.19,32.4,32.4,0,0,0-3.46-8.14,20.91,20.91,0,0,0-7.36-7.33,20.24,20.24,0,0,0-7.67-2.5l-1.41-.13-.86,0a20.85,20.85,0,0,0-10.2,2.36c-5.91,3.18-9.5,7.74-12.35,12.11a81.57,81.57,0,0,0-6.79,13.49c-1.48,3.67-2.75,7.36-3.9,11.06,0-1.19,0-2.38-.09-3.57l-.47-15.57c0-.69,0-1.21-.08-2a19.64,19.64,0,0,0-7.33-14.74,20.38,20.38,0,0,0-17.71-3.6,22.63,22.63,0,0,0-8,3.92,24.11,24.11,0,0,0-3.22,2.91c-.51.51-1,1.12-1.46,1.67l-1.17,1.59a2.42,2.42,0,0,0,3.76,3.05l0,0,1.28-1.44c.41-.38.77-.77,1.21-1.15a19.91,19.91,0,0,1,2.75-2.06A16.81,16.81,0,0,1,362,83.83a14.77,14.77,0,0,1,6.29.3A12.35,12.35,0,0,1,373.52,87a11.45,11.45,0,0,1,3.11,4.86,12.39,12.39,0,0,1,.58,2.87,10.64,10.64,0,0,1,.05,1.5c0,.47,0,1.24,0,1.85l-.47,15.57c-.35,10.38-.53,20.76-.79,31.14s-.48,20.76-.62,31.14a6.12,6.12,0,0,0,12.19.86l0-.24c1.13-8.82,2.68-17.86,4.5-26.67s3.89-17.59,6.56-26.05,5.88-16.72,10.26-23.36c2.17-3.27,4.75-6,7-7.14A6.62,6.62,0,0,1,419,92.6l.86,0,.31,0c.15,0,.52.1.76.14a5.86,5.86,0,0,1,1.34.54,6.53,6.53,0,0,1,2.24,2.37,18.54,18.54,0,0,1,1.85,4.54,58.33,58.33,0,0,1,1.7,12.07c.23,4.3.21,8.75.12,13.24s-.22,9.06-.37,13.66c-.27,9.23-.67,18.59.14,28.43a75.49,75.49,0,0,0,1,7.54c.21,1.16.44,2.2.77,3.46A64.29,64.29,0,0,0,427.88,189c-.46,4.56-.87,9.24-1.22,13.82l-1,13.77c-.33,4.57-.68,9.12-1.26,13.57a50.88,50.88,0,0,1-3.06,12.76,18,18,0,0,1-8.29,9.23,1.41,1.41,0,0,0,1.22,2.54,21.55,21.55,0,0,0,6.23-4,22.39,22.39,0,0,0,4.54-5.95A51.21,51.21,0,0,0,429.56,231c1.93-9.23,3-18.37,4.33-27.44.55-3.82,1.13-7.57,1.75-11.36a41.57,41.57,0,0,0,3.52,4.77,39.35,39.35,0,0,0,13.21,10,31.21,31.21,0,0,0,17.1,2.77,25.34,25.34,0,0,0,8.8-2.9,24.06,24.06,0,0,0,7.12-6A31,31,0,0,0,491.7,185,45.3,45.3,0,0,0,492,177.17Zm-12.61,6.18a18.5,18.5,0,0,1-3.83,9.4,11.49,11.49,0,0,1-7.7,4,18.05,18.05,0,0,1-9.72-1.94,25.73,25.73,0,0,1-8.42-6.76,32.09,32.09,0,0,1-5.46-9.8c-.18-.47-.27-.84-.41-1.26l-.46-1.61c-.16-.69-.42-1.79-.57-2.73-.08-.45-.14-.92-.21-1.37,3.09-5,7.22-9,12.13-11.19a19.62,19.62,0,0,1,10.54-1.67,15.62,15.62,0,0,1,9,4.38,18.31,18.31,0,0,1,4.85,9.13,27.05,27.05,0,0,1,.65,5.48A35.09,35.09,0,0,1,479.34,183.35Z"/></g></g></svg>
