<svg xmlns="http://www.w3.org/2000/svg" viewBox="0 0 832.22 832.22"><defs><style>.cls-1{fill:#221e1f;}.cls-2{fill:#FFDD57;}.cls-2,.cls-3,.cls-4{fill-rule:evenodd;}.cls-3{fill:#fff;}.cls-4,.cls-5{fill:#FFDD57;}</style></defs><title>Element 11</title><g id="Ebene_2" data-name="Ebene 2"><g id="Layer_3" data-name="Layer 3"><circle class="cls-1" cx="416.11" cy="416.11" r="415.99" transform="translate(-172.36 416.11) rotate(-45)"/><path class="cls-2" d="M724.25,325.12a5.45,5.45,0,1,0-7,3.24A5.46,5.46,0,0,0,724.25,325.12Z"/><path class="cls-2" d="M401.92,65a5.45,5.45,0,1,0-7,3.24A5.45,5.45,0,0,0,401.92,65Z"/><path class="cls-3" d="M363.69,590.05c-2.64,1.22-13.06-.73-13.06-.73s9.21,5.26,10.43,7.89-.72,13.06-.72,13.06,5.25-9.21,7.88-10.43,13.06.72,13.06.72-9.21-5.26-10.43-7.89.72-13,.72-13-5.25,9.21-7.88,10.43Z"/><path class="cls-4" d="M84.22,591.62c-2.15,1-10.65-.59-10.65-.59s7.51,4.29,8.51,6.44-.59,10.65-.59,10.65,4.29-7.51,6.43-8.51,10.65.59,10.65.59-7.51-4.29-8.5-6.43.59-10.66.59-10.66-4.29,7.52-6.44,8.51Z"/><path class="cls-4" d="M142.49,286.72c-1.81.84-9-.49-9-.49s6.32,3.61,7.16,5.42-.49,9-.49,9,3.61-6.33,5.42-7.17,9,.5,9,.5-6.33-3.61-7.17-5.42.5-9,.5-9-3.61,6.33-5.42,7.16Z"/><path class="cls-3" d="M104.26,192.76a69.59,69.59,0,0,1-10,3.1,72.08,72.08,0,0,1,10.46-.46,69.62,69.62,0,0,1-2.31,10.22,71.06,71.06,0,0,1,4.83-9.29,69.24,69.24,0,0,1,7.69,7.11,70.25,70.25,0,0,1-5.63-8.83,69.59,69.59,0,0,1,10-3.1,72.17,72.17,0,0,1-10.47.46,70.47,70.47,0,0,1,2.32-10.22,69.36,69.36,0,0,1-4.84,9.29,70.46,70.46,0,0,1-7.68-7.11,72.32,72.32,0,0,1,5.63,8.83Z"/><path class="cls-3" d="M624.91,406.47a69.59,69.59,0,0,1-10,3.1,72.17,72.17,0,0,1,10.47-.46,70.18,70.18,0,0,1-2.32,10.22,69.36,69.36,0,0,1,4.84-9.29,70.19,70.19,0,0,1,7.69,7.11,70.25,70.25,0,0,1-5.63-8.83,68.85,68.85,0,0,1,10-3.1,72.08,72.08,0,0,1-10.46.46,69.91,69.91,0,0,1,2.31-10.22,71.06,71.06,0,0,1-4.83,9.29,69.24,69.24,0,0,1-7.69-7.11,71,71,0,0,1,5.63,8.83Z"/><path class="cls-3" d="M277.25,684.54a69.59,69.59,0,0,1-10,3.1,72.17,72.17,0,0,1,10.47-.46,70.18,70.18,0,0,1-2.32,10.22,69.36,69.36,0,0,1,4.84-9.29,70.19,70.19,0,0,1,7.69,7.11,71,71,0,0,1-5.63-8.83,68.85,68.85,0,0,1,10-3.1,72.08,72.08,0,0,1-10.46.46,69.62,69.62,0,0,1,2.31-10.22,71.06,71.06,0,0,1-4.83,9.29,69.24,69.24,0,0,1-7.69-7.11,71,71,0,0,1,5.63,8.83Z"/><path class="cls-3" d="M117.74,506a69.59,69.59,0,0,1-10,3.1,72.17,72.17,0,0,1,10.47-.46,71.64,71.64,0,0,1-2.32,10.22,71.06,71.06,0,0,1,4.83-9.29,69.24,69.24,0,0,1,7.69,7.11,71,71,0,0,1-5.63-8.83,69.59,69.59,0,0,1,10-3.1,72.17,72.17,0,0,1-10.47.46A70.18,70.18,0,0,1,124.63,495a69.36,69.36,0,0,1-4.84,9.29,70.46,70.46,0,0,1-7.68-7.11,72.32,72.32,0,0,1,5.63,8.83Z"/><path class="cls-3" d="M682.3,190.56c0-.05-7.53,3-12.31,3.81,4.78-.83,12.91-.53,12.88-.56s-1.18,8-2.85,12.57c1.67-4.56,6-11.44,6-11.44s6.34,5,9.46,8.76c-3.12-3.73-6.92-10.91-6.93-10.87s7.53-3,12.31-3.82c-4.78.83-12.9.53-12.88.57s1.18-8,2.86-12.58c-1.68,4.57-6,11.45-5.95,11.44s-6.35-5-9.47-8.76c3.12,3.73,6.92,10.92,6.93,10.88Z"/><path class="cls-3" d="M740.63,243.36s-7.53,3-12.31,3.82c4.78-.84,12.91-.54,12.88-.57s-1.18,8-2.86,12.57c1.68-4.56,6-11.44,6-11.43s6.34,5,9.46,8.75c-3.12-3.73-6.92-10.91-6.93-10.87s7.53-3,12.31-3.81c-4.78.83-12.91.53-12.88.56s1.18-8,2.86-12.57c-1.68,4.56-6,11.44-6,11.43s-6.34-5-9.46-8.75c3.12,3.73,6.92,10.91,6.93,10.87Z"/><path class="cls-3" d="M206.85,103.32a3.38,3.38,0,1,0-4.34,2A3.38,3.38,0,0,0,206.85,103.32Z"/><path class="cls-3" d="M81.71,217.08a3.38,3.38,0,1,0-4.34,2A3.37,3.37,0,0,0,81.71,217.08Z"/><path class="cls-3" d="M192.07,263a6.77,6.77,0,1,0-8.69,4A6.76,6.76,0,0,0,192.07,263Z"/><path class="cls-2" d="M333.24,343.62a3.8,3.8,0,1,0-4.88,2.26A3.81,3.81,0,0,0,333.24,343.62Z"/><path class="cls-2" d="M202,568.93a3.8,3.8,0,1,0-4.87,2.26A3.79,3.79,0,0,0,202,568.93Z"/><path class="cls-3" d="M496.51,56.89c-2.4,1.11-11.89-.66-11.89-.66S493,61,494.11,63.41s-.65,11.89-.65,11.89,4.78-8.38,7.18-9.49,11.88.65,11.88.65-8.38-4.78-9.49-7.18.66-11.88.66-11.88-4.79,8.38-7.18,9.49Z"/><path class="cls-4" d="M191.57,690.19c-1.65.76-8.17-.45-8.17-.45s5.76,3.28,6.53,4.93-.46,8.17-.46,8.17,3.29-5.76,4.94-6.53,8.17.46,8.17.46-5.77-3.29-6.53-4.94.45-8.17.45-8.17-3.28,5.76-4.93,6.53Z"/><path class="cls-4" d="M461.51,503.76c-1.65.76-8.17-.45-8.17-.45s5.76,3.29,6.53,4.93-.46,8.17-.46,8.17,3.29-5.76,4.94-6.52,8.17.45,8.17.45-5.77-3.29-6.53-4.94.45-8.16.45-8.16-3.28,5.76-4.93,6.52Z"/><path class="cls-4" d="M648,663.11c-2,.91-9.7-.54-9.7-.54s6.84,3.91,7.75,5.86-.54,9.7-.54,9.7,3.91-6.84,5.86-7.75,9.7.54,9.7.54-6.84-3.9-7.75-5.86.54-9.7.54-9.7-3.9,6.84-5.86,7.75Z"/><path class="cls-4" d="M755.16,473.6c-1.95.91-9.7-.53-9.7-.53s6.85,3.9,7.75,5.86-.54,9.69-.54,9.69,3.91-6.84,5.86-7.74,9.7.53,9.7.53-6.84-3.9-7.74-5.85.53-9.7.53-9.7-3.9,6.84-5.86,7.74Z"/><path class="cls-3" d="M568.16,726.27S561.31,729,557,729.75c4.36-.76,11.76-.49,11.73-.52s-1.07,7.3-2.6,11.45c1.53-4.15,5.46-10.42,5.42-10.41s5.78,4.57,8.62,8c-2.84-3.4-6.3-9.94-6.31-9.9s6.85-2.72,11.21-3.47c-4.36.75-11.75.48-11.73.51s1.08-7.29,2.6-11.45c-1.52,4.16-5.46,10.42-5.42,10.42s-5.78-4.58-8.61-8c2.83,3.4,6.29,9.94,6.3,9.9Z"/><path class="cls-3" d="M680.24,661.76a3.08,3.08,0,1,0-4,1.84A3.08,3.08,0,0,0,680.24,661.76Z"/><path class="cls-3" d="M103.43,469.73a3.08,3.08,0,1,0-4,1.83A3.08,3.08,0,0,0,103.43,469.73Z"/><path class="cls-3" d="M568,91a3.08,3.08,0,1,0-3.95,1.84A3.07,3.07,0,0,0,568,91Z"/><path class="cls-3" d="M596.84,611.48a6.17,6.17,0,1,0-7.91,3.66A6.16,6.16,0,0,0,596.84,611.48Z"/><path class="cls-2" d="M563.9,509.76a3.46,3.46,0,1,0-4.44,2.06A3.46,3.46,0,0,0,563.9,509.76Z"/><path class="cls-2" d="M654.09,728.55a3.46,3.46,0,1,0-4.44,2.06A3.47,3.47,0,0,0,654.09,728.55Z"/><path class="cls-3" d="M468.27,798.21c-.91.42-4.49-.25-4.49-.25s3.17,1.81,3.59,2.71-.25,4.49-.25,4.49,1.8-3.16,2.71-3.58,4.48.25,4.48.25-3.16-1.81-3.58-2.71.25-4.49.25-4.49-1.81,3.16-2.71,3.58Z"/><path class="cls-3" d="M690.2,652.17c-.91.42-4.49-.25-4.49-.25s3.17,1.81,3.59,2.71-.25,4.49-.25,4.49,1.8-3.17,2.71-3.58,4.48.24,4.48.24-3.16-1.8-3.58-2.71.25-4.48.25-4.48-1.81,3.16-2.71,3.58Z"/><path class="cls-3" d="M295.58,384.86A33.94,33.94,0,0,0,324.37,400a42.33,42.33,0,0,0,9.19-1c18.92-4.19,38.26-13.47,58.74-23.31,17.8-8.54,36.2-17.38,55.18-23.16a.94.94,0,0,1,.41,0,90.94,90.94,0,0,0,14,1.08c27.74,0,58.45-12.58,91.26-37.4,26.41-20,38.37-30.75,45.51-37.18s9-8.09,15.12-9.55c11.59-2.76,16-6.44,17.36-21.6,2.68-29.69-8.2-87-21.57-113.56-5.37-10.68-9.86-14.28-17.77-14.28a45.3,45.3,0,0,0-6.31.53,27.62,27.62,0,0,1-3.94.32c-3.81,0-6.89-1.15-13.64-3.67-9-3.36-24.07-9-55.92-17.9-20.64-5.76-39.67-8.68-56.56-8.68-24.71,0-45.77,6.29-62.58,18.69a.93.93,0,0,1-.51.18c-3,.11-6.15.17-9.37.17-13.91,0-28-1-41.61-2-13.38-1-26-1.88-38.26-1.88a159,159,0,0,0-24.92,1.72c-13.76,2.18-24.22,10.2-28.71,22-5.57,14.65-1.11,32.39,12.23,48.68a.91.91,0,0,1-.94,1.45c-6.28-1.68-12.82-4.08-19.15-6.41-11.17-4.1-21.72-8-30.37-8a19.05,19.05,0,0,0-8.6,1.78c-15.39,7.66-11.32,71.58,2.14,126.85,2.22-.58,4.48-1.13,6.71-1.62-1.83-7.31-3.5-14.9-5-22.57-7.81-41.3-9.18-85.29,2-87.42a4.11,4.11,0,0,1,.86-.08c10.12,0,24.33,34.67,33.06,80.65,7.73,40.61,8.26,76.23,1.32,85.19.13,6.71,1.82,12.43,5.05,17l.12.18c8.12-3.11,16.61-10.68,25.58-18.68,6.2-5.52,12.6-11.23,19-15.52a1,1,0,0,1,.51-.15.92.92,0,0,1,.58.21A.91.91,0,0,1,295,332C286.52,352.35,286.74,371.61,295.58,384.86ZM582.37,129.59a.92.92,0,0,1,1.21-.08c12.93,9.93,24.47,34.57,30.12,64.3s4,57.16-4.31,71.59a.91.91,0,0,1-.79.46.9.9,0,0,1-.88-1.18c8.44-27.5-7.47-111.34-25.41-133.88A.92.92,0,0,1,582.37,129.59ZM432.31,172.18a.91.91,0,0,1,.74-.92.92.92,0,0,1,1,.58c10.11,27.58,1.28,79.9-17.82,105.63C407.5,289.28,400.93,291,397.8,291a6.76,6.76,0,0,1-6.29-3.77c-1.92-3.83-.84-9.26,2.82-14.17.8-1.06,1.72-2.24,2.73-3.56C408.92,254.24,433.59,222.4,432.31,172.18Zm-1.92,144.17c-2.46,1.57-4.58,2.36-6.31,2.36a4.14,4.14,0,0,1-4.07-2.79c-2.12-5.41,2.64-18,12.84-27.4,15.07-13.84,16.62-53.84,11.85-63.91a.91.91,0,0,1,1.61-.85C463.5,253,446.06,306.39,430.39,316.35Zm-6.28-207.28a.92.92,0,0,1,1.17-.23c21.9,12.48,38.82,60,47.36,100.3,10,47.41,12.7,105.38-4,128a.91.91,0,0,1-.74.37.88.88,0,0,1-.44-.12.91.91,0,0,1-.4-1.13c7.8-19.26,6.52-65-3.26-116.48s-25.34-94.49-39.66-109.53A.91.91,0,0,1,424.11,109.07Zm-13.23,27.25a.91.91,0,0,1,1.22.32c17.9,28.79,1.75,82.56-13.68,92.93-2.49,1.67-4.64,2.52-6.4,2.52a4.14,4.14,0,0,1-4-2.77c-2.18-5.39,2.31-18.06,12.23-27.62,14.7-14.17,15.28-54.21,10.29-64.18A.91.91,0,0,1,410.88,136.32Zm-21.13,39.53c4-6.75,10.07-16.94,10-33.24a.9.9,0,0,1,.82-.91.93.93,0,0,1,1,.73c3.38,17.59,1.68,34.8-4.15,41.85a7.46,7.46,0,0,1-5.69,3.1,6.61,6.61,0,0,1-2.4-.47,4.27,4.27,0,0,1-2.74-2.45C385.89,182.35,387.42,179.76,389.75,175.85Zm-2,144.89c6.62,5.55,14.86,12.45,24.76,18.42a.93.93,0,0,1,.43.92.88.88,0,0,1-.68.74c-11.35,2.84-20.22,8.27-32.5,15.78-4.25,2.6-9.08,5.55-14.47,8.66-14.44,8.35-25.67,12.41-34.34,12.41-12.14,0-18.89-8.16-20.05-24.26-.85-12.3,5.43-24.52,18.66-36.31a.92.92,0,0,1,.39-.21c11.62-2.88,23.14-4.89,31.56-6.36,2.58-.45,4.86-.85,6.78-1.2a5.31,5.31,0,0,1,1.14-.11C374,309.22,379.77,314.05,387.75,320.74Zm-17.1-17.85a.9.9,0,0,1-.63.25.94.94,0,0,1-.5-.15.9.9,0,0,1-.35-1.07c7.85-21.82-8.15-106-23.46-123.43a.91.91,0,0,1,1-1.44c13.72,5.65,23.76,35.82,28.2,59.93C379.77,263.24,380.31,293.8,370.65,302.89Zm-105.52,43a.91.91,0,0,1-1.68-.7c2.46-7.33.57-48.42-6.4-85.19s-20.26-75.62-25.26-81.62a.91.91,0,0,1,.08-1.25.92.92,0,0,1,1.26,0c12.42,12.18,25.07,44.29,32.21,81.79C272.17,294.92,272.07,332.3,265.13,345.87Zm8.7-187.82c-3.22-10.25-2.84-18.19,1.14-23.61,4.41-6,12.94-8.94,26.07-8.94a131.88,131.88,0,0,1,19,1.6c6.24.93,11.87,1.92,16.84,2.79,10.51,1.85,18.8,3.31,27.17,3.31,1.36,0,2.71,0,4-.12a.87.87,0,0,1,.84.46.92.92,0,0,1,0,1,229.94,229.94,0,0,0-12.5,21c-5.34,9.82-9.2,16.91-14,17.82-2.1.4-4.64.91-7.51,1.49-10.38,2.12-24.6,5-38.84,6.42H296a.87.87,0,0,1-.42-.1C284.1,175.25,276.77,167.48,273.83,158.05ZM102.29,448.89C97.36,443.3,93,430.13,95.6,410c6.87-53.73,68-85.73,113-102.18-47.92,24.41-80.55,60.55-81.1,91.27-.65,36.91-9.76,53.44-18.49,53.44C106.67,452.48,104.35,451.24,102.29,448.89Zm496-14.8c.5,3.11-3.93,15.25-81.91,40.92a300.84,300.84,0,0,1-94.13,15.1c-71.09,0-135.59-26-168.36-67.79-18.31-23.38-26-50.59-22.68-79.47.11,51.11,34,93.08,91.5,111.65,31,10,61.23,15.06,90,15.06,38.52,0,75.4-8.89,112.75-27.18,18.89-9.25,41.72-13.39,56-13.39C591.32,429,597.79,431,598.29,434.09Zm-383.08-91.6C202.44,386,198.42,421,237,461.39c36.51,38.28,125.06,76.9,240.6,76.9,5.14,0,10.36-.07,15.53-.22,10.63-.31,20.78-.47,30.17-.47,59.37,0,81.12,6.25,81.71,11.6.35,3.24-7.67,8.56-31.24,13.77a370.76,370.76,0,0,1-79.86,8.39c-119.94,0-236.4-51.18-276.91-121.7C197.43,415.58,196.86,378.69,215.21,342.49Zm-60.78,82.85c1.22,36,19,71.41,35.6,101.74,2,3.58,2.34,6.73,1.07,8.88-1,1.77-3.19,2.75-6,2.75-13.83,0-38.14-20.83-44.5-76.73-5.74-50.37,27.05-111,62.4-137.88C169.09,355.27,153.18,388.5,154.43,425.34ZM331.86,586.25c-1.17,4.72-7,7.54-15.63,7.54-15.25,0-34.46-8.38-51.41-22.4-39.55-32.75-73.28-76-83.92-107.55-12.81-38-5.41-79.67,20.21-115.82-16.79,35-20.75,67.63-11.77,97.26,16.25,53.61,71.49,88.16,111.62,109.48C326.19,568.16,333.47,579.82,331.86,586.25Z"/><path class="cls-5" d="M532.53,691.1s-.19,0-.25-.17a3.49,3.49,0,0,1-.43-1.76c-.2-2.38.49-6.41,1.16-11.58.34-2.6.72-5.51.88-8.79a35.65,35.65,0,0,0-.94-11.06,17.4,17.4,0,0,0-3-6.29,14.89,14.89,0,0,0-6.4-4.69,19.5,19.5,0,0,0-4.08-1.06l-1.58-.15-.39,0-.2,0h-1.42a28.38,28.38,0,0,0-7.62,1.12,40.9,40.9,0,0,0-7.2,2.86,59.71,59.71,0,0,0-6.62,4,98.52,98.52,0,0,0-12,10.1c-3.79,3.65-7.46,7.5-11.16,11.28-1.84,1.88-3.72,3.73-5.57,5.48a47.66,47.66,0,0,1-3.69,3.19c.42-5.35,1.31-11.37,1-18a32.78,32.78,0,0,0-2.16-10.87,20.32,20.32,0,0,0-3.49-5.77,18.07,18.07,0,0,0-5.85-4.36,23.33,23.33,0,0,0-3.29-1.21,33.91,33.91,0,0,0-3.55-.61l-1.11-.07-.55,0h-.28l-.56,0H442c-1,0-2,.08-2.94.15a34.74,34.74,0,0,0-10.77,3c-6.52,3-11.7,7.19-16.35,11.44s-8.78,8.75-12.75,13.09-7.79,8.59-11.46,12l-.31.26c.05-.89.11-1.8.16-2.71.17-2.73.37-5.55.37-8.44a58.36,58.36,0,0,0-.54-8.93,27.46,27.46,0,0,0-3.12-9.58,17.35,17.35,0,0,0-8.56-7.57c-.87-.31-1.74-.57-2.61-.83s-1.89-.33-2.83-.45a5.72,5.72,0,0,0-.57,0h-.45l-.91,0h-.57c-.71,0-.28,0-.48,0l-.28,0-1.13.08a29.22,29.22,0,0,0-8.42,1.94,38.71,38.71,0,0,0-7,3.49c-8.47,5.32-14.12,11.7-19.05,17.18s-8.78,10.44-12.16,14.19c-1.69,1.87-3.23,3.47-4.59,4.75a25.25,25.25,0,0,1-3.56,2.78c-.47.26-1,.52-1.25.65a3.77,3.77,0,0,1-.76.31l-1.07.19h0a2.43,2.43,0,0,0,.46,4.83l1.09,0a11.77,11.77,0,0,0,1.83-.32,19.27,19.27,0,0,0,2.16-.75,42.33,42.33,0,0,0,10.59-7.5c4-3.56,8.48-8.07,13.63-13,2.58-2.44,5.36-5,8.36-7.38a59.55,59.55,0,0,1,9.7-6.59,27.68,27.68,0,0,1,5.32-2.2,17.89,17.89,0,0,1,5.4-.85h.75l.39,0,.91.07.46,0a1,1,0,0,1,.34,0,4.28,4.28,0,0,0,.78.21c.29.13.6.24.9.34a5,5,0,0,1,2.32,2.45c1.32,2.52,1.66,7.25,1.36,12.11-.15,2.47-.35,5-.6,7.77a86.88,86.88,0,0,0-.52,9l.06,1.4.19,1.61c.1.61.28,1.32.45,2,.15.42.34.89.53,1.32a6.75,6.75,0,0,0,.8,1.42,11.17,11.17,0,0,0,1.32,1.58,10.73,10.73,0,0,0,2.08,1.42,7.3,7.3,0,0,0,2.24.75,11.16,11.16,0,0,0,1.14.16l.56,0,.79,0,1.05-.09a20.11,20.11,0,0,0,2.24-.47,11.83,11.83,0,0,0,1.82-.64c.49-.21,1.07-.43,1.48-.66a24.44,24.44,0,0,0,2.51-1.47A39.55,39.55,0,0,0,397,693c4.94-4.22,8.78-8.64,12.77-12.91s7.84-8.43,11.92-12.13A53.54,53.54,0,0,1,434.3,659a20.1,20.1,0,0,1,6.26-1.91l1.51-.1h.09l.55,0,1.11.06a6.73,6.73,0,0,0,.82.15c.27.14.66.16.88.31a4,4,0,0,1,1.23.84,6.24,6.24,0,0,1,1.05,1.75,19.1,19.1,0,0,1,1.26,6.31c.32,5-.15,10.51-.44,16.53-.07,1.52-.11,3.12,0,4.92,0,.48.05.91.1,1.42l.23,1.62a19.64,19.64,0,0,0,.55,2c.17.43.36.86.57,1.28a4.3,4.3,0,0,0,.35.66c.18.27.37.54.58.81a7.91,7.91,0,0,0,1.43,1.48,11,11,0,0,0,2.12,1.25,9,9,0,0,0,2.14.52c.37.05.73.08,1.09.1,1.26-.07.42,0,.74,0h.13l1.1-.14a21.3,21.3,0,0,0,2.23-.54l.54-.16.37-.16.74-.32A11.83,11.83,0,0,0,465,697a23.59,23.59,0,0,0,2.37-1.46,52.16,52.16,0,0,0,7.12-6.2c2-2.08,3.88-4.18,5.68-6.22,3.57-4.09,6.92-8,10.28-11.65a106.58,106.58,0,0,1,10.14-9.74,50.77,50.77,0,0,1,5.18-3.75,32.38,32.38,0,0,1,5.26-2.59,19.9,19.9,0,0,1,5.2-1.19l.64-.07h.08c-.47,0-.07,0-.15,0h.59l1.56,0a12.76,12.76,0,0,1,1.91.33,7,7,0,0,1,3.29,1.86,10.25,10.25,0,0,1,2.12,3.56,31.79,31.79,0,0,1,1.65,9c.2,3,.17,5.81.14,8.39-.1,5.18-.22,9.33.41,12.48a7.78,7.78,0,0,0,.78,2.2,3.63,3.63,0,0,0,.66.92,2.32,2.32,0,0,0,.83.64,2.86,2.86,0,0,0,1.35.41l.46,0a1.41,1.41,0,0,0,0-2.81Z"/><path class="cls-5" d="M517.53,720.29a35.05,35.05,0,0,0-.94-11.06,17.37,17.37,0,0,0-3-6.29,15,15,0,0,0-6.41-4.69,19.5,19.5,0,0,0-4.08-1.06l-1.57-.16-.4,0-.19,0H499.5a28.66,28.66,0,0,0-7.62,1.11,40.73,40.73,0,0,0-7.21,2.87,58.24,58.24,0,0,0-6.62,4,98.43,98.43,0,0,0-12,10.09c-3.79,3.65-7.46,7.51-11.16,11.29-1.84,1.88-3.72,3.73-5.57,5.48-1.22,1.15-2.47,2.25-3.68,3.19.42-5.36,1.3-11.37,1-18a33.06,33.06,0,0,0-2.17-10.87,20.1,20.1,0,0,0-3.49-5.77,18,18,0,0,0-5.85-4.36,23.33,23.33,0,0,0-3.29-1.21,33.91,33.91,0,0,0-3.55-.61l-1.11-.07-.55,0-.28,0-.56,0h-.18c-1,0-2,.08-2.93.15a34.32,34.32,0,0,0-10.77,3c-6.53,3-11.71,7.19-16.36,11.44s-8.78,8.75-12.75,13.09-7.79,8.59-11.45,11.94L371,734c.05-.9.11-1.8.17-2.71.16-2.73.37-5.55.37-8.44a58.4,58.4,0,0,0-.55-8.93,27.39,27.39,0,0,0-3.12-9.58,17.37,17.37,0,0,0-8.56-7.58c-.86-.3-1.74-.57-2.61-.82s-1.89-.33-2.83-.45a3.72,3.72,0,0,0-.57,0h-.45l-.91,0h-.57c-.71,0-.28,0-.47,0l-.29,0-1.13.08a29.22,29.22,0,0,0-8.42,1.94,38.71,38.71,0,0,0-7,3.49c-8.47,5.31-14.12,11.7-19,17.17s-8.79,10.45-12.17,14.2c-1.69,1.87-3.23,3.47-4.59,4.75a24.69,24.69,0,0,1-3.56,2.78c-.47.26-.95.51-1.24.65s-.41.25-.76.31l-1.08.19h0a2.43,2.43,0,0,0,.46,4.82l1.1,0a15.48,15.48,0,0,0,1.83-.32,18.06,18.06,0,0,0,2.15-.76,42.25,42.25,0,0,0,10.59-7.49c4-3.56,8.48-8.07,13.63-13,2.58-2.44,5.36-5,8.37-7.38a59.46,59.46,0,0,1,9.69-6.59,27.94,27.94,0,0,1,5.32-2.2,17.63,17.63,0,0,1,5.4-.85h.75l.4,0,.9.07.46,0a1,1,0,0,1,.34,0,4.28,4.28,0,0,0,.78.21c.3.13.6.24.9.34a5,5,0,0,1,2.33,2.45c1.32,2.52,1.65,7.25,1.35,12.11-.14,2.47-.35,5-.6,7.77a86.71,86.71,0,0,0-.52,9l.06,1.39.19,1.62c.11.61.28,1.32.46,2,.14.42.33.88.52,1.31a7,7,0,0,0,.8,1.43,11.76,11.76,0,0,0,1.32,1.58,10.51,10.51,0,0,0,2.09,1.42,7.43,7.43,0,0,0,2.23.75,11.16,11.16,0,0,0,1.14.16l.57,0,.78,0,1.05-.09a22.67,22.67,0,0,0,2.24-.47,12.56,12.56,0,0,0,1.82-.64A13.65,13.65,0,0,0,374,749a26.62,26.62,0,0,0,2.52-1.46,40.46,40.46,0,0,0,4.13-3.12,154.89,154.89,0,0,0,12.78-12.91c3.94-4.26,7.84-8.43,11.91-12.13a53.54,53.54,0,0,1,12.62-8.94,20.1,20.1,0,0,1,6.26-1.91l1.51-.1h.09l.56,0,1.11,0a5.38,5.38,0,0,0,.81.16,8.86,8.86,0,0,1,.88.31,3.84,3.84,0,0,1,1.23.84,6.32,6.32,0,0,1,1.06,1.75,19.62,19.62,0,0,1,1.26,6.3c.31,5-.16,10.52-.45,16.54-.07,1.51-.11,3.12,0,4.92,0,.48,0,.91.1,1.42l.24,1.62a17.42,17.42,0,0,0,.55,2c.17.43.35.86.56,1.28a7.23,7.23,0,0,0,.35.65,9.19,9.19,0,0,0,.58.81,8,8,0,0,0,1.43,1.49,11,11,0,0,0,2.12,1.25,9.55,9.55,0,0,0,2.14.52,10.22,10.22,0,0,0,1.09.09l.74,0,.13,0,1.1-.13a21.3,21.3,0,0,0,2.23-.54l.54-.17.37-.15.74-.32a12.88,12.88,0,0,0,1.39-.68A22.33,22.33,0,0,0,451,747a52.16,52.16,0,0,0,7.12-6.2c2.05-2.08,3.88-4.18,5.68-6.22,3.57-4.09,6.92-8,10.28-11.65a105.41,105.41,0,0,1,10.15-9.74,49.68,49.68,0,0,1,5.18-3.75,31.9,31.9,0,0,1,5.25-2.59,19.6,19.6,0,0,1,5.2-1.19l.64-.07h.08c-.47,0-.07,0-.15,0H501l1.56,0a12.88,12.88,0,0,1,1.92.33,7,7,0,0,1,3.28,1.86,10.17,10.17,0,0,1,2.13,3.56,31.78,31.78,0,0,1,1.64,9c.2,3,.17,5.81.14,8.39-.09,5.18-.22,9.33.42,12.48a7.47,7.47,0,0,0,.77,2.2,3.67,3.67,0,0,0,.67.92,2.43,2.43,0,0,0,.82.64,2.86,2.86,0,0,0,1.35.41l.46,0a1.41,1.41,0,0,0,0-2.81s-.18,0-.25-.17a3.42,3.42,0,0,1-.43-1.75c-.2-2.38.49-6.41,1.16-11.58C517,726.48,517.37,723.57,517.53,720.29Z"/></g></g></svg>
