<svg xmlns="http://www.w3.org/2000/svg" viewBox="0 0 832.09 832.09"><defs><style>.cls-1{fill:#221e1f;}.cls-2{fill:#FFDD57;}.cls-2,.cls-3,.cls-4{fill-rule:evenodd;}.cls-3{fill:#fff;}.cls-4,.cls-5{fill:#FFDD57;}</style></defs><title>Element 12</title><g id="Ebene_2" data-name="Ebene 2"><g id="Layer_3" data-name="Layer 3"><circle class="cls-1" cx="416.05" cy="416.05" r="415.99" transform="translate(-172.33 416.05) rotate(-45)"/><path class="cls-2" d="M261.48,697.72a5.45,5.45,0,1,1,4.66-6.14A5.45,5.45,0,0,1,261.48,697.72Z"/><path class="cls-2" d="M60.38,332.08A5.45,5.45,0,1,1,65,325.94,5.45,5.45,0,0,1,60.38,332.08Z"/><path class="cls-3" d="M596,379.41c1.75-2.31,2.07-12.91,2.07-12.91s3.18,10.12,5.49,11.87,12.91,2.07,12.91,2.07-10.12,3.18-11.87,5.49-2.08,12.91-2.08,12.91-3.17-10.12-5.48-11.87-12.91-2.08-12.91-2.08,10.11-3.17,11.87-5.48Z"/><path class="cls-4" d="M671,110.83c1.43-1.89,1.69-10.54,1.69-10.54s2.59,8.26,4.47,9.69,10.54,1.69,10.54,1.69-8.26,2.59-9.69,4.48-1.69,10.53-1.69,10.53-2.59-8.26-4.48-9.69-10.53-1.69-10.53-1.69,8.26-2.59,9.69-4.47Z"/><path class="cls-4" d="M112.25,277.06c1.21-1.59,1.43-8.87,1.43-8.87s2.18,6.95,3.77,8.15,8.87,1.43,8.87,1.43-7,2.18-8.16,3.77-1.43,8.87-1.43,8.87-2.18-7-3.76-8.16-8.87-1.42-8.87-1.42,7-2.18,8.15-3.77Z"/><path class="cls-3" d="M264.29,63.76a71.28,71.28,0,0,0,5.16-9.11,70.32,70.32,0,0,0-2.68,10.12,71.69,71.69,0,0,0,10.47-.08,69.56,69.56,0,0,0-10.11,2.74,72,72,0,0,0,5.32,9A71.77,71.77,0,0,0,265,69.07a70,70,0,0,0-5.17,9.12,70.67,70.67,0,0,0,2.68-10.13,70.73,70.73,0,0,0-10.47.09,72.42,72.42,0,0,0,10.11-2.74,70.7,70.7,0,0,0-5.32-9,69.91,69.91,0,0,0,7.44,7.38Z"/><path class="cls-3" d="M381.17,535.11a71.28,71.28,0,0,0,5.16-9.11,70.32,70.32,0,0,0-2.68,10.12,70.89,70.89,0,0,0,10.48-.09A70.05,70.05,0,0,0,384,538.78a70.15,70.15,0,0,0,5.31,9,71.77,71.77,0,0,0-7.43-7.39,71.68,71.68,0,0,0-5.16,9.12,72.14,72.14,0,0,0,2.68-10.13,70.89,70.89,0,0,0-10.48.09,72,72,0,0,0,10.11-2.74,70.15,70.15,0,0,0-5.31-9,70.19,70.19,0,0,0,7.43,7.38Z"/><path class="cls-3" d="M707.9,337.58a69.16,69.16,0,0,0,5.16-9.12,71.54,71.54,0,0,0-2.67,10.13,70.73,70.73,0,0,0,10.47-.09,70.46,70.46,0,0,0-10.11,2.75,70.87,70.87,0,0,0,5.31,9,70.73,70.73,0,0,0-7.43-7.39,71.68,71.68,0,0,0-5.16,9.12,70.67,70.67,0,0,0,2.68-10.13,70.75,70.75,0,0,0-10.47.09,70.46,70.46,0,0,0,10.11-2.75,72.17,72.17,0,0,0-5.32-9,72.36,72.36,0,0,0,7.43,7.38Z"/><path class="cls-3" d="M567.46,143.68a71.28,71.28,0,0,0,5.16-9.11,70.32,70.32,0,0,0-2.68,10.12,70.32,70.32,0,0,0,10.48-.08,68.76,68.76,0,0,0-10.11,2.74,70.15,70.15,0,0,0,5.31,9,70.19,70.19,0,0,0-7.43-7.38,69.27,69.27,0,0,0-5.16,9.11A70.1,70.1,0,0,0,565.7,148a70.73,70.73,0,0,0-10.47.09,72.42,72.42,0,0,0,10.11-2.74,70.15,70.15,0,0,0-5.31-9,69.2,69.2,0,0,0,7.43,7.38Z"/><path class="cls-3" d="M99.44,434.84s4.52-6.72,6.36-11.21c-1.84,4.49-3.27,12.49-3.3,12.46s8.08.55,12.89-.11c-4.81.66-12.46,3.42-12.44,3.38s3.56,7.27,6.54,11.11c-3-3.84-9.19-9.08-9.15-9.09S95.82,448.1,94,452.6c1.83-4.5,3.27-12.5,3.3-12.46s-8.08-.56-12.9.11c4.82-.67,12.46-3.42,12.45-3.38s-3.56-7.28-6.54-11.11c3,3.83,9.19,9.08,9.14,9.08Z"/><path class="cls-3" d="M162.27,685.84c-.05,0,4.52-6.72,6.35-11.22-1.83,4.5-3.27,12.5-3.3,12.47s8.08.55,12.9-.11c-4.82.66-12.46,3.42-12.45,3.38s3.56,7.27,6.54,11.11c-3-3.84-9.19-9.08-9.14-9.09s-4.52,6.72-6.36,11.22c1.84-4.5,3.27-12.5,3.3-12.47s-8.08-.55-12.89.11c4.81-.66,12.46-3.42,12.44-3.37s-3.56-7.28-6.54-11.12c3,3.84,9.19,9.09,9.15,9.09Z"/><path class="cls-3" d="M155,144.94a3.39,3.39,0,1,1,2.89-3.81A3.39,3.39,0,0,1,155,144.94Z"/><path class="cls-3" d="M292.85,46.92a3.39,3.39,0,1,1,2.89-3.82A3.4,3.4,0,0,1,292.85,46.92Z"/><path class="cls-3" d="M314.15,164.52a6.77,6.77,0,1,1,5.79-7.63A6.77,6.77,0,0,1,314.15,164.52Z"/><path class="cls-2" d="M355.92,308.79a3.8,3.8,0,1,1,3.25-4.28A3.79,3.79,0,0,1,355.92,308.79Z"/><path class="cls-3" d="M233,475.8c1.6-2.11,1.89-11.75,1.89-11.75s2.89,9.21,5,10.8,11.75,1.89,11.75,1.89-9.21,2.89-10.81,5-1.89,11.76-1.89,11.76-2.88-9.21-5-10.81-11.75-1.89-11.75-1.89,9.21-2.89,10.8-5Z"/><path class="cls-4" d="M719.36,229.43c1.1-1.45,1.3-8.08,1.3-8.08s2,6.33,3.43,7.43,8.08,1.3,8.08,1.3-6.33,2-7.43,3.43-1.3,8.07-1.3,8.07-2-6.33-3.43-7.42-8.07-1.3-8.07-1.3,6.32-2,7.42-3.43Z"/><path class="cls-4" d="M474.21,475.2c1.1-1.44,1.3-8.07,1.3-8.07s2,6.32,3.43,7.42,8.08,1.3,8.08,1.3-6.33,2-7.43,3.43-1.29,8.08-1.29,8.08-2-6.33-3.43-7.43-8.08-1.3-8.08-1.3,6.33-2,7.42-3.43Z"/><path class="cls-4" d="M638.91,552.38c1.31-1.71,1.55-9.59,1.55-9.59s2.35,7.52,4.07,8.82,9.59,1.54,9.59,1.54-7.52,2.36-8.82,4.08-1.54,9.59-1.54,9.59-2.36-7.52-4.07-8.82-9.59-1.54-9.59-1.54,7.51-2.36,8.81-4.08Z"/><path class="cls-4" d="M400,759.56c1.3-1.71,1.54-9.59,1.54-9.59s2.36,7.52,4.07,8.82,9.59,1.54,9.59,1.54-7.51,2.36-8.81,4.08-1.55,9.59-1.55,9.59-2.35-7.52-4.07-8.82-9.59-1.54-9.59-1.54,7.52-2.36,8.82-4.08Z"/><path class="cls-3" d="M686.68,630.7s4.12-6.11,5.79-10.21c-1.67,4.1-3,11.38-3,11.35s7.36.5,11.74-.1c-4.38.6-11.34,3.11-11.33,3.07s3.24,6.63,6,10.12c-2.72-3.49-8.37-8.27-8.33-8.27s-4.11,6.12-5.78,10.21c1.67-4.09,3-11.38,3-11.35s-7.36-.5-11.74.1c4.38-.6,11.34-3.11,11.33-3.07s-3.24-6.63-6-10.12c2.72,3.49,8.37,8.27,8.33,8.27Z"/><path class="cls-3" d="M599.77,726.46a3.08,3.08,0,1,1,2.64-3.48A3.08,3.08,0,0,1,599.77,726.46Z"/><path class="cls-3" d="M502.2,107.6a3.08,3.08,0,1,1,2.64-3.47A3.06,3.06,0,0,1,502.2,107.6Z"/><path class="cls-3" d="M113.81,498.8a3.08,3.08,0,1,1,2.63-3.47A3.08,3.08,0,0,1,113.81,498.8Z"/><path class="cls-3" d="M503.83,529.4a6.16,6.16,0,1,1,5.27-6.95A6.16,6.16,0,0,1,503.83,529.4Z"/><path class="cls-3" d="M162.19,601.64a6.17,6.17,0,1,1,5.27-6.95A6.18,6.18,0,0,1,162.19,601.64Z"/><path class="cls-2" d="M465,547.49a3.46,3.46,0,1,1,3-3.9A3.46,3.46,0,0,1,465,547.49Z"/><path class="cls-2" d="M670.6,715.14a3.46,3.46,0,1,1,2.95-3.9A3.46,3.46,0,0,1,670.6,715.14Z"/><path class="cls-3" d="M778.26,548.43c.6-.79.71-4.43.71-4.43s1.09,3.47,1.89,4.08,4.43.71,4.43.71-3.47,1.09-4.08,1.88-.71,4.44-.71,4.44-1.09-3.48-1.88-4.08-4.44-.71-4.44-.71,3.48-1.09,4.08-1.89Z"/><path class="cls-3" d="M683.8,312.68c.61-.79.72-4.43.72-4.43s1.09,3.47,1.88,4.08,4.44.71,4.44.71-3.48,1.09-4.08,1.88-.72,4.44-.72,4.44-1.09-3.48-1.88-4.08-4.43-.71-4.43-.71,3.47-1.09,4.07-1.89Z"/><path class="cls-3" d="M480.87,127.69a.9.9,0,0,1-.44-.28c-26.06-29.68-67.22-46-115.91-46-66.8,0-135.54,30.61-175.13,78-29.6,35.42-41.43,77.72-34.33,122.56,24.22-71.39,73.53-98.18,110.93-108a.9.9,0,0,1,1,.4.92.92,0,0,1-.08,1.08A169.39,169.39,0,0,0,255.48,190c-17.34,25-19.9,53.44-22.15,78.51-1.81,20.12-3.52,39.12-12.71,52.85-10.54,15.77-29.89,23.11-60.89,23.11h-.68c-27.66-.07-61.5-25.62-68.07-30.8-8.36,30.81-3,64.87,13.83,87.14,13.06,17.29,31.75,26.43,54.06,26.43h0c20.4,0,43.32-7.54,68.12-22.42a1,1,0,0,1,.47-.13.87.87,0,0,1,.28.05.92.92,0,0,1,.56.5c8.26,19.14,36.45,46.82,65.82,46.81,17.8,0,41.69-10.65,55.08-61-9.32,4.65-18.56,7-27.48,7-32.81,0-53.13-31.42-53.13-60.52a61.11,61.11,0,0,1,20.23-46c15.35-13.84,38.6-21.16,67.24-21.16a203.87,203.87,0,0,1,24.28,1.54A187.62,187.62,0,0,0,402.09,273c30,0,65.06-4.9,73.27-6.11-15.48-15.86-22.74-34.71-20.46-53.26,2.42-19.76,15.67-37.7,37.32-50.5a.91.91,0,0,1,1,1.5c-26.84,21.6-37.58,47.18-29.48,70.18,7.86,22.3,32.2,37.87,59.18,37.87a72.17,72.17,0,0,0,25.86-4.82,90.6,90.6,0,0,1,21.75-5.19c6.65-.93,12.48-1.74,19.43-5.5-24.87-5.3-29.53-20-29.72-20.65a.9.9,0,0,1,.3-1,.91.91,0,0,1,1-.1,62.22,62.22,0,0,0,26.22,5.85,56.56,56.56,0,0,0,6.8-.41c16.16-1.94,30-10.86,33.2-13C601.26,183.75,545.06,145.4,480.87,127.69ZM232.61,366.22c-20.32,21.57-47,33.94-73.28,33.94h0c-23.89,0-44.06-10.42-56.81-29.34a.91.91,0,0,1,1.41-1.14c14,14.39,32.2,22,52.8,22,25.05,0,50-11.39,67-30.55-11.6,8.1-27,12.37-44.56,12.37-31.4,0-62.66-13.43-79.63-34.23a.92.92,0,0,1,.08-1.24.91.91,0,0,1,1.25,0c16.92,15.82,46.5,26.05,75.35,26.05,20.11,0,36.14-5.09,45.12-14.33a.91.91,0,0,1,1.56.54,22.81,22.81,0,0,0,2.5,8.64.84.84,0,0,0,.76,1.17,11.34,11.34,0,0,0,6.05,4.63.91.91,0,0,1,.39,1.49ZM343.15,99.72s1.51-.08,4.15-.08c12.12,0,42.59,1.56,63.57,16a.92.92,0,0,1-.52,1.67h0c-7.42-.09-14.9.16-22.26.71H388a.89.89,0,0,1-.68-.31c-9.15-10.26-43.93-16.09-44.28-16.15a.91.91,0,0,1,.1-1.8Zm-93.27,26.33c12.73-8.21,33.51-12.91,57-12.91,19.14,0,36.61,3.27,46.74,8.75a.93.93,0,0,1,.47.92.92.92,0,0,1-.69.77c-6.13,1.52-11.79,3.21-17.31,5.16a.76.76,0,0,1-.3,0,1,1,0,0,1-.34-.06c-5.51-2.23-20.74-7.42-43-7.42a140.68,140.68,0,0,0-41.84,6.37.91.91,0,0,1-.76-1.63Zm66.87,300.16a63.66,63.66,0,0,1-20.44,3.55c-35.1,0-55.74-31.88-60.63-63.47a.92.92,0,0,1,.2-.71.93.93,0,0,1,.65-.34,18.61,18.61,0,0,0,8.23-2.65.92.92,0,0,1,.82,0,.93.93,0,0,1,.53.63c6.25,26.65,19.18,62.09,59.16,62.09a79.57,79.57,0,0,0,11.06-.82.89.89,0,0,1,1,.69A.92.92,0,0,1,316.75,426.21Zm3.1-23.68a47.37,47.37,0,0,0,10.35-1.13.91.91,0,0,1,.56,1.72A43,43,0,0,1,314,406.45c-26.25,0-52.8-22-67.45-43.87a.91.91,0,0,1,.22-1.25,28.28,28.28,0,0,0,4.72-4.26.94.94,0,0,1,.78-.3.89.89,0,0,1,.7.46C265.38,379.74,292.34,402.53,319.85,402.53ZM307.4,142A161.49,161.49,0,0,0,293,151.36a.91.91,0,0,1-.63.17,158,158,0,0,0-16.71-.81l-3.23,0c-45.63.7-89.21,40.76-89.64,41.16a.93.93,0,0,1-.62.24.89.89,0,0,1-.62-.24.91.91,0,0,1-.09-1.24,139.08,139.08,0,0,1,108.21-51.5,133.28,133.28,0,0,1,17.38,1.13.92.92,0,0,1,.33,1.7Zm104.47,65c-2.13,5.3-13.71,7.18-23,7.18-7.18,0-13.65-1.07-17.3-2.86-7.59-3.72-26.55-4-32.18-4h-2a.91.91,0,0,1-.38-1.74c.19-.09,19.73-8.9,41.4-8.9,13,0,24.11,3.1,33.14,9.21A.92.92,0,0,1,411.87,207Zm23.79-4.35a6.54,6.54,0,0,1-6,3.49h0c-3.74,0-8.41-2.32-14.33-5.26-8.67-4.3-19.46-9.65-32.54-10.35-27-1.41-64.05,18.75-64.41,19a1,1,0,0,1-.44.11.91.91,0,0,1-.64-1.56c.31-.3,30.8-29.74,61.14-30.93,1.23-.05,2.46-.07,3.69-.07,23,0,47.91,8.47,53.4,18.12A7.12,7.12,0,0,1,435.66,202.6Zm131.32.76a8.69,8.69,0,0,1-10.35,6.47,8.56,8.56,0,0,1-5.45-3.79,8.41,8.41,0,0,1-1.15-6.4,8.76,8.76,0,0,1,8.49-6.72,8.43,8.43,0,0,1,1.87.2,8.62,8.62,0,0,1,5.49,3.82A8.4,8.4,0,0,1,567,203.36Zm1.64-7.53a.91.91,0,0,1-1.11-.52,14.47,14.47,0,0,0-10.36-8.57,14.89,14.89,0,0,0-3.18-.35,14.66,14.66,0,0,0-14.25,11.27,14.11,14.11,0,0,0,1.88,10.74,14.49,14.49,0,0,0,9.2,6.39A14.93,14.93,0,0,0,563.19,212a.92.92,0,0,1,1.26,1.32,22.6,22.6,0,0,1-21.88,7.26,22.18,22.18,0,0,1-14.09-9.81,21.52,21.52,0,0,1-2.85-16.4,22.37,22.37,0,0,1,43.62.46A.92.92,0,0,1,568.62,195.83Z"/><path class="cls-3" d="M745.58,518.49c8.36-30.8,3-64.86-13.83-87.13-13.06-17.3-31.75-26.44-54.08-26.44-20.38,0-43.3,7.54-68.12,22.42a.88.88,0,0,1-.74.09.91.91,0,0,1-.56-.51c-8.26-19.13-36.46-46.81-65.82-46.81-17.8,0-41.69,10.65-55.09,61,9.33-4.65,18.56-7,27.48-7,32.82,0,53.13,31.41,53.13,60.51a61.06,61.06,0,0,1-20.23,46c-15.34,13.85-38.59,21.16-67.23,21.16a203.79,203.79,0,0,1-24.28-1.53,185.54,185.54,0,0,0-21.74-1.11c-30,0-65.07,4.9-73.27,6.1,15.48,15.86,22.74,34.71,20.46,53.26-2.42,19.77-15.68,37.7-37.32,50.5a.91.91,0,0,1-1.21-.27.9.9,0,0,1,.18-1.22c26.84-21.61,37.58-47.19,29.47-70.19-7.86-22.3-32.19-37.87-59.17-37.87a72.27,72.27,0,0,0-25.87,4.82A90.32,90.32,0,0,1,266,569.48c-6.65.93-12.48,1.74-19.43,5.5,24.87,5.31,29.53,20,29.72,20.65a.91.91,0,0,1-1.3,1.07,62.11,62.11,0,0,0-26.23-5.85,56.53,56.53,0,0,0-6.79.4c-16.15,1.94-30,10.86-33.21,13,26.54,44.15,82.74,82.5,146.93,100.21a.9.9,0,0,1,.44.28c26.06,29.68,67.22,46,115.91,46,66.8,0,135.55-30.61,175.13-78,29.6-35.42,41.43-77.72,34.33-122.56-24.22,71.4-73.53,98.18-110.93,108a.89.89,0,0,1-1-.4.9.9,0,0,1,.08-1.08,170.93,170.93,0,0,0,11.43-14.66c17.34-25,19.9-53.44,22.15-78.51,1.81-20.12,3.51-39.12,12.71-52.85,10.54-15.77,29.88-23.11,60.88-23.11h.69C705.17,487.77,739,513.31,745.58,518.49Zm-476,110.32a8.72,8.72,0,0,1,15.8-2.68,8.43,8.43,0,0,1,1.15,6.41,8.77,8.77,0,0,1-8.49,6.72,8.38,8.38,0,0,1-1.87-.21,8.58,8.58,0,0,1-5.49-3.82A8.36,8.36,0,0,1,269.58,628.81Zm41.35,9A22.33,22.33,0,0,1,289.16,655a23.25,23.25,0,0,1-4.83-.51,22.17,22.17,0,0,1-17-17.11.92.92,0,0,1,1.74-.54,14.5,14.5,0,0,0,10.36,8.58,14.68,14.68,0,0,0,17.42-10.92A14.09,14.09,0,0,0,295,623.77a14.45,14.45,0,0,0-9.19-6.39,15,15,0,0,0-12.4,2.84.91.91,0,0,1-1.25-1.31,22.49,22.49,0,0,1,17-7.79,23.21,23.21,0,0,1,4.84.52,22.2,22.2,0,0,1,14.09,9.81A21.53,21.53,0,0,1,310.93,637.85Zm113.76-12.62c2.13-5.31,13.7-7.19,23-7.19,7.18,0,13.65,1.07,17.3,2.87,7.59,3.71,26.54,4,32.17,4,1.28,0,2,0,2,0h0a.91.91,0,0,1,.38,1.74c-.19.09-19.73,8.91-41.4,8.91-13,0-24.12-3.1-33.14-9.22A.9.9,0,0,1,424.69,625.23ZM401,637.07a7.1,7.1,0,0,1-.11-7.49,6.55,6.55,0,0,1,6-3.5c3.74,0,8.41,2.32,14.33,5.26,8.67,4.3,19.46,9.66,32.54,10.35,27,1.43,64-18.75,64.41-18.94a.91.91,0,0,1,1.17.25.92.92,0,0,1-.1,1.2c-.3.29-30.79,29.73-61.14,30.92-1.23,0-2.46.07-3.69.07C431.45,655.19,406.5,646.73,401,637.07Zm92.4,95.39s-1.52.07-4.15.07h0c-12.13,0-42.6-1.55-63.57-16a.91.91,0,0,1,.52-1.66h0c7.45.07,14.93-.16,22.27-.71a.93.93,0,0,1,.75.3c9.15,10.25,43.93,16.09,44.28,16.15a.9.9,0,0,1,.76,1A.92.92,0,0,1,493.41,732.46Zm93.27-26.34C574,714.33,553.17,719,529.68,719c-19.15,0-36.62-3.28-46.74-8.76a.91.91,0,0,1,.22-1.68c6.13-1.53,11.79-3.22,17.3-5.17a1,1,0,0,1,.65,0c5.51,2.23,20.74,7.42,43,7.42a140.38,140.38,0,0,0,41.85-6.37.91.91,0,0,1,.76,1.63Zm67.07-65.85a.91.91,0,0,1,1.33,1.24A139.06,139.06,0,0,1,546.87,693a133.16,133.16,0,0,1-17.38-1.14.91.91,0,0,1-.33-1.69,162.32,162.32,0,0,0,14.38-9.38.91.91,0,0,1,.63-.17,163.26,163.26,0,0,0,19.93.79C609.72,680.73,653.32,640.68,653.75,640.27ZM589.81,470.84a28.28,28.28,0,0,0-4.72,4.26.93.93,0,0,1-.69.31h-.1a.89.89,0,0,1-.69-.46c-12.43-22.51-39.4-45.3-66.9-45.3a47.46,47.46,0,0,0-10.36,1.14.91.91,0,0,1-.55-1.73,43,43,0,0,1,16.78-3.33c26.25,0,52.8,22,67.45,43.87A.91.91,0,0,1,589.81,470.84Zm10.87-4.25a.89.89,0,0,1-.65.34,18.7,18.7,0,0,0-8.23,2.65.93.93,0,0,1-.46.12.86.86,0,0,1-.36-.07.91.91,0,0,1-.53-.63c-6.25-26.65-19.18-62.08-59.16-62.08a79.51,79.51,0,0,0-11.06.81.89.89,0,0,1-1-.69.9.9,0,0,1,.59-1.07,63.68,63.68,0,0,1,20.44-3.56c35.1,0,55.74,31.88,60.62,63.47A.9.9,0,0,1,600.68,466.59Zm59.65,1.5c-20.11,0-36.14,5.09-45.12,14.33a.91.91,0,0,1-1.56-.53,22.63,22.63,0,0,0-2.51-8.65.89.89,0,0,1,0-.76.92.92,0,0,1-.7-.4,11.25,11.25,0,0,0-6-4.63.93.93,0,0,1-.61-.64A.9.9,0,0,1,604,466C624.27,444.38,651,432,677.23,432c23.89,0,44.07,10.42,56.82,29.34a.92.92,0,0,1-.19,1.22.91.91,0,0,1-1.22-.08c-13.95-14.39-32.21-22-52.8-22-25.05,0-50,11.39-67,30.55,11.61-8.1,27-12.37,44.56-12.37,31.4,0,62.66,13.44,79.63,34.23a.91.91,0,0,1-.09,1.24.86.86,0,0,1-.62.25.89.89,0,0,1-.62-.25C718.76,478.32,689.18,468.09,660.33,468.09Z"/><path class="cls-5" d="M442.43,391.08c.51-4,1.15-7.81,1.83-11.42.36-1.8.67-3.57,1.08-5.25s.74-3.32,1.16-4.86.8-3,1.19-4.45.81-2.74,1.19-4,.85-2.38,1.2-3.46.71-2,1.05-2.89l.92-2.33.79-1.79.65-1.51a2.47,2.47,0,0,0-4-2.69s-.4.4-1.14,1.17a35.38,35.38,0,0,0-3.12,3.59,57,57,0,0,0-4.29,6.16,76.87,76.87,0,0,0-4.59,8.51,100.33,100.33,0,0,0-4.18,10.61,118.75,118.75,0,0,0-3.28,12.23,129.84,129.84,0,0,0-2.13,13.34c-.24,2.27-.43,4.57-.55,6.88l-1.7-.08c-2-.08-4.12-.05-6.19,0s-4.15.13-6.19.27l-1.6.13c-.1-2.32-.25-4.63-.48-6.91a120.45,120.45,0,0,0-2-13.37,110.11,110.11,0,0,0-3.18-12.26,92.79,92.79,0,0,0-4.17-10.61c-.75-1.6-1.47-3.13-2.3-4.52s-1.57-2.73-2.34-3.94a39.26,39.26,0,0,0-2.27-3.33c-.73-1-1.43-1.9-2.11-2.68a36.78,36.78,0,0,0-3.24-3.51l-1.21-1.16a1.42,1.42,0,0,0-2.28,1.6l.05.11s.22.51.65,1.46l.8,1.72,1,2.36a31.32,31.32,0,0,1,1.11,2.95c.37,1.08.82,2.22,1.19,3.49s.81,2.58,1.16,4l.58,2.18q.26,1.13.54,2.31c.74,3.12,1.36,6.56,1.95,10.19s1.05,7.49,1.39,11.5c.2,2,.28,4.05.46,6.1s.21,4.16.26,6.28c.1,2.68.11,5.4.09,8.12l-.68.15a71,71,0,0,0-7.52,2.12c-.91.28-1.62.61-2.11.78l-.74.31a1.52,1.52,0,0,0,0,2.81l.74.31c.49.18,1.2.5,2.11.78a71,71,0,0,0,7.52,2.12l.44.1c-.13,2.68-.28,5.34-.47,8-.37,4.2-.74,8.34-1.31,12.31s-1.15,7.81-1.82,11.43c-.36,1.79-.67,3.57-1.09,5.24s-.73,3.32-1.15,4.87-.8,3-1.19,4.44-.81,2.74-1.2,4-.84,2.38-1.19,3.46-.71,2.05-1.06,2.9-.64,1.65-.91,2.32-.58,1.31-.8,1.79c-.41,1-.64,1.51-.64,1.51a2.49,2.49,0,0,0,.55,2.74,2.47,2.47,0,0,0,3.49,0l1.14-1.17a33.25,33.25,0,0,0,3.12-3.59,58.4,58.4,0,0,0,4.29-6.16,75.27,75.27,0,0,0,4.58-8.51,100.1,100.1,0,0,0,4.19-10.6,119.65,119.65,0,0,0,3.28-12.24,127.17,127.17,0,0,0,2.12-13.34c.26-2.37.45-4.77.57-7.18l1.69.14c2,.14,4.11.22,6.19.27s4.15,0,6.19,0c.54,0,1.08-.05,1.62-.07.09,2.22.23,4.43.46,6.61a120.45,120.45,0,0,0,2,13.37,110.87,110.87,0,0,0,3.18,12.27,91.51,91.51,0,0,0,4.17,10.6c.75,1.6,1.47,3.13,2.3,4.52s1.57,2.73,2.34,3.94a35.67,35.67,0,0,0,2.27,3.33c.73,1,1.42,1.9,2.11,2.68a34.32,34.32,0,0,0,3.24,3.51l1.21,1.16a1.4,1.4,0,0,0,1.56.27,1.41,1.41,0,0,0,.72-1.87l-.05-.11-.65-1.46c-.22-.46-.49-1-.8-1.71s-.6-1.48-1-2.37-.74-1.86-1.1-2.95-.82-2.22-1.19-3.49-.81-2.58-1.16-4l-.58-2.18c-.18-.75-.36-1.52-.54-2.3-.75-3.13-1.36-6.57-2-10.2s-1-7.49-1.38-11.5c-.2-2-.28-4.05-.46-6.1s-.22-4.16-.27-6.27c-.08-2.43-.1-4.89-.09-7.35l.69-.13a65.17,65.17,0,0,0,7.52-1.95c1.81-.58,2.85-1,2.85-1a2.65,2.65,0,0,0,0-4.85s-1-.46-2.85-1a67.3,67.3,0,0,0-7.52-1.95l-.41-.07q.18-3.63.44-7.21C441.5,399.19,441.86,395.05,442.43,391.08Z"/></g></g></svg>
