<svg xmlns="http://www.w3.org/2000/svg" viewBox="0 0 832.09 832.09"><defs><style>.cls-1,.cls-6{fill:#221e1f;}.cls-2{fill:#FFDD57;}.cls-2,.cls-3,.cls-4,.cls-6{fill-rule:evenodd;}.cls-3{fill:#fff;}.cls-4,.cls-5{fill:#FFDD57;}</style></defs><title>Element 2</title><g id="Ebene_2" data-name="Ebene 2"><g id="Layer_3" data-name="Layer 3"><circle class="cls-1" cx="416.05" cy="416.05" r="415.99"/><path class="cls-2" d="M270.61,110.29a5.45,5.45,0,1,0,4.66,6.14A5.45,5.45,0,0,0,270.61,110.29Z"/><path class="cls-2" d="M76,504.73a5.45,5.45,0,1,0,4.66,6.14A5.45,5.45,0,0,0,76,504.73Z"/><path class="cls-3" d="M684.67,592.32c1.75,2.31,2.07,12.91,2.07,12.91s3.18-10.12,5.49-11.87,12.91-2.08,12.91-2.08-10.12-3.17-11.87-5.48-2.08-12.91-2.08-12.91S688,583,685.71,584.76s-12.91,2.08-12.91,2.08,10.12,3.17,11.87,5.48Z"/><path class="cls-4" d="M647.3,682.66c1.43,1.89,1.69,10.54,1.69,10.54s2.59-8.26,4.48-9.69S664,681.82,664,681.82s-8.25-2.59-9.68-4.48-1.7-10.53-1.7-10.53-2.59,8.25-4.47,9.68-10.54,1.7-10.54,1.7,8.26,2.59,9.69,4.47Z"/><path class="cls-4" d="M137.92,584.35c1.2,1.58,1.43,8.87,1.43,8.87s2.18-7,3.76-8.16,8.87-1.43,8.87-1.43-6.95-2.18-8.15-3.76S142.4,571,142.4,571s-2.18,7-3.77,8.15-8.87,1.43-8.87,1.43,7,2.18,8.16,3.77Z"/><path class="cls-3" d="M264.29,768.33a71.28,71.28,0,0,1,5.16,9.11,70.32,70.32,0,0,1-2.68-10.12,71.69,71.69,0,0,1,10.47.08,69.56,69.56,0,0,1-10.11-2.74,72,72,0,0,1,5.32-9A71.77,71.77,0,0,1,265,763a70,70,0,0,1-5.17-9.12A70.67,70.67,0,0,1,262.53,764a70.73,70.73,0,0,1-10.47-.09,72.42,72.42,0,0,1,10.11,2.74,70.7,70.7,0,0,1-5.32,9,69.91,69.91,0,0,1,7.44-7.38Z"/><path class="cls-3" d="M290.83,231.74a69.61,69.61,0,0,1,5.17,9.11,70.32,70.32,0,0,1-2.68-10.12,70.18,70.18,0,0,1,10.47.08,69.56,69.56,0,0,1-10.11-2.74,70.7,70.7,0,0,1,5.32-9,71.47,71.47,0,0,1-7.44,7.39,71.68,71.68,0,0,1-5.16-9.12,70.67,70.67,0,0,1,2.68,10.13,70.75,70.75,0,0,1-10.47-.09,72.42,72.42,0,0,1,10.11,2.74,72,72,0,0,1-5.32,9,70.19,70.19,0,0,1,7.43-7.38Z"/><path class="cls-3" d="M707.9,494.51a69.16,69.16,0,0,1,5.16,9.12,71.54,71.54,0,0,1-2.67-10.13,70.73,70.73,0,0,1,10.47.09,70.46,70.46,0,0,1-10.11-2.75,70.3,70.3,0,0,1,5.31-9,71.31,71.31,0,0,1-7.43,7.38,71.68,71.68,0,0,1-5.16-9.12,70.67,70.67,0,0,1,2.68,10.13,70.75,70.75,0,0,1-10.47-.09,70.46,70.46,0,0,1,10.11,2.75,72.17,72.17,0,0,1-5.32,9,72.36,72.36,0,0,1,7.43-7.38Z"/><path class="cls-3" d="M567.46,688.41a71.28,71.28,0,0,1,5.16,9.11,70.32,70.32,0,0,1-2.68-10.12,70.2,70.2,0,0,1,10.47.08,68.88,68.88,0,0,1-10.1-2.74,70.15,70.15,0,0,1,5.31-9,71.77,71.77,0,0,1-7.43,7.39A70.4,70.4,0,0,1,563,674a70.1,70.1,0,0,1,2.67,10.13,70.73,70.73,0,0,1-10.47-.09,72.42,72.42,0,0,1,10.11,2.74,70.15,70.15,0,0,1-5.31,9,69.2,69.2,0,0,1,7.43-7.38Z"/><path class="cls-3" d="M210.78,566.69s4.52,6.72,6.35,11.22c-1.83-4.5-3.26-12.5-3.29-12.47s8.08-.55,12.89.11c-4.81-.66-12.46-3.42-12.44-3.38s3.56-7.27,6.54-11.11c-3,3.84-9.19,9.08-9.15,9.09s-4.52-6.72-6.35-11.22c1.83,4.5,3.27,12.5,3.29,12.46s-8.07.56-12.89-.1c4.82.66,12.46,3.41,12.45,3.37s-3.56,7.28-6.54,11.11c3-3.83,9.19-9.08,9.14-9.08Z"/><path class="cls-3" d="M173.61,136.66c-.05,0,4.52,6.72,6.35,11.22-1.83-4.5-3.27-12.5-3.3-12.47s8.08-.55,12.9.11c-4.82-.66-12.46-3.42-12.45-3.38s3.56-7.27,6.54-11.11c-3,3.84-9.19,9.08-9.14,9.09s-4.52-6.72-6.36-11.22c1.84,4.5,3.27,12.5,3.3,12.46s-8.08.56-12.89-.1c4.81.66,12.46,3.42,12.44,3.37s-3.56,7.28-6.54,11.12c3-3.84,9.19-9.09,9.15-9.09Z"/><path class="cls-3" d="M155,687.15a3.39,3.39,0,1,0,2.89,3.81A3.39,3.39,0,0,0,155,687.15Z"/><path class="cls-3" d="M292.85,785.17a3.39,3.39,0,1,0,2.89,3.82A3.4,3.4,0,0,0,292.85,785.17Z"/><path class="cls-3" d="M739.77,547.71a3.39,3.39,0,1,0,2.9,3.81A3.38,3.38,0,0,0,739.77,547.71Z"/><path class="cls-3" d="M249,656.36a6.77,6.77,0,1,0,5.79,7.63A6.77,6.77,0,0,0,249,656.36Z"/><path class="cls-2" d="M611,592.64a3.8,3.8,0,1,0,3.25,4.28A3.79,3.79,0,0,0,611,592.64Z"/><path class="cls-4" d="M777.08,380.41c1.1,1.45,1.3,8.08,1.3,8.08s2-6.33,3.43-7.42,8.08-1.3,8.08-1.3-6.33-2-7.43-3.43-1.3-8.08-1.3-8.08-2,6.33-3.43,7.43-8.07,1.29-8.07,1.29,6.33,2,7.42,3.43Z"/><path class="cls-4" d="M583.12,260.4c1.3,1.72,1.54,9.59,1.54,9.59s2.35-7.52,4.07-8.82,9.59-1.54,9.59-1.54-7.51-2.36-8.82-4.07S588,246,588,246s-2.35,7.51-4.07,8.81-9.59,1.55-9.59,1.55,7.51,2.35,8.82,4.07Z"/><path class="cls-4" d="M400,72.53c1.3,1.71,1.54,9.59,1.54,9.59s2.36-7.52,4.07-8.82,9.59-1.54,9.59-1.54-7.51-2.36-8.81-4.08-1.55-9.59-1.55-9.59-2.35,7.52-4.07,8.82-9.59,1.54-9.59,1.54,7.52,2.36,8.82,4.08Z"/><path class="cls-3" d="M686.68,201.39s4.12,6.11,5.79,10.21c-1.67-4.1-3-11.38-3-11.35s7.36-.5,11.74.1c-4.38-.6-11.34-3.11-11.33-3.07s3.24-6.63,6-10.12c-2.72,3.49-8.37,8.27-8.33,8.27s-4.11-6.12-5.78-10.21c1.67,4.09,3,11.38,3,11.35s-7.36.5-11.74-.1c4.38.6,11.34,3.11,11.33,3.07s-3.24,6.63-6,10.12c2.72-3.49,8.37-8.27,8.33-8.27Z"/><path class="cls-3" d="M599.77,105.63a3.08,3.08,0,1,0,2.64,3.48A3.08,3.08,0,0,0,599.77,105.63Z"/><path class="cls-3" d="M502.2,724.49a3.08,3.08,0,1,0,2.64,3.47A3.06,3.06,0,0,0,502.2,724.49Z"/><path class="cls-3" d="M113.81,333.29a3.08,3.08,0,1,0,2.63,3.47A3.08,3.08,0,0,0,113.81,333.29Z"/><path class="cls-3" d="M568.41,197.83a6.17,6.17,0,1,0,5.27,6.95A6.16,6.16,0,0,0,568.41,197.83Z"/><path class="cls-3" d="M73.49,368.05A6.16,6.16,0,1,0,78.76,375,6.16,6.16,0,0,0,73.49,368.05Z"/><path class="cls-2" d="M476.05,251.69a3.46,3.46,0,1,0,3,3.89A3.46,3.46,0,0,0,476.05,251.69Z"/><path class="cls-2" d="M670.6,117a3.46,3.46,0,1,0,2.95,3.9A3.46,3.46,0,0,0,670.6,117Z"/><path class="cls-3" d="M778.26,283.66c.6.79.71,4.43.71,4.43s1.09-3.47,1.89-4.08,4.43-.71,4.43-.71-3.47-1.09-4.08-1.88-.71-4.44-.71-4.44-1.09,3.48-1.88,4.08-4.44.71-4.44.71,3.48,1.09,4.08,1.89Z"/><path class="cls-3" d="M508.6,174.64c.61.8.72,4.44.72,4.44s1.09-3.48,1.88-4.08,4.44-.71,4.44-.71-3.48-1.09-4.08-1.89-.71-4.43-.71-4.43-1.09,3.47-1.89,4.07-4.43.72-4.43.72,3.47,1.09,4.07,1.88Z"/><path class="cls-3" d="M710.86,360.86c4.21-37.82-8.77-82.09-35.62-121.46-20.52-30.08-58.45-71-124.16-99.65,46.13,29.18,70.61,64.87,83.19,90.49,18.19,37,19.76,68.78,15.16,86.14-3.39,12.8-10.24,19.85-19.28,19.85-5.17,0-10.8-2.35-16.74-7-31.43-24.49-85.93-53.09-136.09-53.09A117.08,117.08,0,0,0,456.19,278c-10.73.31-29.42,5.63-44.64,15.23a.91.91,0,0,1-1,0c-15.18-9.6-33.86-14.92-44.47-15.22a118.71,118.71,0,0,0-21.27-1.87c-50.15,0-104.65,28.6-136.09,53.09-5.93,4.63-11.56,7-16.73,7-9,0-15.89-7.05-19.28-19.85-4.6-17.36-3-49.1,15.16-86.14,12.58-25.62,37.06-61.31,83.18-90.49-65.7,28.62-103.63,69.57-124.15,99.65C120.07,278.77,107.09,323,111.3,360.86c4.69,42,29.22,69.53,67.3,75.43a64.43,64.43,0,0,0,9.77.66c15,0,35.61-3.76,53.79-7.45a1,1,0,0,1,.75.18.89.89,0,0,1,.34.69c.19,5.16.52,10.62,1,16.67a.93.93,0,0,1-.35.79.9.9,0,0,1-.85.14c-10.31-3.49-21.88-3.36-33.63.39a186.7,186.7,0,0,0-64.35,36.7,73.11,73.11,0,0,1,16-1.67c2.6,0,5.25.12,7.87.37,3.81.36,9.9,2.19,17.61,4.51,14.16,4.26,33.55,10.08,50.77,10.08a59.78,59.78,0,0,0,12.51-1.22l.2,0a.91.91,0,0,1,.89.76c1,6,2.21,12.72,3.67,20.4,9.38,49.65,40.94,89.25,50.39,100.2a86.54,86.54,0,0,1,8.7,11.9.89.89,0,0,1,0,.89c-1.52,2.92-2.94,5.9-4.22,8.86-12.91,29.87-5,52.49,22.9,65.39a.92.92,0,0,1,.51.65c5.9,28.57,21,46.28,78.16,46.28,56.94,0,72.08-17.46,78-45.63a.92.92,0,0,1,.53-.65c29.09-12.79,37.52-35.63,24.39-66-1.56-3.54-3.19-6.91-4.84-10a.92.92,0,0,1,0-.92,89.4,89.4,0,0,1,7.95-10.72c9.45-11,41-50.55,50.4-100.2,1.45-7.68,2.65-14.36,3.66-20.4a1,1,0,0,1,.39-.6.92.92,0,0,1,.7-.14,60,60,0,0,0,12.52,1.22c17.22,0,36.6-5.82,50.76-10.08,7.71-2.32,13.8-4.15,17.62-4.51,2.62-.25,5.27-.37,7.87-.37a73.11,73.11,0,0,1,16,1.67,186.8,186.8,0,0,0-64.35-36.7c-11.75-3.75-23.32-3.88-33.63-.39a.9.9,0,0,1-.85-.14.93.93,0,0,1-.35-.79c.49-6.06.82-11.52,1-16.67a.92.92,0,0,1,1.09-.87c18.19,3.69,38.81,7.45,53.8,7.45a64.43,64.43,0,0,0,9.77-.66C681.64,430.39,706.17,402.9,710.86,360.86ZM233.28,418.11a148.45,148.45,0,0,1-38.87,5.65c-32.75,0-56.85-13.71-67.87-38.62-9.05-20.45-8.45-46.89,1.73-76.45,11.1-32.24,33.67-67.65,65.27-102.43a.91.91,0,0,1,1.38,1.18C150,263.19,115.23,342,135.69,384.79c10.53,22,34.49,33.16,71.21,33.16a226,226,0,0,0,26-1.62.9.9,0,0,1,1,.73A.91.91,0,0,1,233.28,418.11Zm15.08,69.58-.46.08a66.54,66.54,0,0,1-9,.59h0c-22.7,0-45.05-10.64-45.28-10.75a.91.91,0,0,1,.11-1.68c.19-.07,19.82-6.58,36.32-6.58a43.16,43.16,0,0,1,10.79,1.2c1.82.47,3.57,1,5.22,1.46l.32.09a.9.9,0,0,1,.65.75c.54,4,1.17,8.22,2,13.8A.91.91,0,0,1,248.36,487.69ZM345.88,613a.91.91,0,0,1-.15,1.11.92.92,0,0,1-1.11.13c-9.51-5.79-19.19-28.93-17.92-51.24.56-9.52,4.49-17.56,8.3-25.34,5.24-10.73,10.67-21.82,7.8-37.41a1,1,0,0,1-.26-.47,21.58,21.58,0,0,0-42.11-.63,21.52,21.52,0,0,0,16,26A21.63,21.63,0,0,0,331,523.49a.92.92,0,0,1,1.18.33.93.93,0,0,1-.22,1.21,31.84,31.84,0,0,1-50.42-32.62A31.72,31.72,0,0,1,312.43,468a32.26,32.26,0,0,1,7.44.88A37.47,37.47,0,0,1,345,489.16a44.38,44.38,0,0,1,.67,37.29C338.6,542.4,323.84,575.58,345.88,613ZM333.24,507a12.16,12.16,0,1,1-11.86-15,12.25,12.25,0,0,1,10.39,5.79A12.09,12.09,0,0,1,333.24,507ZM469.49,701.45c-19.06,24.78-47.21,27.45-58.43,27.45s-39.33-2.67-58.39-27.45a.91.91,0,0,1,1.28-1.27c18.37,14.24,44,19.41,56.72,19.41,12.57,0,39.29-5.27,57.54-19.41a.91.91,0,0,1,1.28,1.27Zm-4.62-21.35c-14,14.91-34.65,24.18-53.81,24.18S371.32,695,357.28,680.1c-9.37-10-11.11-19.09-10-21.76a1.44,1.44,0,0,1,1.31-1c1,0,1.76,1.09,2.26,3.32C352.22,666.8,361.43,675,369,675a8.87,8.87,0,0,0,5.24-1.61c2.95-2.07,4.37-4.7,4.11-7.61-.44-5.13-5.9-10.63-14.58-14.71-10-4.73-13.89-14.94-12.72-20.18.73-3.25,3.49-4.14,6.56-1.74,8.47,6.58,30.08,13.58,53.44,13.58s45-7,53.48-13.58c3.07-2.4,5.83-1.51,6.56,1.74,1.17,5.24-2.68,15.45-12.72,20.18-8.68,4.08-14.14,9.58-14.59,14.71-.25,2.91,1.17,5.54,4.12,7.61a8.86,8.86,0,0,0,5.23,1.61c7.55,0,16.76-8.21,18.13-14.34.5-2.23,1.24-3.32,2.25-3.32a1.44,1.44,0,0,1,1.32,1C476,661,474.25,670.13,464.87,680.1Zm52.24-149.31A32.08,32.08,0,0,1,490.25,525a.91.91,0,0,1,1-1.54,21.45,21.45,0,0,0,9.5,2.23h0a21.7,21.7,0,0,0,18.42-10.26,21.55,21.55,0,0,0-23.4-32.26,21.69,21.69,0,0,0-16.12,16.59.87.87,0,0,1-.25.47c-2.87,15.59,2.55,26.68,7.8,37.42,3.81,7.77,7.74,15.81,8.3,25.33,1.27,22.31-8.41,45.45-17.92,51.24a.91.91,0,0,1-.48.13.93.93,0,0,1-.64-.26.92.92,0,0,1-.14-1.11c22-37.43,7.28-70.61.18-86.56a44.38,44.38,0,0,1,.66-37.29,37.51,37.51,0,0,1,25.17-20.32,32.26,32.26,0,0,1,7.44-.88,31.85,31.85,0,0,1,7.38,62.83ZM488.91,507a12.16,12.16,0,0,1,9-14.64,11.88,11.88,0,0,1,2.85-.34,12.07,12.07,0,0,1,11.79,9.32,12.16,12.16,0,0,1-11.83,15A12.1,12.1,0,0,1,488.91,507Zm92.37-36.44a43.16,43.16,0,0,1,10.79-1.2c16.49,0,36.12,6.51,36.32,6.58a.91.91,0,0,1,.11,1.68c-.23.11-22.58,10.75-45.28,10.75h0a65.65,65.65,0,0,1-8.93-.59l-.49-.08a.9.9,0,0,1-.75-1c.87-5.58,1.5-9.84,2-13.8a.9.9,0,0,1,.65-.75l.3-.09C577.7,471.53,579.46,471,581.28,470.55Zm46.47-46.79a148.45,148.45,0,0,1-38.87-5.65.91.91,0,0,1,.34-1.78,225.75,225.75,0,0,0,26,1.62h0c36.71,0,60.67-11.15,71.19-33.16,20.47-42.77-14.3-121.6-59.22-177.35a.91.91,0,0,1,.11-1.26.92.92,0,0,1,1.27.08c31.6,34.77,54.17,70.19,65.27,102.42,10.18,29.57,10.78,56,1.73,76.45C684.6,410,660.5,423.76,627.75,423.76Z"/><path class="cls-5" d="M479.21,96.75A2.43,2.43,0,0,0,476,97.88l-.61,1.25c-.39.86-1,2-1.81,3.52a98.64,98.64,0,0,1-8.17,12.44,75.5,75.5,0,0,1-16.29,15.66A55.82,55.82,0,0,1,437,136.89a49.69,49.69,0,0,1-7,2.07,25.09,25.09,0,0,1-3.7.64c-1.27.14-2.52.42-3.81.47l-3.94.1-2.2.06H414.2l-4.48,0-5,.38c-.82.09-1.65.18-2.47.29l-3.95-.1c-1.39-.06-2.51-.33-3.76-.47a25.91,25.91,0,0,1-3.66-.62,54.72,54.72,0,0,1-7.08-2.06,57.21,57.21,0,0,1-12.28-6.21A76.58,76.58,0,0,1,355,115.65a98.36,98.36,0,0,1-8.29-12.58c-.84-1.53-1.46-2.72-1.84-3.54s-.6-1.23-.6-1.23l0-.06a1.4,1.4,0,0,0-2.58,1.1s.16.46.48,1.34.81,2.18,1.5,3.86a89.61,89.61,0,0,0,7.28,14,77.1,77.1,0,0,0,16.46,18.61,63.93,63.93,0,0,0,13.38,8.09c.6.31,1.21.58,1.84.84a56.11,56.11,0,0,0-17,11.07A45.7,45.7,0,0,0,353.26,178a42.22,42.22,0,0,0-1.28,6.13,25.13,25.13,0,0,0-.31,3.13l-.09,1.57-.05.78,0,.4v.19c0-.16,0,.44,0,.44l.07,2.72a26.46,26.46,0,0,0,.16,2.91,53.06,53.06,0,0,0,.84,6.33,50.39,50.39,0,0,0,3.84,12.19,46.47,46.47,0,0,0,3.27,5.73c.64.91,1.23,1.86,1.92,2.73l2.18,2.54a21.13,21.13,0,0,0,2.35,2.38l2.49,2.25,2.7,2a23.5,23.5,0,0,0,2.77,1.81,47.35,47.35,0,0,0,5.85,3l3,1.25c1,.4,2,.66,3.06,1a83.56,83.56,0,0,0,24.59,3.31h1l.71,0,1.43-.06,2.84-.12c1.78,0,4.07-.34,6.17-.57,1.07-.14,2.15-.23,3.19-.42l3.09-.63c1-.22,2.06-.42,3.08-.67l3.06-.93c1-.33,2-.59,3.05-1l3-1.26a47.05,47.05,0,0,0,5.82-3,22.28,22.28,0,0,0,2.76-1.82l2.68-2L454.9,228a21,21,0,0,0,2.33-2.38l2.16-2.53c.68-.87,1.26-1.82,1.89-2.72a42.43,42.43,0,0,0,3.2-5.73,51.31,51.31,0,0,0,3.75-12.13,63.51,63.51,0,0,0,1-12.13v-.69l0-.34-.05-.68-.09-1.34a22.54,22.54,0,0,0-.29-2.89,41.68,41.68,0,0,0-1.31-6.35,44.62,44.62,0,0,0-12.28-20.54,55.1,55.1,0,0,0-16.35-10.67c.64-.26,1.27-.53,1.89-.84a65.57,65.57,0,0,0,13.59-8.17A77.63,77.63,0,0,0,471,119.08,91,91,0,0,0,478.45,105c.71-1.74,1.23-3,1.52-3.9l.47-1.31A2.44,2.44,0,0,0,479.21,96.75ZM455.1,181.37a29.17,29.17,0,0,1,.78,4.15,15.45,15.45,0,0,1,.18,2.47l.09,2.35a52,52,0,0,1-1.09,9.55,38.68,38.68,0,0,1-3,8.84,34,34,0,0,1-2.34,3.91c-.44.61-.83,1.27-1.31,1.86l-1.5,1.69a10.59,10.59,0,0,1-1.61,1.6l-1.69,1.53-1.9,1.32a13.55,13.55,0,0,1-2,1.26,32.28,32.28,0,0,1-4.25,2.1l-2.23.92c-.75.29-1.57.47-2.36.72-6.42,1.9-12.88,2.5-20.34,2.53-7.13-.12-14-.72-20.31-2.66-.78-.25-1.6-.43-2.35-.72l-2.21-.93a30.38,30.38,0,0,1-4.23-2.12,11.86,11.86,0,0,1-1.93-1.26l-1.88-1.32L376,217.64a11,11,0,0,1-1.6-1.6l-1.48-1.69c-.46-.58-.85-1.23-1.28-1.84a31.6,31.6,0,0,1-2.27-3.91,43.76,43.76,0,0,1-3.63-13.27,21.68,21.68,0,0,1-.19-2.52l-.12-2.59v-.16l0-.29,0-.56,0-1.13a15.15,15.15,0,0,1,.16-2.24,28.91,28.91,0,0,1,.82-4.36,32.8,32.8,0,0,1,8.41-15,44,44,0,0,1,14.4-9.7A65,65,0,0,1,406,152.31l4.11-.57,4.37-.26.69.09a67.19,67.19,0,0,1,16.91,4.61,44.47,44.47,0,0,1,14.56,9.88A33.84,33.84,0,0,1,455.1,181.37Z"/><path class="cls-6" d="M342.65,351c1.6,2.1,1.89,11.75,1.89,11.75s2.89-9.21,5-10.81S361.29,350,361.29,350s-9.21-2.89-10.81-5-1.89-11.75-1.89-11.75-2.88,9.21-5,10.8S331.85,346,331.85,346s9.21,2.89,10.8,5Z"/></g></g></svg>
