<svg xmlns="http://www.w3.org/2000/svg" viewBox="0 0 832.1 832.1"><defs><style>.cls-1{fill:#221e1f;}.cls-2{fill:#FFDD57;}.cls-2,.cls-3,.cls-4{fill-rule:evenodd;}.cls-3,.cls-5{fill:#FFDD57;}.cls-4{fill:#fff;}</style></defs><title>Element 3</title><g id="Ebene_2" data-name="Ebene 2"><g id="Layer_3" data-name="Layer 3"><circle class="cls-1" cx="416.05" cy="416.05" r="415.99"/><path class="cls-2" d="M473.15,762.83a5.45,5.45,0,1,1-7.5-1.76A5.45,5.45,0,0,1,473.15,762.83Z"/><path class="cls-3" d="M399.2,775.34c-2.31-.54-10.32,2.73-10.32,2.73s6.5-5.72,7-8-2.73-10.31-2.73-10.31,5.71,6.49,8,7S411.52,764,411.52,764s-6.49,5.72-7,8,2.73,10.32,2.73,10.32-5.72-6.49-8-7Z"/><path class="cls-3" d="M554.58,744.06c-1.94-.45-8.69,2.3-8.69,2.3s5.47-4.82,5.92-6.76-2.29-8.68-2.29-8.68,4.81,5.47,6.75,5.92,8.69-2.3,8.69-2.3-5.47,4.82-5.93,6.76,2.3,8.68,2.3,8.68-4.81-5.46-6.75-5.92Z"/><path class="cls-4" d="M163.15,662a73,73,0,0,0-10.42-1,69.77,69.77,0,0,0,10.34-1.67,71.72,71.72,0,0,0-4.34-9.53,70.09,70.09,0,0,0,6.62,8.12,71.72,71.72,0,0,0,6.09-8.52,70.4,70.4,0,0,0-3.73,9.79,70,70,0,0,0,10.43,1,71.45,71.45,0,0,0-10.35,1.67,71.62,71.62,0,0,0,4.34,9.54,71.05,71.05,0,0,0-6.61-8.13,71,71,0,0,0-6.1,8.52,69.91,69.91,0,0,0,3.73-9.79Z"/><path class="cls-4" d="M48.93,491.71a70.89,70.89,0,0,0-10.43-1A70,70,0,0,0,48.84,489a69.7,69.7,0,0,0-4.33-9.54,72,72,0,0,0,6.61,8.13,69.79,69.79,0,0,0,6.09-8.53,71.22,71.22,0,0,0-3.72,9.79,70.87,70.87,0,0,0,10.42,1,70.28,70.28,0,0,0-10.34,1.66,71,71,0,0,0,4.33,9.54A69.48,69.48,0,0,0,51.29,493a70.82,70.82,0,0,0-6.09,8.52,70.4,70.4,0,0,0,3.73-9.79Z"/><path class="cls-4" d="M339.94,720.36a70.89,70.89,0,0,0-10.43-1,70,70,0,0,0,10.34-1.66,69.7,69.7,0,0,0-4.33-9.54,72,72,0,0,0,6.61,8.13,69.79,69.79,0,0,0,6.09-8.53,69.84,69.84,0,0,0-3.72,9.79,70.87,70.87,0,0,0,10.42,1,70.28,70.28,0,0,0-10.34,1.66,71,71,0,0,0,4.33,9.54,70.59,70.59,0,0,0-6.61-8.12,70.82,70.82,0,0,0-6.09,8.52,70.4,70.4,0,0,0,3.73-9.79Z"/><path class="cls-4" d="M228.31,107.84a70.89,70.89,0,0,0-10.43-1,71.48,71.48,0,0,0,10.34-1.66,69.14,69.14,0,0,0-4.33-9.54,71.55,71.55,0,0,0,6.61,8.12,69.36,69.36,0,0,0,6.09-8.52,69.84,69.84,0,0,0-3.72,9.79,70,70,0,0,0,10.42,1A71.21,71.21,0,0,0,233,107.69a71,71,0,0,0,4.33,9.54,71.05,71.05,0,0,0-6.61-8.13,71.41,71.41,0,0,0-6.09,8.52,71.87,71.87,0,0,0,3.73-9.78Z"/><path class="cls-4" d="M466.77,714s-8-1.4-12.83-1.25c4.86-.15,12.75-2.09,12.73-2.05s-2.77-7.61-5.33-11.74c2.56,4.13,8.18,10,8.14,10s5.2-6.2,7.49-10.49c-2.29,4.29-4.56,12.09-4.59,12.05s8,1.4,12.84,1.25c-4.86.15-12.75,2.09-12.73,2s2.77,7.61,5.33,11.74c-2.56-4.13-8.18-10-8.14-10s-5.2,6.21-7.49,10.49c2.29-4.28,4.56-12.09,4.58-12Z"/><path class="cls-4" d="M719,603.27s-8-1.4-12.83-1.24c4.86-.16,12.75-2.09,12.73-2s-2.78-7.61-5.34-11.74c2.56,4.13,8.19,10,8.14,10s5.2-6.21,7.5-10.49c-2.3,4.28-4.57,12.08-4.59,12s8,1.4,12.83,1.24c-4.85.16-12.75,2.09-12.73,2.05s2.78,7.61,5.34,11.74c-2.56-4.13-8.19-10-8.14-10s-5.2,6.21-7.5,10.49c2.3-4.28,4.57-12.08,4.59-12.05Z"/><path class="cls-4" d="M274.35,764.69a3.39,3.39,0,1,1-4.66-1.1A3.39,3.39,0,0,1,274.35,764.69Z"/><path class="cls-4" d="M43.54,377.5a3.39,3.39,0,1,1-4.66-1.1A3.38,3.38,0,0,1,43.54,377.5Z"/><path class="cls-4" d="M106.88,576.76a3.39,3.39,0,1,1-4.67-1.1A3.39,3.39,0,0,1,106.88,576.76Z"/><path class="cls-4" d="M222.74,655a6.77,6.77,0,1,1-9.32-2.18A6.78,6.78,0,0,1,222.74,655Z"/><path class="cls-2" d="M342.47,514.56a3.8,3.8,0,1,1-5.23-1.23A3.81,3.81,0,0,1,342.47,514.56Z"/><path class="cls-2" d="M449,477.42a3.8,3.8,0,1,1-5.23-1.23A3.8,3.8,0,0,1,449,477.42Z"/><path class="cls-4" d="M509.1,510.84c-2.57-.6-11.51,3.05-11.51,3.05s7.25-6.38,7.85-8.95-3.05-11.51-3.05-11.51,6.38,7.24,8.95,7.85,11.51-3,11.51-3-7.24,6.38-7.85,8.95,3,11.51,3,11.51-6.38-7.24-8.95-7.85Z"/><path class="cls-3" d="M359.56,107.86c-1.76-.42-7.9,2.09-7.9,2.09s5-4.38,5.39-6.15-2.1-7.91-2.1-7.91,4.39,5,6.15,5.4,7.91-2.1,7.91-2.1-5,4.39-5.39,6.15,2.09,7.91,2.09,7.91-4.38-5-6.15-5.39Z"/><path class="cls-3" d="M446.48,338.87c-1.77-.42-7.91,2.09-7.91,2.09s5-4.38,5.39-6.15-2.09-7.91-2.09-7.91,4.38,5,6.15,5.4,7.91-2.1,7.91-2.1-5,4.39-5.39,6.15,2.09,7.91,2.09,7.91-4.38-5-6.15-5.39Z"/><path class="cls-3" d="M450.11,157c-2.1-.49-9.39,2.48-9.39,2.48s5.91-5.2,6.4-7.3-2.49-9.39-2.49-9.39,5.21,5.91,7.31,6.4,9.39-2.48,9.39-2.48-5.91,5.2-6.41,7.3,2.49,9.39,2.49,9.39-5.21-5.91-7.3-6.4Z"/><path class="cls-3" d="M788.75,377.38c-2.1-.49-9.39,2.49-9.39,2.49s5.91-5.21,6.4-7.3-2.48-9.39-2.48-9.39,5.21,5.91,7.3,6.4,9.39-2.49,9.39-2.49-5.91,5.21-6.4,7.31,2.49,9.39,2.49,9.39-5.21-5.91-7.31-6.41Z"/><path class="cls-4" d="M502.27,81.55s-7.26-1.27-11.68-1.13c4.42-.14,11.61-1.91,11.59-1.87s-2.53-6.93-4.86-10.69c2.33,3.76,7.45,9.11,7.41,9.11s4.74-5.65,6.83-9.55c-2.09,3.9-4.16,11-4.18,11s7.26,1.27,11.68,1.13c-4.42.14-11.61,1.91-11.59,1.87s2.53,6.93,4.86,10.69C510,88.32,504.88,83,504.92,83s-4.74,5.66-6.83,9.55c2.09-3.89,4.16-11,4.18-11Z"/><path class="cls-4" d="M625.07,122.08a3.08,3.08,0,1,1-4.24-1A3.08,3.08,0,0,1,625.07,122.08Z"/><path class="cls-4" d="M614.44,658.61a3.08,3.08,0,1,1-4.24-1A3.08,3.08,0,0,1,614.44,658.61Z"/><path class="cls-2" d="M404.4,140.55a3.46,3.46,0,1,1-4.77-1.12A3.47,3.47,0,0,1,404.4,140.55Z"/><path class="cls-4" d="M389.9,31.29c-1-.23-4.35,1.15-4.35,1.15s2.74-2.41,3-3.38-1.15-4.34-1.15-4.34,2.41,2.73,3.38,3,4.34-1.15,4.34-1.15-2.73,2.41-3,3.38,1.15,4.34,1.15,4.34-2.4-2.73-3.37-3Z"/><path class="cls-4" d="M422.87,223c-1-.23-4.34,1.15-4.34,1.15s2.73-2.41,3-3.38-1.15-4.34-1.15-4.34,2.41,2.73,3.38,3,4.34-1.15,4.34-1.15-2.73,2.41-3,3.38,1.15,4.34,1.15,4.34-2.41-2.73-3.38-3Z"/><path class="cls-4" d="M378.21,385.58c5.66-2,12-5.81,12.76-10.74.54-3.46-1.68-7.08-6.58-10.76-15.45-11.59-19.84-29-14.67-58.25,4.62-26.26,6.72-56.94-12.76-85.4a.89.89,0,0,1-.11-.82c2.5-7,1.65-15.38-2.4-23.71-8.28-17.06-28.85-31.8-57.9-41.49-9.11-3-19.87-4.59-32-4.59-63.48,0-147.71,40.9-178.8,116.7C73,297.59,68.93,347,68.22,356.87c20-12.4,33.07-30.92,37.81-53.65a.92.92,0,0,1,.88-.73,1,1,0,0,1,.9.7c.21.89,4.9,22-18,47.89-22.29,25.17-31,65.72-25.07,87.81,4.5,16.88,17,43.07,22.49,54.17-1.63-11.88-3.85-38.66,6.61-51.84,11.64-14.68,8.09-38.22,6.19-50.87-.23-1.5-.43-2.85-.59-4a.91.91,0,0,1,1.73-.51l.32.67c4,8.32,16.26,33.65-1,64.47-16.23,28.91,1.86,80.46,42.08,119.91,31.48,30.87,66.43,43.42,77.4,46.8-44.44-43.2-53-75.74-58.28-108a.91.91,0,0,1,1.78-.39c.18.66,18.55,66.37,56.92,91.71,34.44,22.74,34.56,56.16,34.05,64.11,19-10.48,29.91-21.93,33.33-35,4.17-15.91-3.91-31.67-12.36-45a.91.91,0,0,1,.18-1.18.88.88,0,0,1,.59-.22.91.91,0,0,1,.6.22c25.52,22.33,25.11,50.64,24.67,80.61-.1,7.1-.21,14.43,0,21.75,21-14.79,35.94-34,38.28-49.35,6.67-43.64-25.94-77.74-54.46-98.66-25.7-18.84-15.33-61.05-9.68-78.32,3.75-11.44,4.69-11.44,5-11.44a.94.94,0,0,1,.84.55c1.85,1.92,33.7,21.41,50.12,22.12,9.57.42,15.66-1,18.77-4.38,1.92-2.07,2.71-4.91,2.42-8.69-.8-10.43.93-19.3,4.63-23.75a5.51,5.51,0,0,0,1-5.52c-1-2.76-3.94-4.83-7.86-5.54-14.63-2.66-24.2-9.87-28.43-21.43a.91.91,0,0,1,.54-1.17.92.92,0,0,1,1.17.54h0c2.41,6.55,17.95,15.32,30.55,15.32,5.63,0,9.93-1.67,12.8-4.95.64-.74.51-1.66.21-3.22a12.41,12.41,0,0,1-.28-3.85C368.19,395.94,369.76,388.54,378.21,385.58ZM129.29,254.64c.06-.22,6.51-22.21,25.39-43.19,23.57-26.18,51-40.34,86.42-44.56a135,135,0,0,1,15.94-.95c35.81,0,68.45,14.23,85.17,37.13a.91.91,0,0,1-1.29,1.26c-26.8-20.67-56.55-31.59-86-31.59-49.47,0-95.79,30.87-123.93,82.58a.89.89,0,0,1-.8.48.83.83,0,0,1-.34-.07A.9.9,0,0,1,129.29,254.64Zm182.83-42.95a.91.91,0,0,1-.93.73c-3.4-.12-6.81-.18-10.15-.18-85.55,0-133.82,37.08-143.69,73.84-11,41.17-14.19,66.8-14.22,67.05a.91.91,0,0,1-.9.8h0a.91.91,0,0,1-.89-.83c-.08-1-7.43-98.72,59.59-129.18,26.57-12.08,52.44-18.21,76.87-18.21,21.32,0,33.29,4.75,33.79,4.95A.91.91,0,0,1,312.12,211.69ZM155.32,547.4a.93.93,0,0,1-.59.21.89.89,0,0,1-.67-.3c-30.37-33.44-36.63-81.32-32.35-115,3.43-26.95,13.86-48.54,27.91-57.76a.91.91,0,0,1,1.26,1.26c-22.5,34.48-29.06,85.43-15.95,123.9,12,35.32,20.43,46.29,20.52,46.4A.92.92,0,0,1,155.32,547.4Zm112.05,66.78-.19,0a.92.92,0,0,1-.84-.54c-11.95-26.78-28-41.56-43.55-55.86-11.23-10.33-21.84-20.09-30.28-33.75-26.63-43-38.66-107.6,7.43-160a.91.91,0,0,1,1.49,1c-25.69,48.89-29.94,92-13,131.88,7.84,18.48,23.9,35.31,39.44,51.59,20.52,21.51,39.91,41.83,40.21,64.74A.92.92,0,0,1,267.37,614.18Zm22.28-58c42.55,29.76,37.75,61.9,35.09,66.57a.93.93,0,0,1-1.07.42.91.91,0,0,1-.62-1c2-17.62-11.63-45.67-38-62.1-34-21.18-91-74.65-89.38-140.72a.91.91,0,0,1,1.8-.18C215.09,498.44,251.13,529.21,289.65,556.17ZM279.24,266.36c-66.39,71.47-72.36,141.2-21.28,248.7a.91.91,0,0,1-1.57.9c-.26-.38-26.07-38.94-36.24-88.87-9.4-46.17-7-111.76,57.87-162.07a.91.91,0,0,1,1.22,1.34Zm-78.82,34.72c-12.9,22.79-17.17,41.36-21.3,59.32-5.37,23.37-10.44,45.45-34.21,73a.92.92,0,0,1-.69.32,1,1,0,0,1-.55-.18.91.91,0,0,1-.22-1.22c21.05-32.93,24.22-51.46,27.57-71.08,3-17.39,6-35.38,21.83-64.48,24.16-44.52,59.33-49.57,93.34-54.45,21.32-3.06,41.45-5.95,57.07-18.79a.91.91,0,0,1,1.29,1.27c-13.49,16.72-34.36,20.31-56.45,24.12C257.91,254.12,223.69,260,200.42,301.08Zm142.44,47.24a1,1,0,0,1-1,.87c-.39,0-.68-.19-1.24-.58a19.5,19.5,0,0,0-5.42-2.73c-1.47-.49-4.89-.67-8.85-.88-8.21-.44-19.46-1-27.3-4.73a.9.9,0,0,1-.49-1.06.89.89,0,0,1,.95-.67c6.43.51,11.85.77,16.12.77,2.34,0,4-.08,5.13-.17a13.41,13.41,0,0,1-5.14-8.15,16.13,16.13,0,0,1,.66-7.84L291.72,336a.91.91,0,0,1-1-1.53c2.78-2.12,6-4.78,9.39-7.59,8.23-6.81,17.55-14.52,25.38-18.65l4.6-2.39c7.31-3.76,11.72-6,12.27-9.2a.88.88,0,0,1,.8-.75.93.93,0,0,1,.94.56c2.89,7.26-1.16,15-2.4,16.71a.93.93,0,0,1-1,.33,13.15,13.15,0,0,0-15.1,5.46,12.94,12.94,0,0,0-1.74,9.88,13.25,13.25,0,0,0,12.83,10.29,13.65,13.65,0,0,0,2.84-.31.92.92,0,0,1,1.14.49C341.28,340.62,343.19,345.3,342.86,348.32Zm-2.3-16.21a6.53,6.53,0,0,1-1.33.14A6.18,6.18,0,0,1,337.88,320a6.29,6.29,0,0,1,7.4,4.67A6.21,6.21,0,0,1,340.56,332.11Zm3.83-39.53c-6.94.26-29,5.39-42.36,16.54a.88.88,0,0,1-.58.21,1.49,1.49,0,0,1-1.69-1.3c-.4-3.64,18.26-18.28,32.67-21.42a38.57,38.57,0,0,1,8-1c5.77,0,8.39,2,8.43,3.92C348.91,291,347.53,292.46,344.39,292.58Z"/><path class="cls-4" d="M746.46,351.08c-22.92-25.88-18.23-47-18-47.89a.91.91,0,0,1,.89-.7h0a.93.93,0,0,1,.88.73C735,326,748,344.47,768,356.87c-.71-9.87-4.83-59.28-17.56-90.35-31.09-75.8-115.32-116.7-178.79-116.7-12.11,0-22.87,1.55-32,4.59-29.06,9.69-49.62,24.43-57.91,41.49-4,8.33-4.9,16.75-2.4,23.71a.92.92,0,0,1-.1.82c-19.48,28.46-17.39,59.14-12.77,85.4,5.17,29.24.79,46.66-14.66,58.25-4.91,3.68-7.12,7.3-6.58,10.76.77,4.93,7.09,8.78,12.75,10.74,8.46,3,10,10.36,11.08,19a12.45,12.45,0,0,1-.28,3.86c-.29,1.56-.42,2.48.22,3.22,2.86,3.28,7.17,4.95,12.79,4.95,12.61,0,28.15-8.78,30.56-15.33a.91.91,0,1,1,1.71.63h0c-4.23,11.55-13.8,18.76-28.43,21.42-3.91.71-6.85,2.78-7.85,5.54a5.53,5.53,0,0,0,1,5.52c3.71,4.44,5.44,13.32,4.64,23.75-.29,3.78.5,6.62,2.41,8.69,3.12,3.36,9.22,4.8,18.77,4.38,16.42-.71,48.27-20.2,50.13-22.12a.91.91,0,0,1,.83-.55c.36,0,1.3,0,5,11.44,5.66,17.27,16,59.47-9.67,78.32-28.53,20.92-61.13,55-54.46,98.66,2.34,15.32,17.3,34.56,38.28,49.35.24-7.32.14-14.65,0-21.75-.44-30-.85-58.28,24.68-80.61a.91.91,0,0,1,1.36,1.18c-8.45,13.33-16.52,29.09-12.35,45,3.42,13.05,14.33,24.5,33.33,35-.51-8-.39-41.37,34-64.11,38.36-25.34,56.73-91,56.91-91.71a.92.92,0,0,1,1.08-.65.91.91,0,0,1,.7,1c-5.32,32.24-13.84,64.78-58.28,108,11-3.38,45.93-15.93,77.4-46.8,40.22-39.45,58.32-91,42.09-119.91-17.28-30.82-5-56.15-1-64.47l.32-.67a.91.91,0,0,1,1.72.51c-.15,1.16-.35,2.51-.58,4-1.91,12.65-5.45,36.19,6.18,50.87,10.46,13.18,8.24,40,6.62,51.84,5.48-11.1,18-37.29,22.48-54.17C777.42,416.8,768.75,376.25,746.46,351.08ZM494,203.07c16.73-22.9,49.36-37.13,85.17-37.13a135.18,135.18,0,0,1,15.95.95c35.39,4.22,62.85,18.38,86.41,44.56,18.89,21,25.34,43,25.4,43.19a.9.9,0,0,1-.53,1.09.84.84,0,0,1-.35.07.91.91,0,0,1-.8-.48c-28.13-51.71-74.46-82.58-123.92-82.58-29.48,0-59.23,10.92-86,31.59a.91.91,0,0,1-1.2-.07A.92.92,0,0,1,494,203.07Zm200.9,150a.92.92,0,0,1-.89.83h0a.9.9,0,0,1-.9-.8c0-.25-3.19-25.88-14.22-67.05-9.88-36.76-58.14-73.84-143.69-73.84-3.34,0-6.76.06-10.16.18a.9.9,0,0,1-.92-.73.91.91,0,0,1,.55-1c.5-.2,12.47-4.95,33.78-4.95,24.44,0,50.3,6.13,76.87,18.21C702.36,254.38,695,352.11,694.93,353.1ZM487.36,289.56c0-1.95,2.66-3.92,8.44-3.92a38.57,38.57,0,0,1,8,1c14.41,3.14,33.06,17.78,32.67,21.42a1.51,1.51,0,0,1-1.69,1.3.91.91,0,0,1-.59-.21c-13.37-11.15-35.41-16.28-42.35-16.54C488.72,292.46,487.34,291,487.36,289.56ZM491,324.71a6.21,6.21,0,0,1,6-4.82,6.15,6.15,0,0,1,6,7.5,6.22,6.22,0,0,1-6,4.86,6.68,6.68,0,0,1-1.33-.14A6.21,6.21,0,0,1,491,324.71Zm54.74,10.94a.91.91,0,0,1-1.19.32L520,323.15a16.25,16.25,0,0,1,.66,7.84,13.45,13.45,0,0,1-5.14,8.15c1.13.09,2.78.17,5.13.17,4.27,0,9.69-.26,16.12-.77a.91.91,0,0,1,.46,1.73c-7.85,3.7-19.09,4.29-27.31,4.73-4,.21-7.38.39-8.83.88a19.3,19.3,0,0,0-5.43,2.73c-.57.39-.85.58-1.25.58a1,1,0,0,1-.95-.74c-.35-3.15,1.56-7.83,2.15-9.18a.9.9,0,0,1,1.12-.5l.11,0a13.4,13.4,0,0,0,2.75.29,13.24,13.24,0,0,0,12.82-10.29,13,13,0,0,0-1.73-9.88,13.12,13.12,0,0,0-8.24-5.78,13.25,13.25,0,0,0-6.87.32.92.92,0,0,1-1-.33c-1.24-1.68-5.29-9.45-2.4-16.71a.91.91,0,0,1,.94-.56.9.9,0,0,1,.8.75c.55,3.16,5,5.44,12.27,9.2l4.6,2.39c7.82,4.13,17.15,11.84,25.38,18.65,3.4,2.81,6.61,5.47,9.39,7.59A.92.92,0,0,1,545.71,335.65ZM557,266.36a.92.92,0,0,1,0-1.24.91.91,0,0,1,1.23-.1c64.86,50.31,67.26,115.9,57.86,162.07-10.16,49.93-36,88.49-36.23,88.87a.91.91,0,0,1-1.58-.9C629.36,407.56,623.4,337.83,557,266.36Zm-5.82,293.73c-26.35,16.44-40,44.48-38,62.1a.91.91,0,0,1-.62,1,1,1,0,0,1-.29,0,.92.92,0,0,1-.79-.46c-2.65-4.68-7.45-36.81,35.1-66.57,38.52-27,74.55-57.73,92.15-137a.91.91,0,0,1,1.8.18C642.16,485.44,585.13,538.91,551.18,560.09Zm92.56-36c-8.45,13.66-19,23.42-30.28,33.75-15.54,14.3-31.6,29.08-43.56,55.86a.92.92,0,0,1-.83.54l-.2,0a.9.9,0,0,1-.71-.9c.29-22.91,19.68-43.23,40.21-64.74C623.9,532.26,640,515.43,647.8,497c17-39.86,12.7-83-13-131.88a.91.91,0,0,1,1.49-1C682.39,416.45,670.36,481.06,643.74,524.05ZM657.12,360.4c-4.13-18-8.39-36.53-21.3-59.32-23.26-41.06-57.48-47-87.68-52.16-22.09-3.81-42.95-7.4-56.44-24.12a.91.91,0,0,1,1.29-1.27c15.61,12.84,35.75,15.73,57.07,18.79,34,4.88,69.18,9.93,93.33,54.45,15.79,29.1,18.86,47.09,21.84,64.48,3.35,19.62,6.52,38.15,27.57,71.08a.91.91,0,0,1-.23,1.22.9.9,0,0,1-1.23-.14C667.57,405.85,662.5,383.77,657.12,360.4Zm25.07,186.91a.91.91,0,0,1-.68.3.91.91,0,0,1-.71-1.47c.08-.11,8.52-11.08,20.51-46.4,13.11-38.47,6.55-89.42-15.95-123.9a.94.94,0,0,1,.12-1.15.91.91,0,0,1,1.14-.11c14,9.22,24.49,30.81,27.91,57.76C718.81,466,712.56,513.87,682.19,547.31Z"/><path class="cls-5" d="M478.21,660.82l-.87-1.17a27,27,0,0,0-2.71-3.23,52.79,52.79,0,0,0-4.9-4.66c-1-.8-2.08-1.68-3.26-2.53s-2.44-1.72-3.8-2.54a72.36,72.36,0,0,0-9.11-4.75c-1.65-.78-3.42-1.38-5.2-2.09s-3.66-1.24-5.57-1.76l-.76-.2c.61-2.61,1.32-6.32,1.94-10.77s1.16-9.69,1.49-15.28c.15-2.79.29-5.68.33-8.62s.06-5.91,0-8.89-.13-6-.28-8.9-.31-5.82-.56-8.61c-.46-5.59-1.1-10.81-1.81-15.28-.65-4.12-1.37-7.6-2-10.17.42-.11.85-.2,1.27-.32a76.17,76.17,0,0,0,10.84-3.7,66.28,66.28,0,0,0,9.11-4.75,50.86,50.86,0,0,0,11.7-9.84,31.29,31.29,0,0,0,2.63-3.35l.84-1.23a1.42,1.42,0,0,0-1.89-2l-.11.06-1.22.72c-.77.5-1.92,1.18-3.4,2s-3.31,1.69-5.39,2.64a76.34,76.34,0,0,1-7.16,2.74c-10.57,3.62-25.39,5.75-40.2,5.24-3.7-.09-7.39-.43-11-.77s-7.17-.9-10.56-1.59-6.68-1.38-9.74-2.23c-1.55-.4-3-.83-4.45-1.3s-2.79-.92-4.11-1.37c-2.63-.93-5-1.91-7.08-2.83s-3.92-1.8-5.3-2.56-2.65-1.45-3.45-1.93l-1.27-.72a2.48,2.48,0,0,0-3.21,3.63l.86,1.17a29.86,29.86,0,0,0,2.71,3.23,54.09,54.09,0,0,0,4.9,4.66c1,.8,2.08,1.68,3.26,2.53s2.44,1.72,3.81,2.53a72.21,72.21,0,0,0,9.1,4.76c1.66.78,3.42,1.37,5.2,2.08s3.66,1.24,5.57,1.76c.55.16,1.12.3,1.67.45-.62,2.59-1.38,6.21-2.06,10.53-.71,4.47-1.35,9.69-1.81,15.28-.25,2.79-.41,5.68-.56,8.61s-.22,5.92-.27,8.9-.06,6,0,8.89.18,5.83.34,8.62c.32,5.59.85,10.81,1.48,15.28.59,4.25,1.27,7.81,1.86,10.39l-.37.1a76.45,76.45,0,0,0-10.83,3.69,65.72,65.72,0,0,0-9.11,4.76,50.73,50.73,0,0,0-11.71,9.84,32.27,32.27,0,0,0-2.62,3.35l-.85,1.23a1.43,1.43,0,0,0,1.9,2l.1-.06,1.23-.73c.77-.49,1.92-1.17,3.4-2s3.3-1.68,5.38-2.63,4.5-1.88,7.16-2.74c10.57-3.63,25.39-5.76,40.2-5.24,3.71.09,7.39.43,11,.77s7.17.9,10.57,1.59,6.68,1.37,9.74,2.23c1.54.39,3,.83,4.44,1.3s2.8.92,4.12,1.37c2.63.93,5,1.91,7.08,2.83s3.91,1.8,5.3,2.56,2.65,1.45,3.45,1.93l1.26.72a2.5,2.5,0,0,0,2.7-.17A2.47,2.47,0,0,0,478.21,660.82Zm-59.9-26.2a95.38,95.38,0,0,0-12.56.69c-1.4.18-2.79.39-4.17.61.5-2.38,1-5.37,1.52-8.8.62-4.47,1.16-9.69,1.48-15.28.15-2.79.29-5.68.33-8.62s.06-5.91,0-8.89-.13-6-.28-8.9-.31-5.82-.56-8.61c-.46-5.59-1.1-10.81-1.81-15.28-.58-3.68-1.21-6.84-1.77-9.3,1.6.31,3.22.6,4.86.85a102.09,102.09,0,0,0,12.54.95,95.19,95.19,0,0,0,12.56-.7c1.74-.21,3.45-.47,5.15-.77-.54,2.41-1.14,5.45-1.7,9-.71,4.47-1.35,9.69-1.81,15.28-.25,2.79-.41,5.68-.56,8.61s-.23,5.92-.27,8.9-.06,6,0,8.89.18,5.83.34,8.62c.32,5.59.85,10.81,1.48,15.28.5,3.58,1.06,6.67,1.57,9.11-1.27-.24-2.56-.46-3.86-.66A100.47,100.47,0,0,0,418.31,634.62Z"/></g></g></svg>
