<svg xmlns="http://www.w3.org/2000/svg" viewBox="0 0 831.99 831.99"><defs><style>.cls-1{fill:#221e1f;}.cls-2,.cls-5{fill:#fff;}.cls-2,.cls-3,.cls-4{fill-rule:evenodd;}.cls-3{fill:#FFDD57;}.cls-4,.cls-6{fill:#FFDD57;}</style></defs><title>Element 4</title><g id="Ebene_2" data-name="Ebene 2"><g id="Layer_3" data-name="Layer 3"><circle class="cls-1" cx="415.99" cy="415.99" r="415.99"/><path class="cls-2" d="M55.27,352.69a6.16,6.16,0,1,1-8.49-2A6.18,6.18,0,0,1,55.27,352.69Z"/><path class="cls-3" d="M674,607.49a5.45,5.45,0,1,1-5.45-5.44A5.45,5.45,0,0,1,674,607.49Z"/><path class="cls-3" d="M281.8,740.81a5.45,5.45,0,1,1-5.45-5.45A5.45,5.45,0,0,1,281.8,740.81Z"/><path class="cls-2" d="M406.1,264.12c-2.05-2.05-12.5-3.81-12.5-3.81s10.45-1.77,12.5-3.82,3.82-12.5,3.82-12.5,1.76,10.45,3.81,12.5,12.51,3.82,12.51,3.82-10.46,1.76-12.51,3.81-3.81,12.51-3.81,12.51-1.77-10.46-3.82-12.51Z"/><path class="cls-4" d="M181.8,145.48c-1.67-1.67-10.2-3.11-10.2-3.11s8.53-1.44,10.2-3.11,3.12-10.21,3.12-10.21,1.44,8.53,3.11,10.21,10.2,3.11,10.2,3.11-8.53,1.44-10.2,3.11-3.11,10.21-3.11,10.21-1.44-8.53-3.12-10.21Z"/><path class="cls-4" d="M361.27,762.9c-1.41-1.41-8.6-2.62-8.6-2.62s7.19-1.21,8.6-2.62,2.62-8.59,2.62-8.59,1.21,7.18,2.62,8.59,8.59,2.62,8.59,2.62-7.18,1.21-8.59,2.62-2.62,8.59-2.62,8.59-1.21-7.18-2.62-8.59Z"/><path class="cls-2" d="M46.32,518.34A70.64,70.64,0,0,0,38,512a70.53,70.53,0,0,0,9.67,4A71,71,0,0,0,49,505.63,71,71,0,0,0,50.34,516,70.53,70.53,0,0,0,60,512a70.64,70.64,0,0,0-8.33,6.36A71,71,0,0,0,60,524.69a71.34,71.34,0,0,0-9.67-4A70.54,70.54,0,0,0,49,531.05a70.54,70.54,0,0,0-1.34-10.39,71.34,71.34,0,0,0-9.67,4,71,71,0,0,0,8.33-6.35Z"/><path class="cls-2" d="M712.72,539a71,71,0,0,0-8.33-6.35,71.34,71.34,0,0,0,9.67,4,72,72,0,0,0,1.34-10.39,70.54,70.54,0,0,0,1.34,10.39,70.87,70.87,0,0,0,9.66-4,71.47,71.47,0,0,0-8.32,6.35,70,70,0,0,0,8.32,6.36,69.52,69.52,0,0,0-9.66-4,70.54,70.54,0,0,0-1.34,10.38,72,72,0,0,0-1.34-10.38,70,70,0,0,0-9.67,4,69.51,69.51,0,0,0,8.33-6.36Z"/><path class="cls-2" d="M273.68,108.33a71,71,0,0,0-8.33-6.35,71.34,71.34,0,0,0,9.67,4,70.54,70.54,0,0,0,1.34-10.39A70.54,70.54,0,0,0,277.7,106a71.34,71.34,0,0,0,9.67-4,71,71,0,0,0-8.33,6.35,71.81,71.81,0,0,0,8.33,6.36,70.53,70.53,0,0,0-9.67-4A70.54,70.54,0,0,0,276.36,121,70.54,70.54,0,0,0,275,110.65a70.53,70.53,0,0,0-9.67,4,71.81,71.81,0,0,0,8.33-6.36Z"/><path class="cls-2" d="M166.8,228.88a70.54,70.54,0,0,0-8.32-6.35,72,72,0,0,0,9.66,4,70.54,70.54,0,0,0,1.34-10.39,70,70,0,0,0,1.35,10.39,72,72,0,0,0,9.66-4,70.54,70.54,0,0,0-8.32,6.35,69.07,69.07,0,0,0,8.32,6.36,70.58,70.58,0,0,0-9.66-4,70,70,0,0,0-1.35,10.39,70.54,70.54,0,0,0-1.34-10.39,70.58,70.58,0,0,0-9.66,4,69.07,69.07,0,0,0,8.32-6.36Z"/><path class="cls-2" d="M372.38,679.37s-6-5.39-10.25-7.82c4.21,2.43,11.94,4.94,11.9,5s1.65-7.93,1.65-12.79c0,4.86,1.69,12.81,1.65,12.79s7.69-2.54,11.9-5C385,674,379,679.42,379,679.37s6,5.4,10.25,7.83c-4.21-2.43-11.94-5-11.9-5s-1.65,7.93-1.65,12.79c0-4.86-1.69-12.81-1.65-12.79s-7.69,2.54-11.9,5c4.21-2.43,10.25-7.87,10.25-7.83Z"/><path class="cls-2" d="M669.48,678.39s-6-5.39-10.24-7.82c4.2,2.43,11.93,4.94,11.89,5s1.65-7.93,1.65-12.78c0,4.85,1.69,12.8,1.65,12.78s7.7-2.53,11.9-5c-4.2,2.43-10.25,7.86-10.25,7.82s6,5.39,10.25,7.82c-4.2-2.43-11.93-4.94-11.9-5s-1.65,7.93-1.65,12.78c0-4.85-1.68-12.8-1.65-12.78s-7.69,2.53-11.89,5c4.2-2.43,10.24-7.86,10.24-7.82Z"/><path class="cls-2" d="M111.86,637.64a3.39,3.39,0,1,1-3.39-3.39A3.38,3.38,0,0,1,111.86,637.64Z"/><path class="cls-2" d="M33.52,487.75a3.39,3.39,0,1,1-3.38-3.39A3.38,3.38,0,0,1,33.52,487.75Z"/><path class="cls-2" d="M96.4,235A3.39,3.39,0,1,1,93,231.66,3.38,3.38,0,0,1,96.4,235Z"/><circle class="cls-5" cx="308.58" cy="683.22" r="6.77"/><path class="cls-3" d="M286.69,345.91a3.8,3.8,0,1,1-3.8-3.8A3.8,3.8,0,0,1,286.69,345.91Z"/><path class="cls-3" d="M267.61,198.82a3.8,3.8,0,1,1-3.8-3.8A3.8,3.8,0,0,1,267.61,198.82Z"/><path class="cls-2" d="M538.78,740.3c-1.86-1.87-11.38-3.48-11.38-3.48s9.52-1.6,11.38-3.47S542.26,722,542.26,722s1.6,9.52,3.47,11.39,11.39,3.47,11.39,3.47-9.52,1.61-11.39,3.48-3.47,11.38-3.47,11.38-1.61-9.51-3.48-11.38Z"/><path class="cls-4" d="M173.83,628.12c-1.28-1.28-7.82-2.38-7.82-2.38s6.54-1.11,7.82-2.39,2.39-7.82,2.39-7.82,1.1,6.54,2.39,7.82,7.82,2.39,7.82,2.39-6.54,1.1-7.82,2.38-2.39,7.83-2.39,7.83-1.1-6.54-2.39-7.83Z"/><path class="cls-4" d="M500.5,329.47c-1.29-1.28-7.83-2.38-7.83-2.38s6.54-1.11,7.83-2.39,2.38-7.83,2.38-7.83,1.11,6.55,2.39,7.83,7.82,2.39,7.82,2.39-6.54,1.1-7.82,2.38-2.39,7.83-2.39,7.83-1.1-6.54-2.38-7.83Z"/><path class="cls-4" d="M588.1,178.53c-1.53-1.52-9.3-2.83-9.3-2.83s7.77-1.31,9.3-2.83,2.83-9.3,2.83-9.3,1.31,7.77,2.83,9.3,9.29,2.83,9.29,2.83-7.76,1.31-9.29,2.83-2.83,9.29-2.83,9.29-1.31-7.76-2.83-9.29Z"/><path class="cls-4" d="M753.37,507.12c-1.52-1.53-9.29-2.84-9.29-2.84s7.77-1.31,9.29-2.83,2.84-9.29,2.84-9.29,1.31,7.77,2.83,9.29,9.29,2.83,9.29,2.83-7.77,1.31-9.29,2.84-2.83,9.29-2.83,9.29-1.32-7.77-2.84-9.29Z"/><path class="cls-2" d="M665.53,177.13s-5.5-4.91-9.33-7.12c3.83,2.21,10.87,4.5,10.83,4.52s1.5-7.22,1.5-11.64c0,4.42,1.54,11.66,1.51,11.64s7-2.31,10.83-4.52c-3.83,2.21-9.33,7.16-9.33,7.12s5.5,4.91,9.33,7.12C677,182,670,179.75,670,179.73s-1.51,7.22-1.51,11.65c0-4.43-1.53-11.67-1.5-11.65s-7,2.31-10.83,4.52c3.83-2.21,9.33-7.16,9.33-7.12Z"/><path class="cls-2" d="M748.55,276.28a3.09,3.09,0,1,1-3.09-3.09A3.08,3.08,0,0,1,748.55,276.28Z"/><circle class="cls-5" cx="119.09" cy="288.62" r="3.08"/><path class="cls-2" d="M456.8,726.69a3.09,3.09,0,1,1-3.08-3.08A3.08,3.08,0,0,1,456.8,726.69Z"/><path class="cls-2" d="M652.93,294.78a6.17,6.17,0,1,1-6.16-6.16A6.16,6.16,0,0,1,652.93,294.78Z"/><path class="cls-2" d="M502.06,668.86a6.17,6.17,0,1,1-6.16-6.17A6.16,6.16,0,0,1,502.06,668.86Z"/><path class="cls-3" d="M587,378.94a3.46,3.46,0,1,1-3.46-3.46A3.46,3.46,0,0,1,587,378.94Z"/><path class="cls-3" d="M747,204.57a3.46,3.46,0,1,1-3.46-3.46A3.46,3.46,0,0,1,747,204.57Z"/><path class="cls-2" d="M596.5,75.2c-.7-.71-4.29-1.31-4.29-1.31s3.59-.61,4.29-1.31,1.31-4.3,1.31-4.3.61,3.59,1.31,4.3,4.3,1.31,4.3,1.31-3.59.6-4.3,1.31-1.31,4.3-1.31,4.3-.6-3.6-1.31-4.3Z"/><path class="cls-2" d="M555.4,136.23c-.71-.7-4.3-1.31-4.3-1.31s3.59-.61,4.3-1.31,1.31-4.3,1.31-4.3.6,3.59,1.31,4.3,4.29,1.31,4.29,1.31-3.59.61-4.29,1.31-1.31,4.3-1.31,4.3-.61-3.59-1.31-4.3Z"/><path class="cls-2" d="M733.29,476.28a.91.91,0,0,1,1-.5,2.49,2.49,0,0,0,1.64-.68c14.3-11.09,26.5-45.25,16.5-64.19.18,1.88.4,4.56.65,8.35.41,6.38-7.42,21.53-13.72,33.71-3.65,7.07-7.43,14.38-7.37,16a.94.94,0,0,1-.28.71.86.86,0,0,1-.7.27c-7.09-.57-24.26,9.34-39.31,18l-5.22,3c-8.49,4.85-14.67,9.72-18.36,14.46a.91.91,0,0,1-.9.33,18.41,18.41,0,0,0-3.8-.35c-6,0-13.61,2.06-21.56,5.82-6.16,2.88-21.51,10.32-31.05,17.07a.9.9,0,0,1-.87.1.92.92,0,0,1-.55-.7,55.55,55.55,0,0,0-2-7.93C602.32,521.5,576,530.16,556.85,531c-.7,0-1.38.08-2.06.16a.92.92,0,0,1-.85-.37,1,1,0,0,1-.09-.92,220.59,220.59,0,0,0,9.81-25.33.89.89,0,0,1,.87-.64H565c21.79,0,54.55-9.07,62-12.74,2.5-1.22,3.92-3.64,4.22-7.18a.9.9,0,0,1,.65-.8c12.1-3.49,33.2-15.46,38.28-21.69,1.89-2.3,4.11-4.66,6.25-6.95,2.31-2.46,4.49-4.79,6.22-7a.92.92,0,0,1,.54-.32c6.64-1.24,27.46-33,32.29-49.3a69.53,69.53,0,0,0,3.2-17.77.92.92,0,0,1,.26-.63c.18-.2.25-.29.34-.37,10.88-14.31,13.9-50.49-.63-66.21.66,1.78,1.57,4.34,2.79,8,2,6.05-1.66,22.71-4.63,36.11-1.34,6.08-2.5,11.34-2.92,14.6a.92.92,0,0,1-.5.7c-6.38,3.17-16.18,21.77-24.06,36.71L686.66,414c-4.74,8.91-7.47,16.8-7.9,22.82a.9.9,0,0,1-.77.83c-6.07.93-14,5.19-21.71,11.7-5,4.23-17.55,15-25.12,23.94a.93.93,0,0,1-.89.3.9.9,0,0,1-.68-.64,55.77,55.77,0,0,0-1.9-5.42c-5,2.1-30.59,12.69-49.6,15a52.46,52.46,0,0,0-8.15,1.62.91.91,0,0,1-.85-.2.9.9,0,0,1-.29-.82,82,82,0,0,0,1.05-12.21,37.26,37.26,0,0,0-3.57-15.18.9.9,0,0,1,.57-1.24l.27-.09,2.61-.78c13.24-4.3,53.61-17.41,53.83-27.25a9.48,9.48,0,0,0-.26-2.49.91.91,0,0,1,.66-1.08,134.38,134.38,0,0,0,16.55-5.3c18.67-7.44,21.81-33.85,22.29-44.86.89-20.38-4.17-39.08-9.11-41.57a9.56,9.56,0,0,0-3.67-.41,79.79,79.79,0,0,0-9.07.67.93.93,0,0,1-.77-.28.92.92,0,0,1-.23-.79c5.1-28.13-14.75-82.82-17.09-89.11l-12.41.08a.77.77,0,0,1-.7-.32c-.2-.23-20.45-23.31-59.08-28.25a82.8,82.8,0,0,0-10.33-.64c-27.62,0-54.16,13.19-64.38,18.92a203.33,203.33,0,0,1,32.44-3A85.28,85.28,0,0,1,529,230c18.68,4.73,41,20.62,44.14,31.49.81,2.75.36,5.16-1.31,6.94a8.51,8.51,0,0,1-6.51,2.89c-5.12,0-11.16-3.77-18.8-8.55a153.18,153.18,0,0,0-18.24-10.21c-6.89-3.11-15.06-4.69-24.27-4.69a87.88,87.88,0,0,0-17.9,1.9c12,6,66.7,34.07,84.73,56.41,14.55,18,21,24.78,32.83,36a.91.91,0,0,1,.28.73c-.25,3.35,1.11,8.15,2.67,13.71,3.72,13.18,8.34,29.58-3.68,41.16a.91.91,0,0,1-1.14.1,26.94,26.94,0,0,0-3.77-2.18,4.72,4.72,0,0,0-2-.37c-11.35,0-41.59,22.25-48.61,33.94a.91.91,0,0,1-.65.44.93.93,0,0,1-.75-.23c-17-15.67-41.95-30.55-68.44-40.86a.87.87,0,0,1-.53-.56.91.91,0,0,1,.09-.77,72.42,72.42,0,0,1,5.11-7.1.93.93,0,0,1,.54-.33c.46-.08.88-.16,1.34-.27a23,23,0,1,0-24.93-34.39,23,23,0,0,0,5.72,30.36.92.92,0,0,1,.36.8l0,.33c-.16,2-.32,4-.59,6.19a1,1,0,0,1-.41.66,1,1,0,0,1-.77.1c-17.43-5.56-33.85-8.49-47.48-8.49s-30.06,2.93-47.49,8.49a.92.92,0,0,1-1.18-.77c-.25-2.31-.45-4.45-.62-6.51a.92.92,0,0,1,.36-.8,22.7,22.7,0,0,0,8.48-13,23,23,0,1,0-27.66,17c.44.12.86.19,1.28.27a1,1,0,0,1,.57.33,72.42,72.42,0,0,1,5.11,7.1.91.91,0,0,1,.09.77.89.89,0,0,1-.53.56C327.87,399,302.94,413.88,286,429.5a.89.89,0,0,1-.75.24.92.92,0,0,1-.65-.43c-7.05-11.69-37.32-33.95-48.65-33.95a4.64,4.64,0,0,0-2,.37,22.71,22.71,0,0,0-3.72,2.18.92.92,0,0,1-1.16-.1c-12-11.58-7.42-28-3.71-41.17,1.56-5.56,2.91-10.35,2.66-13.7a.91.91,0,0,1,.28-.73c12-11.36,18.44-18.15,32.87-36,18-22.37,72.66-50.4,84.69-56.41a88,88,0,0,0-17.9-1.9c-9.21,0-17.37,1.58-24.27,4.69a152.35,152.35,0,0,0-18.18,10.19c-7.67,4.79-13.72,8.57-18.85,8.57a8.52,8.52,0,0,1-6.52-2.89c-1.67-1.78-2.12-4.19-1.31-6.94C262,250.64,284.3,234.75,303,230a85.28,85.28,0,0,1,20.61-2.15,203.48,203.48,0,0,1,32.45,3C345.83,225.15,319.3,212,291.66,212a82.68,82.68,0,0,0-10.33.64c-38.6,4.94-58.89,28-59.09,28.25a.86.86,0,0,1-.69.32l-12.42-.08c-2.33,6.29-22.15,61-17.09,89.11a.92.92,0,0,1-.23.79.93.93,0,0,1-.77.28,79.79,79.79,0,0,0-9.06-.67c-2.56,0-3.39.28-3.63.41-5,2.48-10,21.16-9.15,41.52.47,11,3.59,37.47,22.28,44.91a134.38,134.38,0,0,0,16.55,5.3.91.91,0,0,1,.66,1.08,9.42,9.42,0,0,0-.26,2.47c.27,9.88,40.63,23,53.9,27.28l2.84.86a.89.89,0,0,1,.58.49.92.92,0,0,1,0,.76,36.57,36.57,0,0,0-3.61,15.17,82,82,0,0,0,1.05,12.21.9.9,0,0,1-.29.82.91.91,0,0,1-.85.2,50.17,50.17,0,0,0-8.15-1.61c-19-2.29-44.65-12.88-49.6-15a55.77,55.77,0,0,0-1.9,5.42.9.9,0,0,1-.68.64.93.93,0,0,1-.89-.3c-7.57-8.9-20.09-19.71-25.12-23.94-7.72-6.51-15.64-10.77-21.71-11.7a.9.9,0,0,1-.77-.83c-.43-6-3.16-13.91-7.9-22.82l-2.71-5.13c-7.81-14.84-17.54-33.3-23.89-36.46a.92.92,0,0,1-.5-.7c-.42-3.27-1.59-8.54-2.94-14.65-3-13.38-6.67-30-4.65-36.06,1.22-3.63,2.13-6.19,2.79-8-14.55,15.73-11.5,51.92-.5,66.3l-.59.74.7-.59a2.47,2.47,0,0,1,.21.27.91.91,0,0,1,.15.48A73.26,73.26,0,0,0,116.6,398c4.88,16.28,25.69,48.07,32.29,49.3a.92.92,0,0,1,.54.32c1.7,2.13,3.84,4.41,6.11,6.82s4.45,4.75,6.36,7.08c5.06,6.23,26.17,18.19,38.28,21.7a.9.9,0,0,1,.65.8c.3,3.54,1.72,6,4.21,7.17,7.44,3.68,40.22,12.76,62,12.75h.43a.9.9,0,0,1,.87.65,204.08,204.08,0,0,0,9.81,25.32.92.92,0,0,1-.09.92.93.93,0,0,1-.84.37c-.72-.08-1.4-.12-2.12-.16-19.09-.85-45.44-9.52-50.52-11.24a54.29,54.29,0,0,0-2,7.93.92.92,0,0,1-.55.7.91.91,0,0,1-.87-.1c-9.46-6.69-24.83-14.17-31-17.07-8-3.76-15.65-5.82-21.6-5.82a18.41,18.41,0,0,0-3.8.35.91.91,0,0,1-.9-.33c-3.69-4.74-9.87-9.61-18.36-14.46-1.74-1-3.52-2-5.33-3.07-15-8.65-32-18.53-39.2-17.95a.87.87,0,0,1-.69-.24.92.92,0,0,1-.29-.66c.06-1.7-3.72-9-7.37-16.08-6.3-12.18-14.13-27.33-13.72-33.71.25-3.79.47-6.47.65-8.35-10,18.94,2.2,53.1,16.49,64.19a2.71,2.71,0,0,0,1.49.7,1.11,1.11,0,0,1,1.15.48c2.21,4.6,7.32,10.61,14,16.49,12.06,10.55,44.36,25.87,52.78,24.69a1,1,0,0,1,.64.15c1.8,1.23,3.78,2.46,5.88,3.76,2.71,1.69,5.51,3.43,8,5.2,6.4,4.63,29.12,10.6,41.93,11a.9.9,0,0,1,.84.64,7.27,7.27,0,0,0,4.34,5.08c7.06,2.88,34.19,8.38,55.61,8.38,2.24,0,4.37-.06,6.33-.19a1,1,0,0,1,.84.44,197.28,197.28,0,0,0,13.84,20.18.91.91,0,0,1-.9,1.45c-24.11-5-43.85-11.73-49-15.33a4.43,4.43,0,0,0-2.47-.92c-1.76,0-3.31,1.72-4.26,4.72a.92.92,0,0,1-1.11.6c-9.91-2.66-21.14-4.65-26.95-5.6a71,71,0,0,0-11.41-1c-6.65,0-12.11,1.13-15.36,3.18a.9.9,0,0,1-.73.11,19,19,0,0,0-4.75-.47c-13.19,0-40.22,6.73-51.65,12.87-11.86,6.37-18.67,13.05-19.27,16.35-.12.68.09.92.16,1a.91.91,0,0,1,.12,1,3.43,3.43,0,0,0-.21.69c-4.55,17.54,6.67,52,26.16,60.89-1.29-1.37-3.1-3.36-5.61-6.2-4.23-4.79-7.29-21.56-9.75-35-1.42-7.81-2.9-15.9-3.94-17.18a.89.89,0,0,1-.12-.95.92.92,0,0,1,.79-.54c9-.39,24.27-5.1,37.78-9.25l5.44-1.66c14.56-4.4,21.06-9.31,24-12.65a.91.91,0,0,1,1.24-.13c4.72,3.55,14.95,6.46,27.37,7.78a149.5,149.5,0,0,0,27.67,0,.91.91,0,0,1,.92.53,10.84,10.84,0,0,0,5.85,6c19.42,7.43,39.78,11,62.24,11,2.2,0,4.45,0,6.75-.11a.86.86,0,0,1,.65.24c2.8,2.57,5.73,5.07,8.94,7.63a.93.93,0,0,1,.31.95.91.91,0,0,1-.75.66c-20,3-35.09,4.46-47.53,4.46h0c-10.07,0-18.33-1-24.55-2.93-8.66-2.69-14.74-2.44-17.29.68-1.68,2.07-1.53,5-1.11,7a.9.9,0,0,1-.14.69.91.91,0,0,1-.58.39c-8.1,1.62-19.37,7.41-27,25.71-9.53,22.76-12.63,38.17-9.2,45.81a.93.93,0,0,1,0,.8,2.88,2.88,0,0,0-.07,1.78c4,18.71,28.75,42.87,49.65,42.87l.87,0c-1.77-.65-4.28-1.63-7.78-3.06-5.92-2.42-16.1-16.08-24.29-27-2.73-3.65-5.31-7.11-7.33-9.62a.89.89,0,0,1,.2-1.32c8-5.38,13.9-28.78,18.19-45.86,2.36-9.38,4.06-16.16,5.62-18.3,1.35-1.9,3.63-2.94,5.46-3.64a.9.9,0,0,1,1,.29c2.78,3.54,6.11,5.9,9.14,6.48a166.27,166.27,0,0,0,30.78,2.77,202.77,202.77,0,0,0,57.7-8.62c5.29-1.59,10.11-3.23,14.33-4.9a.94.94,0,0,1,.68,0c14.64,6.06,35.59,9.53,57.47,9.53s42.84-3.47,57.5-9.53a.94.94,0,0,1,.68,0c4.18,1.67,9,3.31,14.33,4.9a202.52,202.52,0,0,0,57.67,8.62A166.16,166.16,0,0,0,577,628c3-.58,6.36-2.94,9.14-6.48a.91.91,0,0,1,1-.29,11.6,11.6,0,0,1,5.47,3.65c1.55,2.13,3.25,8.91,5.61,18.29,4.3,17.08,10.18,40.48,18.19,45.86a.88.88,0,0,1,.4.61.9.9,0,0,1-.19.71c-2,2.46-4.48,5.82-7.14,9.37-8.25,11.08-18.53,24.86-24.49,27.3-3.5,1.43-6,2.41-7.78,3.06,21.09.68,46.5-23.88,50.53-42.87a2.89,2.89,0,0,0-.08-1.76.93.93,0,0,1,0-.8c3.43-7.64.33-23-9.2-45.8-7.66-18.31-18.9-24.09-27-25.72a.92.92,0,0,1-.72-1.07c.41-2.07.55-5-1.15-7-2.56-3.12-8.63-3.37-17.29-.68-6.21,2-14.46,2.93-24.54,2.93-12.45,0-27.56-1.42-47.55-4.46a.91.91,0,0,1-.75-.66.93.93,0,0,1,.31-.95c3.21-2.56,6.14-5.06,8.94-7.63a.88.88,0,0,1,.65-.24c2.3.08,4.55.11,6.75.11,22.46,0,42.82-3.61,62.24-11a10.84,10.84,0,0,0,5.85-6,.89.89,0,0,1,.92-.53,149.49,149.49,0,0,0,27.67,0c12.42-1.32,22.65-4.23,27.37-7.78a.91.91,0,0,1,1.24.12c2.93,3.36,9.46,8.28,24,12.66l5.44,1.66c13.51,4.15,28.83,8.86,37.78,9.25a.9.9,0,0,1,.79.54.89.89,0,0,1-.11.94c-1,1.28-2.49,9.3-3.91,17.05-2.47,13.53-5.55,30.37-9.79,35.18-2.52,2.86-4.34,4.85-5.64,6.23,19.85-8.82,30.86-42.92,26.24-60.89a3.53,3.53,0,0,0-.26-.72.91.91,0,0,1,.13-1c.07-.08.28-.32.16-1-.58-3.29-7.39-10-19.28-16.35-11.43-6.14-38.46-12.87-51.65-12.87a19,19,0,0,0-4.75.47.9.9,0,0,1-.73-.11c-5-3.17-15.46-4.06-26.77-2.21-5.81,1-17,2.94-27,5.6a.91.91,0,0,1-1.11-.6c-.95-3-2.5-4.72-4.25-4.72a4.35,4.35,0,0,0-2.44.92c-5.14,3.59-24.87,10.3-49,15.33a.91.91,0,0,1-1-.41.9.9,0,0,1,.06-1A210.76,210.76,0,0,0,542.16,552a1,1,0,0,1,.84-.44c2,.13,4.08.19,6.32.19,21.43,0,48.56-5.5,55.61-8.37a7.32,7.32,0,0,0,4.31-5.09.91.91,0,0,1,.84-.64c12.84-.43,35.57-6.41,41.92-11,2.4-1.73,5.15-3.43,7.81-5.08,2.16-1.34,4.2-2.61,6-3.88a1,1,0,0,1,.64-.15c8.45,1.16,40.77-14.15,52.78-24.69C726,486.89,731.08,480.88,733.29,476.28ZM608.76,249.64a.91.91,0,0,1,1.81.14c0,20.77,17.09,67.24,17.26,67.71a.91.91,0,0,1-.33,1.06.91.91,0,0,1-1.11,0C626.15,318.3,601.71,297.4,608.76,249.64ZM205.6,318.51a.91.91,0,0,1-1.11,0,.91.91,0,0,1-.33-1.06c.17-.47,17.3-46.95,17.3-67.71a.91.91,0,0,1,1.81-.14C230.32,297.4,205.84,318.3,205.6,318.51Zm262.21,32a12.85,12.85,0,0,1,8-5.79,13.22,13.22,0,0,1,3-.35A12.86,12.86,0,0,1,485,368.5a1,1,0,0,1-.44.11.91.91,0,0,1-.65-1.55,8,8,0,1,0-13.61-3.72,8.48,8.48,0,0,0,.73,1.86.91.91,0,0,1-1.43,1.1,12.15,12.15,0,0,1-3.37-6.08A12.67,12.67,0,0,1,467.81,350.53Zm-114,2.9a8,8,0,0,0-5.74,13.64.91.91,0,0,1-.66,1.54.88.88,0,0,1-.44-.12,12.87,12.87,0,0,1,6.28-24.1,13.2,13.2,0,0,1,3,.35,12.94,12.94,0,0,1,9.54,15.5,12.77,12.77,0,0,1-3.36,6.05.91.91,0,0,1-1.46-1.05,8.16,8.16,0,0,0,.7-1.88,8.06,8.06,0,0,0-7.85-9.93Zm35.58,255.85a.89.89,0,0,1-.74.39.83.83,0,0,1-.22,0C359.3,602.38,332,582.8,309.33,553c-28.31-37.2-33.91-68.34-29.7-85.08,1.92-7.68,6-13.13,11.74-15.76a.92.92,0,0,1,1.1,1.4c-14.32,18-6.19,43.93,3.16,62.53,10.86,21.62,29.22,44.7,47.91,60.24,7,5.79,17.29,12.28,26.38,18,9.85,6.21,17.63,11.11,19.47,13.9A.9.9,0,0,1,389.37,609.28ZM416,423c-10.06,0-17.08-4.47-25-16a.91.91,0,0,1,1.34-1.21,40.15,40.15,0,0,0,23.53,9c5.21,0,16.29-2.43,23.86-9A.91.91,0,0,1,441,407C433.11,418.51,426.09,423,416,423ZM519.67,553c-22.68,29.8-50,49.38-79.08,56.63l-.22,0a.89.89,0,0,1-.74-.39.9.9,0,0,1,0-1c1.83-2.8,9.63-7.72,19.51-14,9.06-5.72,19.32-12.19,26.3-18C522,545.9,561.3,484.67,536.49,453.57a.91.91,0,0,1,1.09-1.4c5.76,2.63,9.82,8.08,11.75,15.75C553.53,484.66,548,515.8,519.67,553Z"/><path class="cls-6" d="M504.54,101.91a55.88,55.88,0,0,0-10.88-16.43,72.59,72.59,0,0,0-7-6.54c-1.22-1-2.41-2-3.75-2.92s-2.25-1.63-3.78-2.62a85.17,85.17,0,0,0-33.7-12.85,106.63,106.63,0,0,0-33.09,0,135.85,135.85,0,0,0-14.83,3c-4.7,1.3-9.17,2.71-13.37,4.3a156.86,156.86,0,0,0-37.86,20.37c-4.19,3-7.27,5.72-9.4,7.53l-3.07,2.82a2.43,2.43,0,0,0,3,3.8l3.45-2.34c2.21-1.44,5.48-3.54,9.8-6s9.65-5.22,15.92-8a176.89,176.89,0,0,1,21.55-7.92c4-1.21,8.26-2.21,12.66-3.1A129.54,129.54,0,0,1,413.89,73a104.5,104.5,0,0,1,14.43-.45,89.67,89.67,0,0,1,14.78,1.55,78,78,0,0,1,23.73,8.67h-1A52.91,52.91,0,0,0,453.71,84a41.27,41.27,0,0,0-8.48,2.88,32,32,0,0,0-16.08,16.58,35.65,35.65,0,0,0-2.75,13.74,44.58,44.58,0,0,0,10.71,29A42.59,42.59,0,0,0,451,156.9a40.35,40.35,0,0,0,8.77,3,34.54,34.54,0,0,0,4.74.74l1.26.11,1,0,.5,0h1.9a39.17,39.17,0,0,0,18.88-5.21,40,40,0,0,0,14.35-14.13,42.07,42.07,0,0,0,5.81-19.58A46,46,0,0,0,504.54,101.91ZM490.4,134.48a27.11,27.11,0,0,1-9.15,9.72,26,26,0,0,1-12.48,4l-.83,0s-.23,0,.06,0h-1.89l-.76,0a32,32,0,0,1-3.21-.35,28.65,28.65,0,0,1-6.28-1.74,31.34,31.34,0,0,1-10.57-7.26,35.94,35.94,0,0,1-9.86-21.88,29.45,29.45,0,0,1,1.19-10.69,24.67,24.67,0,0,1,4.68-8.5,31.68,31.68,0,0,1,13.77-9,53.56,53.56,0,0,1,11-2.54c1.31-.18,2.33-.27,3-.34l1-.1h.06a1.35,1.35,0,0,0,.86-.41l.18.11c8.69,5.72,16.14,13.36,20,22.22a31.53,31.53,0,0,1,2.82,13.73A28.05,28.05,0,0,1,490.4,134.48Z"/><path class="cls-6" d="M495.14,165.89l-3.45,2.34c-2.21,1.44-5.48,3.54-9.8,6s-9.65,5.22-15.92,8a177,177,0,0,1-21.55,7.91c-4,1.21-8.26,2.22-12.66,3.1a132.18,132.18,0,0,1-13.66,2.09,107.73,107.73,0,0,1-14.43.45,90.79,90.79,0,0,1-14.78-1.56,78,78,0,0,1-23.73-8.67h1a53.49,53.49,0,0,0,12.15-1.22,42,42,0,0,0,8.48-2.89,32,32,0,0,0,16.08-16.58,35.65,35.65,0,0,0,2.75-13.74,44.6,44.6,0,0,0-10.71-29A42.59,42.59,0,0,0,381,111.43a40.89,40.89,0,0,0-8.77-3,36.14,36.14,0,0,0-4.74-.74l-1.26-.1-1,0-.5,0h-1.9a39,39,0,0,0-18.88,5.2,40,40,0,0,0-14.35,14.13,42.07,42.07,0,0,0-5.81,19.58,46,46,0,0,0,3.69,20,55.93,55.93,0,0,0,10.88,16.44,72.48,72.48,0,0,0,7,6.53c1.22,1,2.41,2,3.75,2.92s2.25,1.63,3.78,2.62a85.34,85.34,0,0,0,33.7,12.86,106.93,106.93,0,0,0,33.09,0,138.27,138.27,0,0,0,14.83-3c4.69-1.3,9.17-2.71,13.37-4.31a148.67,148.67,0,0,0,22.12-10.25A149.57,149.57,0,0,0,485.68,180c4.19-3,7.27-5.72,9.4-7.53l3.07-2.82a2.43,2.43,0,0,0-3-3.8Zm-154.38-5.18A31.6,31.6,0,0,1,337.94,147a28.19,28.19,0,0,1,3.64-13.12,27.22,27.22,0,0,1,9.16-9.72,26.13,26.13,0,0,1,12.48-4l.83,0s.23,0-.06,0h1.89l.76.05a29.25,29.25,0,0,1,3.21.34,28.67,28.67,0,0,1,6.28,1.75,31.2,31.2,0,0,1,10.57,7.26,35.91,35.91,0,0,1,9.86,21.88,29.18,29.18,0,0,1-1.2,10.68,24.63,24.63,0,0,1-4.67,8.51,31.74,31.74,0,0,1-13.77,9,53.56,53.56,0,0,1-11,2.54c-1.31.18-2.33.28-3,.34l-1,.1h-.05a1.45,1.45,0,0,0-.86.41l-.18-.11C352.09,177.2,344.64,169.56,340.76,160.71Z"/></g></g></svg>
