<svg xmlns="http://www.w3.org/2000/svg" viewBox="0 0 832.09 832.09"><defs><style>.cls-1{fill:#221e1f;}.cls-2{fill:#FFDD57;}.cls-2,.cls-3,.cls-4{fill-rule:evenodd;}.cls-3{fill:#fff;}.cls-4,.cls-5{fill:#FFDD57;}</style></defs><title>Element 5</title><g id="Ebene_2" data-name="Ebene 2"><g id="Layer_3" data-name="Layer 3"><circle class="cls-1" cx="416.05" cy="416.05" r="415.99"/><path class="cls-2" d="M669.23,538.68a5.45,5.45,0,1,0,4.66,6.14A5.45,5.45,0,0,0,669.23,538.68Z"/><path class="cls-2" d="M76,504.73a5.45,5.45,0,1,0,4.66,6.14A5.45,5.45,0,0,0,76,504.73Z"/><path class="cls-3" d="M756.38,466.45c1.76,2.32,2.08,12.91,2.08,12.91s3.17-10.11,5.48-11.87,12.91-2.07,12.91-2.07-10.11-3.17-11.87-5.49-2.07-12.9-2.07-12.9-3.17,10.11-5.49,11.87-12.9,2.07-12.9,2.07,10.11,3.17,11.86,5.48Z"/><path class="cls-4" d="M670,657.32c1.43,1.88,1.7,10.53,1.7,10.53s2.58-8.25,4.47-9.68,10.53-1.7,10.53-1.7-8.25-2.59-9.68-4.47-1.69-10.53-1.69-10.53-2.59,8.25-4.48,9.68-10.53,1.69-10.53,1.69,8.25,2.59,9.68,4.48Z"/><path class="cls-4" d="M131.56,596c1.21,1.59,1.43,8.87,1.43,8.87s2.18-7,3.77-8.16,8.87-1.42,8.87-1.42-6.95-2.18-8.16-3.77-1.42-8.87-1.42-8.87-2.18,7-3.77,8.16-8.87,1.42-8.87,1.42,7,2.18,8.15,3.77Z"/><path class="cls-3" d="M296.75,742.75a71.68,71.68,0,0,1,5.16,9.12,72.14,72.14,0,0,1-2.68-10.13,70.89,70.89,0,0,1,10.48.09,70.05,70.05,0,0,1-10.11-2.75,70.87,70.87,0,0,1,5.31-9,70.73,70.73,0,0,1-7.43,7.39,71.68,71.68,0,0,1-5.16-9.12A70.67,70.67,0,0,1,295,738.45a70.89,70.89,0,0,1-10.48-.09,70.05,70.05,0,0,1,10.11,2.75,70.3,70.3,0,0,1-5.31,9,72.36,72.36,0,0,1,7.43-7.38Z"/><path class="cls-3" d="M707.9,494.51a69.16,69.16,0,0,1,5.16,9.12,71.54,71.54,0,0,1-2.67-10.13,70.73,70.73,0,0,1,10.47.09,70.46,70.46,0,0,1-10.11-2.75,71.61,71.61,0,0,1,5.31-9,71.31,71.31,0,0,1-7.43,7.38,71.68,71.68,0,0,1-5.16-9.12,70.67,70.67,0,0,1,2.68,10.13,70.75,70.75,0,0,1-10.47-.09,70.46,70.46,0,0,1,10.11,2.75,72.17,72.17,0,0,1-5.32,9,72.36,72.36,0,0,1,7.43-7.38Z"/><path class="cls-3" d="M567.46,688.41a71.28,71.28,0,0,1,5.16,9.11,70.32,70.32,0,0,1-2.68-10.12,70.32,70.32,0,0,1,10.48.08,68.76,68.76,0,0,1-10.11-2.74,70.15,70.15,0,0,1,5.31-9,71.77,71.77,0,0,1-7.43,7.39A70.4,70.4,0,0,1,563,674a70.1,70.1,0,0,1,2.67,10.13,70.73,70.73,0,0,1-10.47-.09,72.42,72.42,0,0,1,10.11,2.74,70.15,70.15,0,0,1-5.31,9,69.2,69.2,0,0,1,7.43-7.38Z"/><path class="cls-3" d="M134.34,494.35s4.52,6.72,6.35,11.22c-1.83-4.5-3.27-12.5-3.29-12.46s8.08-.56,12.89.11c-4.81-.67-12.46-3.42-12.44-3.38s3.56-7.27,6.54-11.11c-3,3.84-9.19,9.08-9.15,9.09s-4.52-6.72-6.35-11.22c1.83,4.5,3.27,12.5,3.29,12.46s-8.07.55-12.89-.11c4.82.66,12.46,3.42,12.44,3.38s-3.55,7.27-6.53,11.11c3-3.84,9.18-9.08,9.14-9.09Z"/><path class="cls-3" d="M125.22,224.43s4.52,6.72,6.36,11.21c-1.84-4.49-3.27-12.49-3.3-12.46s8.08-.55,12.89.11c-4.81-.66-12.46-3.42-12.44-3.38s3.56-7.27,6.54-11.11c-3,3.84-9.19,9.08-9.15,9.09s-4.52-6.72-6.35-11.22c1.83,4.5,3.27,12.5,3.3,12.46s-8.08.56-12.9-.11c4.82.67,12.46,3.42,12.45,3.38s-3.56,7.28-6.54,11.11c3-3.83,9.19-9.08,9.14-9.08Z"/><path class="cls-3" d="M155,687.15a3.39,3.39,0,1,0,2.89,3.81A3.39,3.39,0,0,0,155,687.15Z"/><path class="cls-3" d="M325.45,775.87a3.39,3.39,0,1,0,2.89,3.81A3.39,3.39,0,0,0,325.45,775.87Z"/><path class="cls-3" d="M606.81,719.79a3.39,3.39,0,1,0,2.89,3.82A3.38,3.38,0,0,0,606.81,719.79Z"/><path class="cls-3" d="M314.15,667.57a6.77,6.77,0,1,0,5.79,7.64A6.77,6.77,0,0,0,314.15,667.57Z"/><path class="cls-2" d="M722.2,558a3.8,3.8,0,1,0,3.25,4.28A3.79,3.79,0,0,0,722.2,558Z"/><path class="cls-2" d="M611,592.64a3.8,3.8,0,1,0,3.25,4.28A3.79,3.79,0,0,0,611,592.64Z"/><path class="cls-3" d="M243.7,634.06c1.59,2.11,1.89,11.76,1.89,11.76s2.89-9.21,5-10.81,11.76-1.89,11.76-1.89-9.22-2.89-10.81-5-1.89-11.75-1.89-11.75-2.89,9.21-5,10.8-11.76,1.89-11.76,1.89,9.21,2.89,10.81,5Z"/><path class="cls-4" d="M596.6,630.93c1.1,1.44,1.3,8.07,1.3,8.07s2-6.33,3.43-7.42,8.07-1.3,8.07-1.3-6.32-2-7.42-3.43-1.3-8.08-1.3-8.08-2,6.33-3.43,7.43-8.08,1.3-8.08,1.3,6.33,2,7.43,3.43Z"/><path class="cls-4" d="M746.74,386.38c1.3,1.72,1.54,9.59,1.54,9.59s2.36-7.51,4.07-8.82,9.59-1.54,9.59-1.54-7.51-2.36-8.81-4.07-1.55-9.59-1.55-9.59-2.35,7.51-4.07,8.81-9.59,1.55-9.59,1.55,7.51,2.35,8.82,4.07Z"/><path class="cls-4" d="M553.44,83.35c1.3,1.71,1.54,9.59,1.54,9.59s2.36-7.52,4.08-8.82,9.59-1.54,9.59-1.54-7.52-2.36-8.82-4.08-1.54-9.59-1.54-9.59-2.36,7.52-4.08,8.82-9.59,1.54-9.59,1.54,7.52,2.36,8.82,4.08Z"/><path class="cls-3" d="M686.68,201.39s4.12,6.11,5.79,10.21c-1.67-4.1-3-11.38-3-11.35s7.36-.5,11.74.1c-4.38-.6-11.34-3.11-11.33-3.07s3.24-6.63,6-10.12c-2.72,3.49-8.37,8.27-8.33,8.27s-4.11-6.12-5.78-10.21c1.67,4.09,3,11.38,3,11.35s-7.36.5-11.74-.1c4.38.6,11.34,3.11,11.33,3.07s-3.24,6.63-6,10.12c2.72-3.49,8.37-8.27,8.33-8.27Z"/><path class="cls-3" d="M599.77,105.63a3.08,3.08,0,1,0,2.64,3.48A3.08,3.08,0,0,0,599.77,105.63Z"/><path class="cls-3" d="M502.2,724.49a3.08,3.08,0,1,0,2.64,3.47A3.06,3.06,0,0,0,502.2,724.49Z"/><path class="cls-3" d="M113.81,333.29a3.08,3.08,0,1,0,2.63,3.47A3.06,3.06,0,0,0,113.81,333.29Z"/><path class="cls-3" d="M730.74,323.76a6.16,6.16,0,1,0,5.27,6.95A6.15,6.15,0,0,0,730.74,323.76Z"/><path class="cls-3" d="M255.19,63.43a6.16,6.16,0,1,0,5.27,6.94A6.16,6.16,0,0,0,255.19,63.43Z"/><path class="cls-2" d="M63.66,398a3.46,3.46,0,1,0,3,3.9A3.46,3.46,0,0,0,63.66,398Z"/><path class="cls-2" d="M670.6,117a3.46,3.46,0,1,0,2.95,3.9A3.46,3.46,0,0,0,670.6,117Z"/><path class="cls-3" d="M778.26,283.66c.6.79.71,4.43.71,4.43s1.09-3.47,1.89-4.08,4.43-.71,4.43-.71-3.47-1.09-4.08-1.88-.71-4.44-.71-4.44-1.09,3.48-1.88,4.08-4.44.71-4.44.71,3.48,1.09,4.08,1.89Z"/><path class="cls-3" d="M185.69,144.43c.6.8.71,4.44.71,4.44s1.09-3.48,1.89-4.08,4.43-.71,4.43-.71-3.47-1.09-4.08-1.89-.71-4.43-.71-4.43-1.09,3.47-1.88,4.07-4.44.72-4.44.72,3.48,1.09,4.08,1.88Z"/><path class="cls-3" d="M694.28,302.47c-16-37-27-47.51-63.12-61.37a.88.88,0,0,1-.58-.8c-.41-8.91,13.13-30.69,33.61-39.11-24.38-33.32-45.63-43.52-85.83-42.45a.93.93,0,0,1-.68-.28.9.9,0,0,1-.25-.68c.78-14.77,8.93-29.51,21.89-39.69-15-7.29-31.78-13.87-52.77-13.87a108.11,108.11,0,0,0-32.17,5.09.93.93,0,0,1-.75-.09.89.89,0,0,1-.42-.63c-2.18-13.33,3.49-25.53,8-35.33,1.47-3.16,2.86-6.17,3.87-8.92a165,165,0,0,0-21.75-1.44c-17.59,0-41.36,2.91-54.8,16.79a.92.92,0,0,1-.93.24.9.9,0,0,1-.62-.72C444.34,63,426.81,46.45,411.26,39.59c-15.58,6.87-33.12,23.46-35.77,39.62a.89.89,0,0,1-.62.72.92.92,0,0,1-.93-.24C360.5,65.81,336.71,62.9,319.12,62.9a165,165,0,0,0-21.76,1.44c1,2.75,2.4,5.76,3.87,8.92,4.56,9.8,10.22,22,8,35.33a.92.92,0,0,1-.42.63.94.94,0,0,1-.75.09,108.16,108.16,0,0,0-32.17-5.09c-20.94,0-37.76,6.58-52.78,13.87,13,10.18,21.12,24.92,21.9,39.69a.92.92,0,0,1-.93,1c-40.19-1.07-61.45,9.13-85.8,42.45,20.46,8.42,34,30.2,33.58,39.11a.9.9,0,0,1-.58.8c-36.09,13.86-47.07,24.37-63.12,61.37a60.57,60.57,0,0,1,16.67-2.71c15.45,0,22.24,9.09,29.43,18.71l1.07,1.44a.92.92,0,0,1,.16.75.9.9,0,0,1-.48.61c-27.75,14-40.87,43.56-41.21,93.07,15.63-13.14,31.52-19.79,47.24-19.79a53.67,53.67,0,0,1,14.61,2,.88.88,0,0,1,.64.7.9.9,0,0,1-.33.89c-30.55,24-24.8,88.62-5.21,116.39,2.55-4.57,4.52-8.82,6.27-12.61,6-13,10.36-22.43,30.14-29.76a.89.89,0,0,1,.91.16.91.91,0,0,1,.3.88c-10.34,49.46,4.16,71.07,15.8,88.44a138.32,138.32,0,0,1,7.59,12.16c1-3.22,1.81-6.07,2.56-8.61,5.62-19,6.2-21,18-26.85a.9.9,0,0,1,1,.16.89.89,0,0,1,.2,1c-8.05,18.13,11.42,54.35,27.15,64.24,3.78-19.31,4.81-23.56,16.25-33.78a.87.87,0,0,1,.91-.18.89.89,0,0,1,.6.71c3,18.58,18,34.84,27,44.55.9,1,1.74,1.88,2.52,2.74q.6-1.82,1.14-3.51c3.8-11.77,6.55-20.27,21.24-26.55a.91.91,0,0,1,1.25,1c0,.19-3.17,19,17.44,39.74,10.44-23.93,21.28-37.27,21.39-37.4a.91.91,0,0,1,.7-.34,1,1,0,0,1,.71.34c.11.13,10.91,13.47,21.35,37.4C454,607.7,450.83,589,450.79,588.76a.9.9,0,0,1,.33-.87.92.92,0,0,1,.93-.13c14.65,6.28,17.4,14.78,21.19,26.54.37,1.14.75,2.31,1.15,3.52.78-.86,1.62-1.77,2.52-2.74,9-9.71,24-26,27.06-44.55a.91.91,0,0,1,1.51-.53c11.44,10.24,12.45,14.49,16.21,33.78,15.74-9.89,35.2-46.11,27.15-64.24a.91.91,0,0,1,1.24-1.18c11.87,5.87,12.45,7.86,18.06,26.89.74,2.53,1.58,5.37,2.54,8.56a142,142,0,0,1,7.58-12.15c11.65-17.37,26.15-39,15.81-88.45a.9.9,0,0,1,.29-.87.89.89,0,0,1,.91-.16c19.8,7.33,24.14,16.73,30.14,29.74,1.75,3.8,3.72,8.06,6.27,12.63,19.61-27.78,25.35-92.45-5.2-116.39a.93.93,0,0,1-.34-.89.91.91,0,0,1,.65-.7,53.62,53.62,0,0,1,14.61-2c15.72,0,31.62,6.65,47.27,19.79-.33-49.52-13.47-79.12-41.25-93.07a.93.93,0,0,1-.32-1.36l1-1.4c7.21-9.64,14-18.75,29.47-18.75A60.56,60.56,0,0,1,694.28,302.47Zm-95-100.87a191.65,191.65,0,0,1,21.58,1.22.91.91,0,0,1,.14,1.78c-28.82,7.9-63.43,8.31-70.09,8.31h0c-2.55,0-6.92,0-7.53-.31a1,1,0,0,1-.56-1C543.09,209.9,567.28,201.6,599.23,201.6Zm-30.41-74.74a.91.91,0,0,1,.8,1.53c-17,17.88-65.26,40.3-67.76,40.3l-.23,0a1.07,1.07,0,0,1-.77-1C500.91,165.13,528.24,133.2,568.82,126.86ZM490.52,88a.9.9,0,0,1,1.07,0,.92.92,0,0,1,.37,1c-7.23,25-32.75,59.25-35.94,59.25l-.19,0a1.34,1.34,0,0,1-1-1.16C453.53,141.52,459.16,112.84,490.52,88ZM408.88,76.35a1,1,0,0,1,1.68,0c8.46,19.87,4.15,60.17.65,65.47a1.62,1.62,0,0,1-3,0C404.73,136.53,400.42,96.23,408.88,76.35Zm-81,11.57a.89.89,0,0,1,1.07,0c31.36,24.88,37,53.56,35.69,59-.16.67-.49,1.06-1,1.16l-.21,0c-3.18,0-28.68-34.22-35.94-59.24A.91.91,0,0,1,327.85,87.92Zm-78.18,39.42a.93.93,0,0,1,1-.48c40.58,6.34,67.91,38.27,68,40.82a1,1,0,0,1-.79,1,.75.75,0,0,1-.21,0c-2.49,0-50.81-22.42-67.76-40.3A.91.91,0,0,1,249.67,127.34Zm-51,75.48a191.65,191.65,0,0,1,21.58-1.22c32,0,56.18,8.3,56.49,10a1,1,0,0,1-.58,1.05c-.58.26-5,.3-7.51.3-6.65,0-41.3-.41-70.12-8.31a.91.91,0,0,1-.67-.94A.92.92,0,0,1,198.63,202.82Zm-30,80.42a.91.91,0,0,1,0-1.77A173.42,173.42,0,0,1,208,277c23.56,0,40.47,4.74,41.77,6.31a1.15,1.15,0,0,1,.24.85c-.39,2.56-26.05,3.65-36.19,3.65C201.92,287.81,184.47,287,168.66,283.24Zm-1,90.56a1,1,0,0,1-.34.07.93.93,0,0,1-.73-.36.9.9,0,0,1,0-1.1c14.39-19.3,44.45-22.18,61.09-22.18.21,0,20.35.16,20.54,2.72a.92.92,0,0,1-.22.67,1,1,0,0,1-.63.31C234.75,354.65,198.46,361.23,167.61,373.8Zm31.63,95.34a.92.92,0,0,1-.75.39.86.86,0,0,1-.41-.1.91.91,0,0,1-.45-1.1c13.74-41.88,48.88-51.48,53.71-51.48a1.38,1.38,0,0,1,1.24.52,1,1,0,0,1,.06.94c-.21.49-.76.9-4.08,3.25C239.93,427.69,217,444,199.24,469.14Zm79.94.83c-15.91,14.63-25.7,34-29.1,57.6a.91.91,0,0,1-.9.79h0a.91.91,0,0,1-.88-.83c-2.16-26.3,5.85-41,13-48.72,7.27-7.88,15.21-10.45,17.14-10.45a1.07,1.07,0,0,1,.93.42A.9.9,0,0,1,279.18,470Zm23.37,57.56c-6.76,19.1-8.21,33.5-8.24,42.22a.91.91,0,0,1-.79.9h-.12a.92.92,0,0,1-.88-.66c-5.28-19-3.39-28.54,8.78-44.31a.91.91,0,0,1,1.63.63A5.48,5.48,0,0,1,302.55,527.53Zm84.24,37.86c-1.39.8-6.15.86-7.57.86-4.42,0-27.31-.61-44.25-12.79-25.93-18.61-19.4-47.65-18.24-52C314,498.8,298.81,483.63,296.82,473c-.8-4.23-.74-9.7-.67-16,.13-10.74.28-24.11-3.73-37.95-2.09-7.26-5.82-13.91-10.15-21.6-8.57-15.26-19.24-34.25-22.06-68.22C256,278.41,298.74,197.7,334,189.94a75,75,0,0,1,16-1.83c24.25,0,35.16,13.52,35.61,14.1a.92.92,0,0,1,0,1.11.9.9,0,0,1-1.07.29c-10.93-4.42-20.41-6.57-29-6.57-15.23,0-28.19,6.89-39.64,21.08-22.15,27.5-44.64,72.28-41.32,115.5,1.95,25.23,10.83,40.57,18.67,54.1,4.55,7.87,8.85,15.3,11.43,23.86,3.42,11.4,3.95,24.24,4.42,35.56.39,9.43.77,18.34,2.73,24.91,4.13,13.73,13.8,24.89,13.9,25a.87.87,0,0,1,.21.74c0,.17-2.68,17.08,3.75,32.72,6.68,16.27,24.78,27.18,53.79,32.43,3.29.59,3.64.66,3.76,1.44A1,1,0,0,1,386.79,565.39ZM353.9,463.1a4.47,4.47,0,0,1,0-8.94,4.42,4.42,0,0,1,4.47,4.47A4.47,4.47,0,0,1,353.9,463.1Zm4.2,9.45a4.48,4.48,0,0,1-4.47,4.47,4.47,4.47,0,0,1,0-8.94A4.48,4.48,0,0,1,358.1,472.55ZM352.5,388c-10.87,16.11-18.44,41-18.52,41.3a.91.91,0,0,1-.87.65H333a.92.92,0,0,1-.81-.85c-.05-.76-1-19,18.46-51.89,8.26-13.91,13.25-24.72,15.25-33.06a19,19,0,0,0-14.06-22.92,19.18,19.18,0,0,0-4.45-.52,19,19,0,0,0-18.47,14.59,19.18,19.18,0,0,0,11.3,22,.91.91,0,0,1-.51,1.74c-.77-.14-1.53-.28-2.3-.45a28.34,28.34,0,1,1,34.84-29.72C375.83,350.14,363.58,371.66,352.5,388Zm-11.83,64.9a4.49,4.49,0,1,1,4.5-4.47A4.47,4.47,0,0,1,340.67,452.94Zm3.27,9.76a4.47,4.47,0,1,1-4.47-4.5A4.48,4.48,0,0,1,343.94,462.7Zm1-112.36a10.88,10.88,0,0,1-8.06-13.1,10.88,10.88,0,1,1,10.62,13.41A10.61,10.61,0,0,1,344.9,350.34Zm66.36,159.25c-7.64,4.53-18.45,7.23-29.05,7.23-24.6,0-40.06-13.5-41.36-36.11a.92.92,0,0,1,.76-.95.9.9,0,0,1,1,.65C348.24,500,363.92,507,376.73,507c14.37,0,30.25-8.87,31.67-25.32-9.12-6.85-10.78-11.17-12.7-16.18l-.07-.17a34.73,34.73,0,0,1-1.34-6.18c-1-6.08-2.21-13.65-7.86-15-4-1-8.21,1-8.71,3.86-.42,2.38,1.88,4.72,6.15,6.27a.9.9,0,0,1,.59,1c0,.31-.26.84-1.21.84-1.9,0-9.56-1.5-12.54-6.26-1.68-2.69-1.64-5.9.13-9.54,2.19-4.49,6.07-6.67,11.85-6.67.75,0,1.55,0,2.38.11,4.7.41,9,2.47,13.09,4.46,4.42,2.14,8.6,4.15,13.1,4.15s8.65-2,13.06-4.14c4.12-2,8.39-4.06,13.09-4.47.84-.08,1.63-.11,2.39-.11,5.78,0,9.66,2.18,11.85,6.67,1.77,3.64,1.81,6.85.13,9.54-3,4.76-10.64,6.26-12.55,6.26-.94,0-1.16-.52-1.2-.84a.89.89,0,0,1,.59-1c4.27-1.55,6.57-3.89,6.16-6.26-.5-2.84-4.73-4.82-8.72-3.87-5.66,1.33-6.88,8.9-7.86,15a33.77,33.77,0,0,1-1.35,6.18l-.07.18c-1.91,5-3.57,9.32-12.66,16.17,1.42,16.45,17.29,25.32,31.65,25.32,12.8,0,28.48-7,34.08-26.58a.9.9,0,0,1,1-.65.91.91,0,0,1,.75.95c-1.29,22.61-16.75,36.11-41.34,36.11C429.69,516.82,418.89,514.12,411.26,509.59Zm71-152.22a19,19,0,0,0-11.62-36.1,19,19,0,0,0-14.07,22.92c2.62,10.92,10,24.1,15.26,33.06,19.48,32.9,18.51,51.13,18.45,51.89a.92.92,0,0,1-.8.85h-.1a.92.92,0,0,1-.88-.65c-.07-.25-7.64-25.2-18.52-41.3-11.07-16.38-23.32-37.9-19.74-59.18a28.33,28.33,0,1,1,34.83,29.8c-.77.17-1.54.31-2.3.45a.91.91,0,0,1-.51-1.74Zm-4.68-7a10.88,10.88,0,0,1-5-21.17,10.78,10.78,0,0,1,2.52-.3,10.88,10.88,0,0,1,9.25,16.61A10.76,10.76,0,0,1,477.58,350.35ZM483,458.2a4.49,4.49,0,1,1-4.46,4.5A4.49,4.49,0,0,1,483,458.2Zm-5.66-9.73a4.47,4.47,0,1,1,4.47,4.47A4.49,4.49,0,0,1,477.35,448.47Zm-8.5,19.61a4.47,4.47,0,1,1-4.46,4.47A4.5,4.5,0,0,1,468.85,468.08Zm-4.74-9.45a4.48,4.48,0,0,1,4.47-4.47,4.42,4.42,0,0,1,4.47,4.47,4.47,4.47,0,0,1-8.94,0ZM526.92,570a.92.92,0,0,1-.88.66h-.12a.91.91,0,0,1-.79-.9c0-8.59-1.46-22.86-8.14-42a5.31,5.31,0,0,1-.45-1.48.92.92,0,0,1,1.64-.56C530.33,541.43,532.21,551,526.92,570Zm-.58-113c.07,6.35.13,11.82-.67,16.06-2,10.6-17.15,25.77-19.88,28.43,1.16,4.35,7.69,33.39-18.28,52-16.94,12.18-39.83,12.79-44.25,12.79-1.42,0-6.17-.06-7.59-.87a1,1,0,0,1-.48-1c.12-.78.47-.85,3.76-1.44,29-5.24,47.1-16.16,53.79-32.43,6.43-15.66,3.77-32.55,3.74-32.72a.93.93,0,0,1,.21-.74c.1-.12,9.78-11.28,13.91-25,2-6.57,2.35-15.49,2.74-24.93.47-11.32,1-24.14,4.44-35.54,2.57-8.57,6.87-16,11.43-23.88,7.83-13.53,16.71-28.87,18.63-54.08,3.33-43.22-19.16-88-41.32-115.5C495.1,203.93,482.14,197,466.91,197c-8.57,0-18.06,2.15-29,6.57a.9.9,0,0,1-1-1.4c.45-.58,11.36-14.1,35.6-14.1a74.89,74.89,0,0,1,16,1.83c35.31,7.76,78.09,88.46,73.84,139.28-2.82,34-13.5,53-22.07,68.22-4.32,7.69-8.06,14.34-10.15,21.6C526.08,432.87,526.22,446.23,526.34,457Zm44.86,70.55a.89.89,0,0,1-.87.83h0a.91.91,0,0,1-.9-.78C566,504.26,555.94,484.34,540.27,470a.9.9,0,0,1-.11-1.22,1.1,1.1,0,0,1,.93-.4c1.92,0,9.88,2.57,17.13,10.44C565.33,486.5,573.35,501.21,571.2,527.52Zm50.16-58.09a.86.86,0,0,1-.41.1.89.89,0,0,1-.74-.39c-17.79-25.26-40.75-41.51-49.39-47.63-3.21-2.27-3.8-2.71-4-3.2a1.07,1.07,0,0,1,.06-.94,1.38,1.38,0,0,1,1.24-.52c4.83,0,40,9.6,53.72,51.48A.92.92,0,0,1,621.36,469.43Zm31.55-97a.92.92,0,0,1-.73,1.46,1,1,0,0,1-.35-.07c-30.82-12.57-67.12-19.15-79.7-19.87a1,1,0,0,1-.64-.31.92.92,0,0,1-.22-.67c.19-2.56,20.34-2.72,20.54-2.72C608.45,350.23,638.52,353.11,652.91,372.41Zm-2.13-89.17c-15.8,3.78-33.26,4.57-45.12,4.57h0c-10.14,0-35.8-1.09-36.19-3.67a1.2,1.2,0,0,1,.25-.84c1.34-1.57,18.28-6.3,41.77-6.3a173.4,173.4,0,0,1,39.28,4.47.91.91,0,0,1,0,1.77Z"/><path class="cls-5" d="M472.28,753.1a44.92,44.92,0,0,0-4.16-7.24c-1.11-1.56-1.77-2.34-1.77-2.34l0,0a1.4,1.4,0,0,0-2.25,1.67s.52.8,1.37,2.37a43.78,43.78,0,0,1,3.06,7.06,26.62,26.62,0,0,1,1.44,11.21,12.56,12.56,0,0,1-2.22,5.81,14.06,14.06,0,0,1-5.29,4.31,27.58,27.58,0,0,1-7.74,2.28,9.8,9.8,0,0,1-6.85-1.2,11.83,11.83,0,0,1-4.26-6.07,35.14,35.14,0,0,1-1.75-9.33,83.83,83.83,0,0,1,1.77-21.25c.74-3.61,1.63-7.22,2.73-10.76q.82-2.67,1.8-5.25c.32-.87.67-1.73,1-2.53l1.14-2.71a102.18,102.18,0,0,0,7.1-24.05,59.93,59.93,0,0,0,.57-13,40.65,40.65,0,0,0-3.15-13.13,35.11,35.11,0,0,0-7.67-11.14,40.64,40.64,0,0,0-10.29-7.23c-.87-.47-1.81-.89-2.77-1.29l-1.42-.6-1.18-.44-1.16-.42-.78-.28-.66-.21c-.87-.27-1.72-.57-2.6-.8a44.68,44.68,0,0,0-10.63-1.63,32.93,32.93,0,0,0-18.93,5,31.79,31.79,0,0,0-10.05,10.58,39.92,39.92,0,0,0-3.59,7.94c-.23.76-.41,1.35-.55,1.79a20,20,0,0,0-5.39-1.12,24.81,24.81,0,0,0-9.05,1.25,29.23,29.23,0,0,0-10.33,6.16,32.34,32.34,0,0,0-8.27,11.87,29.61,29.61,0,0,0-1.64,16.87,27.44,27.44,0,0,0,3.38,8.66,29.06,29.06,0,0,0,6,7,32.43,32.43,0,0,0,7.52,4.71,57.69,57.69,0,0,0,7.89,3.24,30.5,30.5,0,0,0,17.71.33,28.92,28.92,0,0,0,14.08-9.56A35.48,35.48,0,0,0,411.24,706a32.7,32.7,0,0,0,.72-13.47,25.28,25.28,0,0,0-4.35-10.79,21.22,21.22,0,0,0-6.72-6,22.64,22.64,0,0,0-5.28-2.15c-.66-.19-1-.23-1.34-.31l-.44-.1a2.43,2.43,0,0,0-1.34,4.66l.42.16c.26.1.76.25,1.18.45a20,20,0,0,1,3.74,2.11,15.72,15.72,0,0,1,4.26,4.82,18.19,18.19,0,0,1,2.27,8,27,27,0,0,1-7.31,19.69,18.91,18.91,0,0,1-9.51,5.57,19.44,19.44,0,0,1-11.2-1,24.44,24.44,0,0,1-5.53-2.81,32.11,32.11,0,0,1-4.25-3.9,18.57,18.57,0,0,1-4.45-8.66,20.21,20.21,0,0,1,.49-9.32,27.9,27.9,0,0,1,9.61-14.33,22.09,22.09,0,0,1,5.72-3.3,23,23,0,0,1,4.37-1.28l.92-.16a2.48,2.48,0,0,0,3.06-.16l.57-.51,1.59-1.62c1.3-1.35,3.11-3.25,5.46-5.28a32.83,32.83,0,0,1,8.79-5.48,26.47,26.47,0,0,1,12.25-1.66,44.61,44.61,0,0,1,7.56,1.33l2,.56.51.14h.09l.29.1,1.16.41,1.14.41.88.38a17.93,17.93,0,0,1,1.82.83c5,2.46,9.22,6.07,11.55,11.19s2.93,11.72,2.1,18.65a94.3,94.3,0,0,1-5.46,21.23l-1,2.79c-.38,1-.72,2-1,3-.65,2-1.22,4-1.74,6a111.69,111.69,0,0,0-2.43,12.1,89.6,89.6,0,0,0-.46,24.19,43.08,43.08,0,0,0,3.17,11.83c1.71,3.78,4.47,7.66,8.64,9.85a16.06,16.06,0,0,0,6.4,1.77,20,20,0,0,0,5.93-.51,34.78,34.78,0,0,0,9.64-3.73,19.62,19.62,0,0,0,7.13-7,18.39,18.39,0,0,0,2.4-8.63A29.78,29.78,0,0,0,472.28,753.1Z"/></g></g></svg>
