<svg xmlns="http://www.w3.org/2000/svg" viewBox="0 0 832.1 832.1"><defs><style>.cls-1{fill:#221e1f;}.cls-2{fill:#FFDD57;}.cls-2,.cls-3,.cls-4{fill-rule:evenodd;}.cls-3{fill:#fff;}.cls-4,.cls-5{fill:#FFDD57;}</style></defs><title>Element 6</title><g id="Ebene_2" data-name="Ebene 2"><g id="Layer_3" data-name="Layer 3"><circle class="cls-1" cx="416.05" cy="416.05" r="415.99"/><path class="cls-2" d="M783.27,373.56a5.45,5.45,0,1,1-7.5-1.76A5.45,5.45,0,0,1,783.27,373.56Z"/><path class="cls-2" d="M473.15,762.83a5.45,5.45,0,1,1-7.5-1.76A5.45,5.45,0,0,1,473.15,762.83Z"/><path class="cls-3" d="M679.1,648.58c-2.82-.66-12.64,3.35-12.64,3.35s8-7,8.62-9.84-3.34-12.64-3.34-12.64,7,8,9.83,8.62,12.64-3.34,12.64-3.34-8,7-8.62,9.83,3.35,12.64,3.35,12.64-7-8-9.84-8.62Z"/><path class="cls-4" d="M131.89,220.78c-2.3-.54-10.31,2.73-10.31,2.73s6.49-5.71,7-8-2.73-10.31-2.73-10.31,5.72,6.49,8,7,10.31-2.73,10.31-2.73-6.49,5.72-7,8,2.73,10.32,2.73,10.32-5.72-6.5-8-7Z"/><path class="cls-4" d="M545.27,717.56c-1.95-.45-8.69,2.3-8.69,2.3s5.47-4.81,5.92-6.75-2.3-8.69-2.3-8.69,4.82,5.47,6.76,5.92,8.68-2.3,8.68-2.3-5.46,4.82-5.92,6.76,2.3,8.68,2.3,8.68-4.81-5.46-6.75-5.92Z"/><path class="cls-3" d="M155.79,697.83a71.07,71.07,0,0,0-10.43-1,71.48,71.48,0,0,0,10.34-1.66,70.46,70.46,0,0,0-4.33-9.54,71.55,71.55,0,0,0,6.61,8.12,70.52,70.52,0,0,0,6.09-8.52,71.81,71.81,0,0,0-3.73,9.79,70,70,0,0,0,10.43,1,70.94,70.94,0,0,0-10.34,1.67,69.7,69.7,0,0,0,4.33,9.54,71.05,71.05,0,0,0-6.61-8.13,70.23,70.23,0,0,0-6.09,8.52,71.87,71.87,0,0,0,3.73-9.78Z"/><path class="cls-3" d="M720.87,226.8a70,70,0,0,0-10.43-1,70.94,70.94,0,0,0,10.34-1.67,69.23,69.23,0,0,0-4.33-9.53,71.55,71.55,0,0,0,6.61,8.12,69.36,69.36,0,0,0,6.09-8.52,69.84,69.84,0,0,0-3.72,9.79,71.41,71.41,0,0,0,10.42,1,69.77,69.77,0,0,0-10.34,1.67,71.14,71.14,0,0,0,4.33,9.53,71.55,71.55,0,0,0-6.61-8.12,71.72,71.72,0,0,0-6.09,8.52,70.4,70.4,0,0,0,3.73-9.79Z"/><path class="cls-3" d="M237.53,99.36a70.89,70.89,0,0,0-10.43-1,70.51,70.51,0,0,0,10.35-1.66,71.62,71.62,0,0,0-4.34-9.54,72,72,0,0,0,6.61,8.13,70.6,70.6,0,0,0,6.1-8.53,70.4,70.4,0,0,0-3.73,9.79,70.87,70.87,0,0,0,10.42,1,70.28,70.28,0,0,0-10.34,1.66,71.62,71.62,0,0,0,4.34,9.54,69.16,69.16,0,0,0-6.62-8.12,70.82,70.82,0,0,0-6.09,8.52,70.4,70.4,0,0,0,3.73-9.79Z"/><path class="cls-3" d="M55.61,473.49a71.44,71.44,0,0,0-10.43-1,69.51,69.51,0,0,0,10.34-1.67,69.79,69.79,0,0,0-4.33-9.53,71.55,71.55,0,0,0,6.61,8.12,69.36,69.36,0,0,0,6.09-8.52,71.81,71.81,0,0,0-3.73,9.79,70.31,70.31,0,0,0,10.43,1,71.21,71.21,0,0,0-10.34,1.67,70.56,70.56,0,0,0,4.33,9.53A71.55,71.55,0,0,0,58,474.76a70.52,70.52,0,0,0-6.09,8.52,71.81,71.81,0,0,0,3.73-9.79Z"/><path class="cls-3" d="M499.37,629.16s-8-1.4-12.83-1.25c4.86-.15,12.75-2.09,12.73-2s-2.78-7.61-5.34-11.74c2.56,4.13,8.19,10,8.14,10s5.21-6.2,7.5-10.49c-2.29,4.29-4.56,12.09-4.59,12s8,1.4,12.83,1.25c-4.85.15-12.75,2.09-12.72,2.05s2.77,7.61,5.33,11.74c-2.56-4.13-8.18-10-8.14-10s-5.2,6.21-7.5,10.49c2.3-4.28,4.57-12.09,4.59-12.05Z"/><path class="cls-3" d="M306,724.53s-8-1.4-12.83-1.24c4.85-.16,12.75-2.09,12.73-2s-2.78-7.61-5.34-11.74c2.56,4.13,8.19,10,8.14,10s5.2-6.21,7.5-10.49c-2.3,4.28-4.57,12.08-4.59,12s8,1.4,12.83,1.24c-4.85.16-12.75,2.09-12.73,2.05s2.78,7.61,5.34,11.74c-2.56-4.13-8.19-10-8.14-10s-5.2,6.21-7.5,10.49c2.3-4.28,4.57-12.08,4.59-12.05Z"/><path class="cls-3" d="M274.35,764.69a3.39,3.39,0,1,1-4.66-1.1A3.39,3.39,0,0,1,274.35,764.69Z"/><path class="cls-3" d="M128.79,678.57a3.38,3.38,0,1,1-4.66-1.1A3.38,3.38,0,0,1,128.79,678.57Z"/><path class="cls-3" d="M109.27,568.7a3.39,3.39,0,1,1-4.66-1.09A3.4,3.4,0,0,1,109.27,568.7Z"/><path class="cls-3" d="M778.77,478.28a6.77,6.77,0,1,1-9.32-2.19A6.77,6.77,0,0,1,778.77,478.28Z"/><path class="cls-2" d="M452.84,593.2a3.8,3.8,0,1,1-5.23-1.23A3.79,3.79,0,0,1,452.84,593.2Z"/><path class="cls-3" d="M233,696.3c-2.57-.61-11.51,3-11.51,3s7.25-6.38,7.85-9-3.05-11.51-3.05-11.51,6.38,7.25,9,7.85,11.5-3.05,11.5-3.05-7.24,6.38-7.84,9,3,11.51,3,11.51-6.38-7.24-8.95-7.84Z"/><path class="cls-4" d="M662.6,172.8c-2.1-.49-9.39,2.49-9.39,2.49s5.91-5.21,6.4-7.3-2.48-9.39-2.48-9.39,5.2,5.91,7.3,6.4,9.39-2.49,9.39-2.49-5.91,5.21-6.4,7.31,2.49,9.39,2.49,9.39-5.21-5.91-7.31-6.41Z"/><path class="cls-4" d="M406.91,556.44c-2.1-.49-9.39,2.48-9.39,2.48s5.91-5.2,6.4-7.3-2.48-9.39-2.48-9.39,5.2,5.91,7.3,6.4,9.39-2.48,9.39-2.48-5.91,5.2-6.4,7.3,2.48,9.39,2.48,9.39-5.2-5.91-7.3-6.4Z"/><path class="cls-3" d="M424.18,66.74s-7.26-1.28-11.68-1.14c4.42-.14,11.61-1.9,11.59-1.87s-2.53-6.92-4.86-10.68c2.33,3.76,7.45,9.1,7.41,9.1s4.73-5.65,6.83-9.55c-2.1,3.9-4.16,11-4.18,11s7.26,1.28,11.68,1.14c-4.42.14-11.61,1.9-11.59,1.86s2.53,6.93,4.86,10.69c-2.33-3.76-7.45-9.1-7.41-9.1s-4.74,5.65-6.83,9.55c2.09-3.9,4.16-11,4.18-11Z"/><path class="cls-3" d="M625.07,122.08a3.08,3.08,0,1,1-4.24-1A3.08,3.08,0,0,1,625.07,122.08Z"/><path class="cls-3" d="M55.58,411a3.08,3.08,0,1,1-4.24-1A3.09,3.09,0,0,1,55.58,411Z"/><path class="cls-3" d="M614.44,658.61a3.08,3.08,0,1,1-4.24-1A3.08,3.08,0,0,1,614.44,658.61Z"/><path class="cls-3" d="M739.78,589.49a6.17,6.17,0,1,1-8.49-2A6.16,6.16,0,0,1,739.78,589.49Z"/><path class="cls-2" d="M586,62a3.46,3.46,0,1,1-4.76-1.12A3.45,3.45,0,0,1,586,62Z"/><path class="cls-3" d="M389.9,31.29c-1-.23-4.35,1.15-4.35,1.15s2.74-2.41,3-3.38-1.15-4.34-1.15-4.34,2.41,2.73,3.38,3,4.35-1.15,4.35-1.15-2.74,2.41-3,3.38,1.15,4.34,1.15,4.34-2.4-2.73-3.37-3Z"/><path class="cls-3" d="M469.72,56.33c-1-.23-4.35,1.15-4.35,1.15s2.74-2.41,3-3.38-1.15-4.34-1.15-4.34,2.4,2.73,3.37,3,4.35-1.15,4.35-1.15-2.74,2.41-3,3.38,1.15,4.34,1.15,4.34-2.4-2.74-3.37-3Z"/><path class="cls-3" d="M499.72,315.32a16.33,16.33,0,0,0,3.95,2.94c-2.37-.59-5.53,1.27-9.63,3.78-1.48.9-3.1,1.89-4.85,2.86a9.51,9.51,0,0,0,3.78-4.41c1.52-4.47,1.62-8.39.33-10.41A31.81,31.81,0,0,1,499.72,315.32Zm-129.49-7.55a.9.9,0,0,1-.32.92.92.92,0,0,1-1,.11,13.61,13.61,0,0,0-5.18-1.17,6.37,6.37,0,0,0-6,3.44,5.41,5.41,0,0,1,1.21-.14,5.07,5.07,0,0,1,.34,10.12,8,8,0,0,0,5.28,2.19c5.09-.08,8-4.13,8.05-6.89a11.8,11.8,0,0,0-.68-4.54.94.94,0,0,1,0-.64c0-.09.72-2.21,3.74-2.21a11.79,11.79,0,0,1,4.83,1.3,39.69,39.69,0,0,0-12.32-4.5C369.83,306.57,370.17,307.49,370.23,307.77Zm-36.35,10.37c2.27,0,5.08,1.72,8.64,3.9,1.46.9,3.07,1.88,4.81,2.84a9.41,9.41,0,0,1-3.73-4.4c-1.52-4.48-1.62-8.39-.34-10.39a31.94,31.94,0,0,0-6.4,5.22,16.3,16.3,0,0,1-4,3A4.34,4.34,0,0,1,333.88,318.14Zm355.41,225a48.13,48.13,0,0,1-21.76,5c-17.83,0-35.63-8.61-48.63-14.9-2.63-1.27-5.08-2.46-7.34-3.48-17.85-8.08-25.38-20.36-25.45-20.48a.92.92,0,0,0-1.67.7c.08.29,8.09,29,47.3,44,15.67,6,29.52,9,41.15,9a45.73,45.73,0,0,0,11.39-1.26c-10.5,12-55.57,62-80.9,70.66-5.35,1.84-12,2.77-19.66,2.77-34.47,0-83.41-19-106.22-54.17-28.51-44-29.89-107-29.94-109.58a.76.76,0,0,0,0-.16h0l0-.21a.9.9,0,0,0-1-.65.92.92,0,0,0-.76.69c-.29.33-3.31,2.9-27.47,4.3-23.84-1.38-27.16-3.88-27.54-4.28a.91.91,0,0,0-.78-.74.9.9,0,0,0-1,.68,1.24,1.24,0,0,0,0,.27c0,2.66-1.42,65.71-29.89,109.69-24.7,38.1-68.28,55.16-100.51,55.16a82.27,82.27,0,0,1-25.38-3.77c-34-10.95-72.53-59.34-81.26-70.75A44.74,44.74,0,0,0,163.67,563c11.62,0,25.47-3,41.16-9,39.22-15,47.22-43.74,47.3-44a.92.92,0,0,0-.53-1.07.9.9,0,0,0-1.13.37C239.25,528,197.19,547,167.13,547c-8,0-14.68-1.31-19.85-3.89-23.8-11.89-45.58-59.69-51.46-73.46,11,9.26,24.69,13.94,40.8,13.94h0c38.74,0,76.86-26.14,87.61-34.16a.91.91,0,0,0-1-1.5c-22.14,13.49-49.49,21.55-73.15,21.55-21.52,0-58.86-6.8-70.2-51.69,10,7.61,27.54,12.1,47.76,12.1,24.49,0,56-7.2,70.89-27.39a.91.91,0,0,0-1.3-1.25c-11.84,9.48-33.74,15.6-55.78,15.6-17.31,0-31.8-3.76-40.81-10.59C83,392.87,74.91,350.09,73,338.7c6.93,6.92,30.39,28.54,53.19,28.54a33.76,33.76,0,0,0,4-.24c27.54-3.34,36.9-12.41,37.28-12.79a.91.91,0,0,0,.17-1.06.89.89,0,0,0-.94-.49,156.46,156.46,0,0,1-22.42,1.78c-32.43,0-49.79-13.75-54.49-43.23,5.33,3.45,22,13.27,39.11,13.27,1.34,0,2.66-.06,3.93-.18,21.64-2.06,34.62-21,34.75-21.19a.91.91,0,0,0-1.26-1.27c-13.64,9-26.42,13.79-37,13.79-21.68,0-34.52-20-37.24-57.78,9.64,15.42,20.8,23.23,33.2,23.23,31.41,0,63.14-50.61,75.77-82.51,13-32.86,62.64-92.72,104.68-108.07a83.2,83.2,0,0,1,28.71-4.8c28.17,0,56.29,11.89,73.09,19,4,1.71,7.53,3.18,10.29,4.19a.94.94,0,0,0,.62,0c2.78-1,6.3-2.5,10.37-4.22,16.8-7.1,44.9-19,73.05-19a83.43,83.43,0,0,1,28.73,4.8c42,15.35,91.7,75.21,104.68,108.07,2.62,6.64,4.6,12.9,6.52,19,7.19,22.72,12.87,40.67,45,53.36a59.24,59.24,0,0,0,21.72,4.5c20.48,0,32-13.52,35.72-18.75,1.29,8.59,4.82,38.66-7.53,46.9-3.88,2.58-10.84,3.89-20.69,3.89-20.29,0-46-5.65-46.24-5.71a.93.93,0,0,0-.94.36.92.92,0,0,0,0,1c.28.46,7.2,11.29,34.08,14.64a78.26,78.26,0,0,0,9.95.64c14.24,0,22.53-4.2,26.18-6.67-2.19,7.81-9.68,31-23.1,37.73-6.26,3.14-15.19,4.73-26.52,4.73a133.22,133.22,0,0,1-19.66-1.49.92.92,0,0,0-.8,1.55c.39.38,9.74,9.45,37.28,12.79a33.8,33.8,0,0,0,4.06.24c22.78,0,46.25-21.61,53.18-28.54-1.87,11.4-10,54.17-27.6,67.59-11.72,8.9-28.34,10.77-40.22,10.77-12.78,0-26.81-2.32-35.76-5.92-16.28-6.49-20.61-9.83-20.65-9.86a.91.91,0,0,0-1.2.06.9.9,0,0,0-.1,1.19c.14.2,14.76,19.56,40,21.25,2,.14,4.31.2,6.82.2,23.73,0,62.79-6,71.7-7.42-4.93,8.74-30,50-65.14,52.15-2,.12-4.05.19-6.1.19-37.1,0-71.54-20.73-71.88-20.94a.91.91,0,0,0-1,1.5c.33.25,33.14,24.47,69.65,32.78a70.51,70.51,0,0,0,58.91-12.89C735.22,482.68,713.28,531.16,689.29,543.14ZM617.85,399.93c-.11-.06-10.49-6.65-29.13-22.62-14.88-12.78-18.85-27.74-24.34-48.44-1.39-5.24-2.83-10.66-4.57-16.53-7-23.61-23.07-32.77-36-40.13-3.17-1.8-6.16-3.5-8.66-5.24-11.59-8-19.5-22-22.86-40.47-1.77-9.75-10.92-42-53.39-40.78a.92.92,0,0,0,.05,1.83h0c18.27-.54,39.25,18.55,42.87,38.71.53,3,.93,6,1.33,8.9,2.41,17.85,4.91,36.32,36.51,48.57,26.6,10.3,33.77,33,40.71,55a205,205,0,0,0,8,22.39c12.41,27.59,48.29,40.35,48.65,40.47a.79.79,0,0,0,.3.05.91.91,0,0,0,.82-.51A.92.92,0,0,0,617.85,399.93ZM505,318.92a20.25,20.25,0,0,0,8.15,1.81c6,0,10-3.15,11-8.64a3.76,3.76,0,0,0-.66-3.21c-1.29-1.53-4.15-1.58-7.11-.17a11,11,0,0,1-2.6.9,4.62,4.62,0,0,0,2.69-3.13,2.71,2.71,0,0,0-.67-2.2c-1.29-1.52-4.37-2.51-7.83-2.51a16.61,16.61,0,0,0-2,.12,4.25,4.25,0,0,0,1.22-2.24,2.89,2.89,0,0,0-.62-2.2c-1-1.2-2.64-1.81-5-1.81a25.23,25.23,0,0,0-5,.62,2.63,2.63,0,0,0,1.22-2.07,1.82,1.82,0,0,0-1.23-1.57c-2.13-1-7.29-1.38-11.86-.83-29.36,2.84-38.31,17.18-38.09,21.81.07,1.33.88,1.81,1.56,1.81a2.39,2.39,0,0,0,1.54-.71,38.19,38.19,0,0,1,3.58-2.75.75.75,0,0,0-.05.16c-1.06,5.33,1.64,12.44,3.7,14.61a45.15,45.15,0,0,1-7.3-3.41,1.82,1.82,0,0,0-.94-.35,1.28,1.28,0,0,0-.72.25,1.16,1.16,0,0,0-.39,1.16c.56,1.88,9.75,8.83,22.21,8.95h.9c11.07,0,24.09-3.94,31.87-7.33l1.85-.79c2.91-1.26,3.79-1.64,3.91-2.6s-.53-1.35-1.43-2.06c-.45-.36-1-.81-1.67-1.42Zm-39.59,80.65a.91.91,0,0,0,.33-1.21.93.93,0,0,0-1.21-.38s-3.2,1.52-15.6,3a104.5,104.5,0,0,1-12.09.84,65.06,65.06,0,0,1-8.78-.64l-1.62-.2c-4.29-.5-5.55.68-6.71,1.7a6.58,6.58,0,0,1-1.48,1.06,6.64,6.64,0,0,1-1.46-1c-1.17-1-2.42-2.21-6.7-1.71l-1.62.2a64.93,64.93,0,0,1-8.78.64,104.5,104.5,0,0,1-12.09-.84C375.27,399.51,372,398,372,398a.91.91,0,0,0-.88,1.59c.6.36,15,8.89,47.17,8.89S464.84,399.93,465.43,399.57Zm-15.64,10.26a.94.94,0,0,0-.79-.44,9.93,9.93,0,0,0-1.43.27c-12.91,2.59-22.77,3.91-29.31,3.91s-16.45-1.32-29.57-3.91a10,10,0,0,0-1.48-.27.94.94,0,0,0-.78.44.92.92,0,0,0,.52,1.35c7.62,2.23,10,4,14.43,7.15l1.29.94c6.49,4.64,15.5,4.7,15.59,4.7s9.15-.06,15.64-4.7l2-1.44c4-2.93,6.19-4.54,13.39-6.65a.9.9,0,0,0,.59-.55A.94.94,0,0,0,449.79,409.83Zm-118.2-90.94-.28.24c-.65.61-1.23,1.07-1.68,1.43-.9.71-1.55,1.22-1.44,2.06s1,1.34,4,2.61L334,326c7.78,3.38,20.8,7.32,31.88,7.32h.88c12.47-.12,21.66-7.07,22.22-8.95a1.15,1.15,0,0,0-.39-1.16,1.36,1.36,0,0,0-.74-.25,1.78,1.78,0,0,0-.95.36,46.19,46.19,0,0,1-7.34,3.43c2.06-2.14,4.79-9.27,3.77-14.63l0-.14a38.66,38.66,0,0,1,3.51,2.72,2.43,2.43,0,0,0,1.55.71c.68,0,1.49-.48,1.56-1.82.22-4.62-8.72-19-38.08-21.8-4.6-.56-9.74-.18-11.86.83a1.85,1.85,0,0,0-1.25,1.57,2.67,2.67,0,0,0,1.22,2.06,25.87,25.87,0,0,0-5-.61c-2.33,0-4,.61-4.95,1.83a2.9,2.9,0,0,0-.62,2.18,4.32,4.32,0,0,0,1.22,2.24,16.45,16.45,0,0,0-2-.12c-3.45,0-6.53,1-7.84,2.5a2.7,2.7,0,0,0-.69,2.25,4.66,4.66,0,0,0,2.72,3.09,10.91,10.91,0,0,1-2.64-.9c-2.94-1.42-5.81-1.36-7.09.18a3.71,3.71,0,0,0-.64,3.19c.94,5.5,4.93,8.65,10.94,8.65A20.33,20.33,0,0,0,331.59,318.89Zm276.17.9c-.15,4.62,3.68,9.6,9.45,12.45-2.6,2.62-9.33,10.08-7.7,15.52.81,2.73,3.51,4.5,8,5.25a23.72,23.72,0,0,0,3.94.36c3.82,0,6.62-1.18,8.33-3.51,2.23-3,2-7.21,1.58-9.77,2.23,1.32,6.08,3.21,9.82,3.21,3.53,0,8-1.73,9.45-9.93.73-4.26.21-7.48-1.55-9.57-1.55-1.83-4-2.76-7.26-2.76-4.88,0-10.37,2-12.71,3-.52-3.53-2.68-13.22-10.38-13.22a11,11,0,0,0-3.61.66C610.5,313.12,607.88,316.06,607.76,319.79Zm-63.26-157c-4.21,1.86-6.61,4.58-6.82,7.76-.24,3.78,2.68,7.64,7.82,10.31a7.87,7.87,0,0,0,3.55,1h0c5.28,0,7.52-6.82,8.34-10.44,1.86,2.36,5.6,6.17,10.52,6.17a11.39,11.39,0,0,0,7.14-2.79c2.64-2.11,3.81-4.4,3.49-6.82-.61-4.7-6.83-8.28-9.31-9.53,1.4-2.11,4.48-7.47,3.16-12.31-.79-2.89-3-5.07-6.55-6.49-4-1.58-7.28-1.13-9.58,1.25-2.44,2.53-3.25,6.72-3.5,9.57-2.08-2.91-6-7.22-11.36-7.22a10.4,10.4,0,0,0-3.82.76,4.59,4.59,0,0,0-3.22,3.56C533.55,152.55,541.37,160,544.5,162.8Zm-107.21,9.9a.91.91,0,0,0,1,.66,82.82,82.82,0,0,1,11.69-.84c28.56,0,48.74,15.09,60.65,27.76s16.9,26.32,21.83,39.59c6.41,17.28,12.46,33.6,33.29,41.5a45.4,45.4,0,0,0,15.88,3c9.78,0,17.59-3.6,22-10.13,3.66-5.42,6.56-15.46-.35-32.45a.9.9,0,0,0-1.09-.53.91.91,0,0,0-.65,1c1.82,11.07.15,20-4.83,25.9-4,4.74-10.14,7.35-17.22,7.35a30.58,30.58,0,0,1-7.18-.87c-16.9-4.06-21.8-19.83-27.48-38.09-4.55-14.63-9.71-31.22-22-45.07C508,174.71,488.54,165.43,468,165.43a80.48,80.48,0,0,0-30.16,6.19A.9.9,0,0,0,437.29,172.7ZM421.82,195a.89.89,0,0,0,1,.68,25.86,25.86,0,0,1,2.6-.13c20.1,0,21.07,25.45,21.85,45.9.13,3.63.26,7.06.5,10.13,1.67,21.51,44.27,32.78,46.09,33.25a.83.83,0,0,0,.22,0,.91.91,0,0,0,.29-1.78C494,283,461,271.71,461.47,250.46c.16-6.4.23-39-13.48-53.05-6.54-6.71-15.27-7.91-25.64-3.48A.91.91,0,0,0,421.82,195ZM405.18,372.71a.9.9,0,0,0-1.66-.17,5.69,5.69,0,0,0-.48,5c1.3,3.25,5.33,4.81,7,5.33a27.46,27.46,0,0,0,8.22,1.11,27.13,27.13,0,0,0,8.2-1.11c1.67-.51,5.69-2.06,7-5.31a5.72,5.72,0,0,0-.37-5,.91.91,0,0,0-1.67.14c-1.19,3.72-5.35,5.6-12.37,5.6h-.9C410.69,378.29,406.32,376.41,405.18,372.71ZM388.54,197.42c-10.65,10.94-13.9,35.41-13.44,53,.51,21.24-32.59,32.5-32.92,32.61a.91.91,0,0,0,.28,1.78.85.85,0,0,0,.23,0c1.82-.47,44.46-11.74,46.09-33.25.24-3.1.38-6.57.52-10.24.8-20.4,1.8-45.79,21.83-45.79a25.86,25.86,0,0,1,2.6.13.89.89,0,0,0,1-.68.91.91,0,0,0-.52-1.06C403.81,189.5,395.09,190.71,388.54,197.42Zm-146.9-15.06c1.09,5.67,5.74,9.19,12.12,9.19a18.59,18.59,0,0,0,14.54-7c3.08,4.85,9.58,11.37,16.51,11.37,3.28,0,7.93-1.58,11.43-9.09,2.18-4.71,2.29-8.66.32-11.74-3.32-5.2-11.55-6.26-14.88-6.47,1.4-3.12,4.47-11.18,1.38-16.28-1.89-3.12-5.58-4.55-11.25-4.21-5.93.34-10,2.3-12.09,5.82-3,5-1,11.64,0,14.32-3.38.35-12.53,1.75-16.46,6.8A8.69,8.69,0,0,0,241.64,182.36Zm-8.73,91.91c4.4,6.54,12.22,10.14,22,10.14a45.77,45.77,0,0,0,15.88-3c20.81-7.89,26.86-24.2,33.26-41.46,4.93-13.29,10-27,21.86-39.63s32-27.76,60.64-27.76a83.06,83.06,0,0,1,11.7.84.92.92,0,0,0,1-.66.9.9,0,0,0-.54-1.08,80.66,80.66,0,0,0-30.18-6.19c-20.53,0-40,9.27-54.9,26.11-12.22,13.84-17.38,30.43-21.93,45.06-5.68,18.27-10.58,34-27.46,38.1a30.66,30.66,0,0,1-7.19.87c-7.08,0-13.19-2.6-17.22-7.34-5-5.87-6.67-14.83-4.87-25.91a.89.89,0,0,0-.65-1,.91.91,0,0,0-1.09.53C226.35,258.81,229.26,268.84,232.91,274.27ZM217.66,383.71a15.51,15.51,0,0,0,4.81-.85c4.6-1.5,7.47-4,8.54-7.51,1.6-5.21-1.31-11.17-3.28-14.38a33.73,33.73,0,0,0,9.5,1.58c7.58,0,12-3.78,12.83-10.93.48-4.06-.26-7.22-2.18-9.39s-5-3.3-9.14-3.3a28.84,28.84,0,0,0-4.92.47c2.06-2.58,4.88-7.12,4.19-12-.59-4.17-3.61-7.68-9-10.42a16.48,16.48,0,0,0-7.33-2c-9.55,0-11.69,12.17-12.16,17-5.41-4.66-12.2-7.61-17.76-7.61-5.29,0-9.16,2.51-11.18,7.24a7.46,7.46,0,0,0,.19,6.74c2.81,5.24,11.62,8.21,16.47,9.49-4.34,1.57-11.79,5-13.88,10.34-1,2.66-.66,5.46,1.15,8.3,2.17,3.45,5,5.2,8.33,5.2,5,0,10-4,12.41-6.37.2,3.74,1.11,11.24,5.2,15.44A9.67,9.67,0,0,0,217.66,383.71Zm50.5-22.62a203.91,203.91,0,0,0,8-22.4c6.93-22,14.1-44.67,40.66-55C348.48,271.46,351,253,353.41,235.11c.39-2.91.8-5.92,1.33-8.86,3.61-20.16,24.62-39.2,42.82-38.71h0a.92.92,0,0,0,.05-1.83l-2.37,0c-40.43,0-49.24,31.24-51,40.81C340.92,244.94,333,258.94,321.42,267c-2.5,1.74-5.49,3.45-8.66,5.25-12.94,7.36-29,16.52-36,40.12-1.72,5.83-3.14,11.21-4.52,16.41-5.48,20.76-9.45,35.76-24.39,48.56-18.64,16-29,22.56-29.09,22.62a.91.91,0,0,0,.49,1.68.79.79,0,0,0,.3-.05C219.87,401.44,255.7,388.68,268.16,361.09Zm12.42,39.48a.91.91,0,0,0-.62-1,.92.92,0,0,0-1.11.49c-20.16,44.52-42.33,74.66-65.9,89.58a115.47,115.47,0,0,1-60.86,17.68h0a69.19,69.19,0,0,1-9-.49.89.89,0,0,0-1,.7.9.9,0,0,0,.6,1.07c.43.14,10.62,3.43,25.58,3.43a93,93,0,0,0,34-6.25C225.62,496.57,266.92,470.71,280.58,400.57Zm20.69,20.16a.93.93,0,0,0-1.18-.37.92.92,0,0,0-.47,1.14c17.43,48.11-.29,84.4-18.22,106.37a158.3,158.3,0,0,1-43.68,36.64.91.91,0,0,0,.42,1.72h.08c16.4-1.49,49.6-21.89,66.75-54.86C315.45,491.22,323.31,459.15,301.27,420.73Zm214.26-29.59c12-22.24,21.94-55.27,15.48-75.23a1,1,0,0,0-1-.62.92.92,0,0,0-.79.87c-1,24.17-11.75,61.72-32.93,87-10.48,12.54-47.08,53.6-78,55.34-30.89-1.73-67.57-42.8-78.08-55.34-21.12-25.29-31.88-62.84-32.94-87a.91.91,0,0,0-.78-.87,1,1,0,0,0-1,.62c-6.45,19.92,3.52,53,15.53,75.23,14.62,27.13,64.54,77.25,97.21,77.25S500.91,418.27,515.53,391.14Zm39.62,136.73c-17.94-22-35.67-58.26-18.24-106.37a.91.91,0,0,0-1.65-.77c-22,38.42-14.15,70.49-3.67,90.64,17.16,33,50.36,53.37,66.76,54.86h.08a.91.91,0,0,0,.42-1.72A158.38,158.38,0,0,1,555.15,527.87Zm139.34-20.38a.92.92,0,0,0-1-.7,68.74,68.74,0,0,1-9,.49,115.34,115.34,0,0,1-60.82-17.68c-23.52-14.87-45.71-45-66-89.58a.91.91,0,0,0-1.72.55c13.71,70.18,55,96,78.41,105.17a92.94,92.94,0,0,0,34,6.25c14.94,0,25.12-3.29,25.55-3.43A.9.9,0,0,0,694.49,507.49ZM460.89,309c3,0,3.72,2.12,3.74,2.21a.94.94,0,0,1,0,.64,11.58,11.58,0,0,0-.68,4.54c.08,2.76,2.95,6.81,7.94,6.89h0a8.09,8.09,0,0,0,5.36-2.19,5.07,5.07,0,0,1,.36-10.12,5.34,5.34,0,0,1,1.21.14,6.4,6.4,0,0,0-6-3.44,13.39,13.39,0,0,0-5.17,1.17.91.91,0,0,1-1.28-1c.07-.28.4-1.21,2.05-2a39.8,39.8,0,0,0-12.48,4.57A12.14,12.14,0,0,1,460.89,309Z"/><path class="cls-5" d="M483.47,667.38a21.84,21.84,0,0,0-2.3-8.73,19.88,19.88,0,0,0-5.6-6.63,22.89,22.89,0,0,0-6.7-3.42,27.71,27.71,0,0,0-11.92-1,26,26,0,0,0-8.59,2.57,27.46,27.46,0,0,0-2.28-4.53,18.63,18.63,0,0,0-6.59-6.3,18.35,18.35,0,0,0-8.18-2.21,24.58,24.58,0,0,0-6.91.82,35.3,35.3,0,0,0-9.85,4.49,39.46,39.46,0,0,0-5.2,3.9,19.43,19.43,0,0,0-4.35-5.24,18.06,18.06,0,0,0-7.57-3.77,23.47,23.47,0,0,0-13,1.23,39.32,39.32,0,0,0-12.77,7.93c-.84-2.42-1.77-4.7-2.73-6.8a59.13,59.13,0,0,0-4-7.15,44.55,44.55,0,0,0-3.86-5.1c-.62-.69-1.17-1.29-1.67-1.8s-.89-.78-1.23-1.08l-1.05-.88a2.49,2.49,0,0,0-3.85,2.95l.57,1.24c.18.39.44.9.69,1.46s.42,1.16.69,1.83c.51,1.37,1.11,3.16,1.7,5.17s1.18,4.34,1.73,6.89,1.06,5.32,1.48,8.28.82,6.09,1.08,9.33.42,6.58.46,9.93c0,1.76,0,3.54,0,5.32s0,3.69,0,5.55c0,3.7.12,7.4.27,11.05s.31,7.23.56,10.7c.46,6.94,1.1,13.42,1.81,19s1.49,10.18,2.13,13.42c.28,1.62.6,2.89.77,3.76l.32,1.33a1.44,1.44,0,0,0,2.81,0s.11-.46.31-1.33.49-2.14.78-3.76c.63-3.24,1.42-7.87,2.12-13.42s1.35-12,1.81-19c.25-3.47.42-7.06.56-10.7s.23-7.35.28-11.05c0-1.86,0-3.71,0-5.55s0-3.65-.1-5.68a84.22,84.22,0,0,0-1.26-11.4c-.32-1.83-.71-3.62-1.14-5.35l.72-.37a54.24,54.24,0,0,1,5.59-2.38,36.54,36.54,0,0,1,7.21-1.9,13.35,13.35,0,0,1,6.88.43,5,5,0,0,1,2,1.48,7.77,7.77,0,0,1,1.49,2.64c.94,2.25,1.32,5.62,1.43,9.12,0,4,0,8.06,0,12.12s.12,8.33.27,12.43.31,8.13.56,12c.46,7.8,1.1,15.09,1.81,21.34s1.49,11.45,2.13,15.09c.28,1.82.6,3.26.77,4.23l.32,1.5a1.42,1.42,0,0,0,1.11,1.11,1.45,1.45,0,0,0,1.7-1.11s.11-.52.31-1.5.5-2.41.78-4.23c.63-3.64,1.42-8.85,2.12-15.09s1.35-13.54,1.81-21.34c.25-3.91.42-7.94.56-12s.23-8.26.28-12.43c0-2.08,0-4.16,0-6.23v-3.11c0-1-.08-2.27-.12-3.39a44.7,44.7,0,0,0-.9-7.07c-.13-.64-.3-1.29-.48-1.94l.18-.1a55.35,55.35,0,0,1,6.19-2.61,32.9,32.9,0,0,1,7.92-1.76c2.73-.2,5.27.31,6.56,1.46a6.3,6.3,0,0,1,1.77,2.41,14.91,14.91,0,0,1,1.26,4.11c.19.77.22,1.7.36,2.55s.11,1.85.18,2.78c0,2.12,0,4.26,0,6.42,0,4.55.05,9.16.13,13.77s.23,9.23.43,13.77.41,9,.73,13.33c.25,2.78.53,5.49.82,8.13a227.27,227.27,0,0,0-14.45,20.3,94.76,94.76,0,0,0-5,9.16,50.51,50.51,0,0,0-2.92,7.62,31,31,0,0,0-1.05,5.22c-.08,1.23-.13,1.88-.13,1.88a1.41,1.41,0,0,0,2.69.69l.07-.16.69-1.52a41.23,41.23,0,0,1,2.3-4.1,99.67,99.67,0,0,1,10.7-13.24c2.72-3,5.81-6.17,9.1-9.57.44,3.21,1.06,6.19,1.6,8.82.54,2.81,1.13,5.24,1.58,7.24s1,3.58,1.26,4.65l.51,1.64a1.42,1.42,0,0,0,2.77-.33v-.13s0-.57.11-1.65.15-2.62.31-4.67.35-4.48.46-7.28.28-5.94.53-9.4c.17-2.78.33-5.75.46-8.85,2.66-2.79,5.36-5.68,8.07-8.7,3.25-3.63,6.48-7.44,9.59-11.44a112.38,112.38,0,0,0,8.65-12.76c.64-1.14,1.28-2.27,1.87-3.46.3-.6.59-1.15.88-1.79l.85-2,.42-1,.3-.82.61-1.64,0-.11.12-.31.07-.25.15-.5.3-1a17.9,17.9,0,0,0,.51-2A29.46,29.46,0,0,0,483.47,667.38Zm-14.13,5.11a10.36,10.36,0,0,1-.44,1.29l-.42,1.14-.69,1.61-.35.81-.32.62-.64,1.27-.75,1.37c-.49.94-1.06,1.87-1.62,2.81-2.3,3.74-4.92,7.55-7.75,11.29-1.76,2.37-3.6,4.73-5.44,7.08q.07-3,.14-6.1c.1-4.55.12-9.16.12-13.78s-.06-9.22-.2-13.76a75.27,75.27,0,0,0-.81-11.32l.6-.14a23.61,23.61,0,0,1,6.46-.25,21.06,21.06,0,0,1,7.65,2.23A9.54,9.54,0,0,1,469.8,664C470.54,666.09,470.42,669.05,469.34,672.49Z"/></g></g></svg>
