<svg xmlns="http://www.w3.org/2000/svg" viewBox="0 0 832.16 832.16"><defs><style>.cls-1{fill:#221e1f;}.cls-2{fill:#FFDD57;}.cls-2,.cls-3,.cls-4{fill-rule:evenodd;}.cls-3{fill:#fff;}.cls-4,.cls-5{fill:#FFDD57;}</style></defs><title>Element 7</title><g id="Ebene_2" data-name="Ebene 2"><g id="Layer_3" data-name="Layer 3"><circle class="cls-1" cx="416.08" cy="416.08" r="415.99" transform="translate(-172.35 416.08) rotate(-45)"/><path class="cls-2" d="M706,277.66a5.45,5.45,0,1,1-7.37,2.27A5.45,5.45,0,0,1,706,277.66Z"/><path class="cls-2" d="M640.37,686.65a5.45,5.45,0,1,1-7.37,2.27A5.45,5.45,0,0,1,640.37,686.65Z"/><path class="cls-3" d="M264.36,271.51c-2.77.86-9.22,9.27-9.22,9.27s3.33-10.06,2.47-12.84-9.26-9.22-9.26-9.22,10.06,3.33,12.83,2.48,9.23-9.27,9.23-9.27-3.33,10.07-2.48,12.84S277.2,274,277.2,274s-10.07-3.33-12.84-2.48Z"/><path class="cls-4" d="M44.27,455.52c-2.26.69-7.52,7.56-7.52,7.56s2.72-8.22,2-10.48-7.56-7.52-7.56-7.52,8.21,2.72,10.47,2,7.53-7.56,7.53-7.56-2.72,8.21-2,10.47,7.56,7.53,7.56,7.53-8.22-2.72-10.48-2Z"/><path class="cls-4" d="M590.25,677.17c-1.9.59-6.33,6.37-6.33,6.37s2.29-6.92,1.7-8.82-6.37-6.34-6.37-6.34,6.92,2.29,8.82,1.7,6.34-6.36,6.34-6.36-2.29,6.91-1.7,8.82,6.36,6.33,6.36,6.33-6.91-2.29-8.82-1.7Z"/><path class="cls-3" d="M333.58,790.68a71.33,71.33,0,0,0-9.52,4.39,69.61,69.61,0,0,0,8.09-6.66,71.31,71.31,0,0,0-8.55-6,71.6,71.6,0,0,0,9.8,3.67,69.89,69.89,0,0,0,1-10.43,72.78,72.78,0,0,0,1.72,10.33,70.76,70.76,0,0,0,9.52-4.38,69.94,69.94,0,0,0-8.09,6.65,70.94,70.94,0,0,0,8.55,6,70.22,70.22,0,0,0-9.81-3.68A71.91,71.91,0,0,0,335.3,801a73.07,73.07,0,0,0-1.72-10.33Z"/><path class="cls-3" d="M551.3,288.67a69,69,0,0,0-9.51,4.38,71.56,71.56,0,0,0,8.08-6.65,69.21,69.21,0,0,0-8.55-6,70.71,70.71,0,0,0,9.81,3.68,71.39,71.39,0,0,0,1-10.44,70.06,70.06,0,0,0,1.72,10.34,70.84,70.84,0,0,0,9.51-4.39,70.56,70.56,0,0,0-8.09,6.66,70.86,70.86,0,0,0,8.56,6,71.54,71.54,0,0,0-9.81-3.67A71.36,71.36,0,0,0,553,299a69.82,69.82,0,0,0-1.72-10.33Z"/><path class="cls-3" d="M133.33,309.36a70.76,70.76,0,0,0-9.52,4.38,69.94,69.94,0,0,0,8.09-6.65,70.06,70.06,0,0,0-8.55-6,70.71,70.71,0,0,0,9.81,3.68,70.42,70.42,0,0,0,1-10.43,73.07,73.07,0,0,0,1.72,10.33,71.33,71.33,0,0,0,9.52-4.39,70.71,70.71,0,0,0-8.09,6.66,71.31,71.31,0,0,0,8.55,6,71.6,71.6,0,0,0-9.8-3.67,69.89,69.89,0,0,0-1,10.43,72.78,72.78,0,0,0-1.72-10.33Z"/><path class="cls-3" d="M233.44,483.2a69,69,0,0,0-9.51,4.38,70.56,70.56,0,0,0,8.09-6.66,72.08,72.08,0,0,0-8.56-6,68.8,68.8,0,0,0,9.81,3.67,69.73,69.73,0,0,0,1-10.43A71.51,71.51,0,0,0,236,478.46a70.84,70.84,0,0,0,9.51-4.39,70.1,70.1,0,0,0-8.08,6.66,70.42,70.42,0,0,0,8.55,6,71.54,71.54,0,0,0-9.81-3.67,71.19,71.19,0,0,0-1,10.43,69.56,69.56,0,0,0-1.72-10.33Z"/><path class="cls-3" d="M734.93,462.35s-7.59,2.82-11.71,5.4c4.12-2.58,9.95-8.24,10-8.19s-6.24-5.17-10.53-7.44c4.29,2.27,12.11,4.5,12.07,4.52s1.36-8,1.18-12.84c.18,4.86,2.16,12.74,2.12,12.72s7.59-2.82,11.7-5.4c-4.11,2.58-10,8.24-10,8.19s6.24,5.17,10.53,7.44c-4.29-2.27-12.11-4.5-12.07-4.52s-1.36,8-1.18,12.84c-.18-4.86-2.16-12.74-2.12-12.72Z"/><path class="cls-3" d="M764.39,319.38s-7.59,2.81-11.71,5.4c4.12-2.59,10-8.24,10-8.2s-6.24-5.16-10.53-7.44c4.29,2.28,12.11,4.5,12.07,4.53s1.36-8,1.18-12.84c.18,4.85,2.16,12.74,2.12,12.71s7.59-2.81,11.71-5.39c-4.12,2.58-10,8.23-10,8.19s6.24,5.17,10.53,7.44c-4.29-2.27-12.11-4.5-12.07-4.52s-1.36,8-1.18,12.84c-.18-4.86-2.16-12.74-2.12-12.72Z"/><path class="cls-3" d="M469.67,788.57A3.39,3.39,0,1,1,465.1,790,3.38,3.38,0,0,1,469.67,788.57Z"/><path class="cls-3" d="M300.55,787.68a3.38,3.38,0,1,1-4.57,1.41A3.37,3.37,0,0,1,300.55,787.68Z"/><path class="cls-3" d="M166.82,674.64a3.39,3.39,0,1,1-4.58,1.41A3.4,3.4,0,0,1,166.82,674.64Z"/><path class="cls-3" d="M286.36,672.48a6.77,6.77,0,1,1-9.16,2.82A6.78,6.78,0,0,1,286.36,672.48Z"/><path class="cls-2" d="M361.29,480a3.8,3.8,0,1,1-5.13,1.59A3.8,3.8,0,0,1,361.29,480Z"/><path class="cls-2" d="M89.3,404.71a3.8,3.8,0,1,1-5.14,1.58A3.81,3.81,0,0,1,89.3,404.71Z"/><path class="cls-3" d="M599.6,474.48c-2.52.78-8.39,8.44-8.39,8.44s3-9.17,2.25-11.69-8.43-8.4-8.43-8.4,9.16,3,11.68,2.26,8.4-8.44,8.4-8.44-3,9.16-2.26,11.69,8.44,8.4,8.44,8.4-9.16-3-11.69-2.26Z"/><path class="cls-4" d="M138.72,204.65c-1.74.54-5.77,5.8-5.77,5.8s2.08-6.3,1.55-8-5.8-5.77-5.8-5.77,6.3,2.08,8,1.55,5.77-5.8,5.77-5.8-2.08,6.3-1.55,8,5.8,5.77,5.8,5.77-6.3-2.08-8-1.55Z"/><path class="cls-4" d="M357.86,362.31c-1.74.53-5.77,5.8-5.77,5.8s2.08-6.3,1.55-8-5.8-5.77-5.8-5.77,6.3,2.08,8,1.55,5.77-5.8,5.77-5.8-2.08,6.3-1.55,8,5.8,5.77,5.8,5.77-6.3-2.08-8-1.55Z"/><path class="cls-4" d="M259.88,153.45c-2.06.64-6.86,6.89-6.86,6.89s2.48-7.48,1.85-9.54S248,144,248,144s7.48,2.47,9.54,1.84,6.85-6.88,6.85-6.88-2.48,7.47-1.84,9.53,6.88,6.85,6.88,6.85-7.48-2.47-9.53-1.84Z"/><path class="cls-4" d="M629.72,146.59c-2.06.64-6.86,6.89-6.86,6.89s2.48-7.48,1.84-9.54-6.88-6.85-6.88-6.85,7.48,2.47,9.54,1.84,6.85-6.89,6.85-6.89-2.48,7.48-1.84,9.54,6.88,6.85,6.88,6.85-7.48-2.47-9.53-1.84Z"/><path class="cls-3" d="M321.71,83.79s-6.91,2.56-10.66,4.91c3.75-2.35,9.07-7.5,9.07-7.46s-5.68-4.7-9.59-6.77c3.91,2.07,11,4.09,11,4.11s1.24-7.26,1.08-11.68c.16,4.42,2,11.59,1.93,11.57s6.91-2.56,10.66-4.91c-3.75,2.35-9.07,7.5-9.07,7.46s5.68,4.7,9.59,6.77c-3.91-2.07-11-4.09-11-4.11s-1.24,7.26-1.08,11.68c-.16-4.42-2-11.59-1.93-11.57Z"/><path class="cls-3" d="M500.3,71.2a3.08,3.08,0,1,1-4.17,1.28A3.07,3.07,0,0,1,500.3,71.2Z"/><path class="cls-3" d="M166,616.17a3.08,3.08,0,1,1-4.16,1.28A3.07,3.07,0,0,1,166,616.17Z"/><path class="cls-3" d="M709.76,525.37a3.08,3.08,0,1,1-4.16,1.29A3.08,3.08,0,0,1,709.76,525.37Z"/><path class="cls-3" d="M492.66,182.75a6.16,6.16,0,1,1-8.34,2.56A6.17,6.17,0,0,1,492.66,182.75Z"/><path class="cls-3" d="M643.51,178.74a6.17,6.17,0,1,1-8.33,2.57A6.18,6.18,0,0,1,643.51,178.74Z"/><path class="cls-2" d="M463.33,247.61a3.46,3.46,0,1,1-4.67,1.44A3.46,3.46,0,0,1,463.33,247.61Z"/><path class="cls-2" d="M384.07,24.63a3.46,3.46,0,1,1-4.67,1.44A3.46,3.46,0,0,1,384.07,24.63Z"/><path class="cls-3" d="M199.33,97.1c-1,.29-3.17,3.19-3.17,3.19s1.15-3.46.85-4.42-3.18-3.16-3.18-3.16,3.46,1.14,4.41.85,3.17-3.19,3.17-3.19-1.14,3.46-.85,4.41S203.74,98,203.74,98s-3.46-1.14-4.41-.85Z"/><path class="cls-3" d="M193,159.05c-.95.29-3.17,3.18-3.17,3.18s1.14-3.46.85-4.41-3.18-3.17-3.18-3.17,3.46,1.15,4.41.85,3.17-3.18,3.17-3.18-1.15,3.46-.85,4.41,3.18,3.17,3.18,3.17-3.46-1.14-4.41-.85Z"/><path class="cls-3" d="M419.16,769.49C363.24,767.4,316.93,756,259.71,725.43c0,0,82.57-16.92,109.77-60.06,7-11.11,12.19-18.57,16.43-23.69a16.37,16.37,0,0,1-2.83-9.12c0-5.26,2.64-10.13,7.12-14-14-15.12-9.41-44.61,1.76-72.25,10.72-26.42,12.52-67.12,12.57-91.15-12.62-3.61-21.45-11.85-21.45-21.4,0-6.24,3.71-12,9.85-16.14-1.95-20.13,14.23-52.55,17.79-77.7,5.66-39.39-28.12-50.65-55.32-33.73-25.94,16.08-45.88,49.18-113.34,50.64L342.72,513.43h12.33c-12.23,60.83-51.37,106.36-121.28,106.36S124.68,574.26,112.44,513.43h12.38L225.68,356.51c-79.31-5.6-84.77-82.48-43.48-94,11.41-3.17,27.93-.93,35.29,9.9,14.09,20.62,1,39.38-13.11,33.78s-5.61-20.67,5.65-19.7-4.73-26.27-27.2-16.91-20.67,42.21-5.65,54.4,40.31,16.91,58.15,9.41,25.45-24.42,45.14-24.42,27.1,9.4,27.1,9.4-6.77-22.47,17.75-36.12,77,8,77,8-19.69-19.7-18.77-44.12,31-41.24,35.64-66.59c4.72,25.35,34.7,42.22,35.68,66.59s-18.77,44.12-18.77,44.12,52.5-21.65,77-8,17.75,36.12,17.75,36.12,7.36-9.4,27.05-9.4,27.35,16.91,45.19,24.42,43.14,2.78,58.15-9.41,16.87-45-5.65-54.4-38.46,17.84-27.2,16.91,19.69,14,5.65,19.7-27.2-13.16-13.16-33.78c7.41-10.83,23.94-13.07,35.34-9.9,41.29,11.55,35.83,88.43-43.48,94L713.54,513.43h12.38c-12.24,60.83-51.38,106.36-121.33,106.36s-109-45.53-121.28-106.36h12.33L596.3,356.8c-67.46-1.46-87.45-34.56-113.33-50.64-27.21-16.92-61-5.66-55.33,33.73,3.56,25.15,19.69,57.57,17.79,77.7,6.09,4.19,9.85,9.9,9.85,16.14,0,9.55-8.83,17.79-21.5,21.4.05,24,1.9,64.73,12.58,91.15,11.21,27.64,15.84,57.13,1.75,72.25,4.54,3.9,7.17,8.77,7.17,14a16.78,16.78,0,0,1-2.83,9.12c4.24,5.12,9.46,12.58,16.43,23.69,27.2,43.14,109.73,60.06,109.73,60.06-57.18,30.61-103.49,42-159.45,44.06ZM704.28,513.43,604.59,358.36,504.9,513.43Zm-370.87,0L233.77,358.36,134.09,513.43Zm-62.35,77.21c-31.58,10.63-88.62-1.9-114.84-22.42s-10.29-33.88,4.19-22.47,50.21,44.89,110.65,44.89Zm49.43-33.83c-25.49,28.13-86.72,25.84-101.15,13.65s9.12-16.33,28.91-4.92,62.74,0,72.24-8.73Zm-16-1.17c-29.63,5-51.67-3.41-47.52-13.31s14.86,12.53,47.52,13.31Zm262.8,35c31.54,10.63,88.57-1.9,114.84-22.42s10.24-33.88-4.19-22.47-50.21,44.89-110.65,44.89Zm-49.43-33.83c25.44,28.13,86.67,25.84,101.15,13.65s-9.17-16.33-28.91-4.92-62.74,0-72.24-8.73Zm15.94-1.17c29.69,5,51.72-3.41,47.53-13.31s-14.82,12.53-47.53,13.31Zm-124.55-296c0-8.48,4.44-15.3,9.9-15.3s9.94,6.82,9.94,15.3-4.44,15.26-9.94,15.26-9.9-6.82-9.9-15.26Zm9.9,164.77c8.48,0,15.3,4.43,15.3,9.94s-6.82,9.95-15.3,9.95-15.26-4.49-15.26-9.95,6.82-9.94,15.26-9.94Zm0,198.25c8.48,0,15.3,4.44,15.3,9.94s-6.82,9.9-15.3,9.9-15.26-4.44-15.26-9.9,6.82-9.94,15.26-9.94Zm-17.8,31c-10.77,33.74-60.44,58.16-78.28,65.62s4.24,27.2,40.8-2.34,37.48-63.28,37.48-63.28Zm35.64,0c10.77,33.74,60.44,58.16,78.28,65.62s-4.24,27.2-40.8-2.34S437,653.62,437,653.62Zm-17.84,3.27c-5.66,27.2-21.11,97.05,0,97.05s5.65-69.85,0-97.05Z"/><path class="cls-5" d="M326.16,110.1a1.43,1.43,0,0,1,1.27-1.27q7.6-.73,15.22-1.28c5.07-.4,10.14-.72,15.21-1s10.14-.63,15.21-.86l7.93-.38c-.42-1.39-.81-2.78-1.18-4.21a101.73,101.73,0,0,1-2.23-11.25A69.13,69.13,0,0,1,377,78.08a52.58,52.58,0,0,1,1.78-12.19A37.48,37.48,0,0,1,384.32,54a31.56,31.56,0,0,1,10.09-9,40.17,40.17,0,0,1,12.13-4.57,56.6,56.6,0,0,1,6.38-1,12.15,12.15,0,0,1,1.47-.11l1.34-.07,3-.14c2,.07,4,.07,6.05.27a53.18,53.18,0,0,1,6.15.93,40.41,40.41,0,0,1,12.21,4.52,32.14,32.14,0,0,1,10.2,9,36.3,36.3,0,0,1,5.73,11.92c2.31,8.28,2.23,16.4,1.34,24.1a101.16,101.16,0,0,1-2.17,11.33c-.29,1.12-.62,2.23-.94,3.35l7.08.32c5.07.21,10.14.44,15.21.76s10.14.57,15.21,1,10.14.74,15.22,1.21a2.44,2.44,0,0,1,0,4.85q-7.62.72-15.22,1.22c-5.07.39-10.14.66-15.21,1s-10.14.55-15.21.76-10.15.5-15.22.64a5.89,5.89,0,0,1-6-5.72,5.69,5.69,0,0,1,.25-1.86l.15-.48c.43-1.39.9-3.13,1.28-4.74s.74-3.3,1-5a87.54,87.54,0,0,0,1.28-10c.56-6.57.24-13.14-1.57-18.7a25.09,25.09,0,0,0-3.72-7.34,17.82,17.82,0,0,0-5.89-5.11,25.77,25.77,0,0,0-8-2.83,37.94,37.94,0,0,0-4.51-.66c-1.55-.13-3.16-.13-4.74-.24l-2.41.07-1.35,0a10.09,10.09,0,0,0-1.22.08,39.17,39.17,0,0,0-4.29.61,26.1,26.1,0,0,0-8,2.78,18.11,18.11,0,0,0-6,5.11,23.63,23.63,0,0,0-3.88,7.39,39.43,39.43,0,0,0-1.76,9.06,71.36,71.36,0,0,0,0,9.81,88.73,88.73,0,0,0,1.23,10,92.39,92.39,0,0,0,2.3,9.8l.17.55a5.13,5.13,0,0,1-3.45,6.38,5.28,5.28,0,0,1-1.71.21l-15.22-.75c-5.07-.22-10.14-.52-15.21-.85s-10.14-.63-15.21-1-10.15-.79-15.22-1.28A1.43,1.43,0,0,1,326.16,110.1ZM516,150.53l-2.17-.31c-1.41-.18-3.48-.5-6.12-.78s-5.83-.7-9.5-1-7.81-.76-12.32-1.1c-9-.71-19.58-1.36-30.87-1.82-5.64-.24-11.48-.41-17.41-.56s-11.94-.22-18-.27-12,0-18,0-11.76.19-17.41.34c-11.29.32-21.83.86-30.86,1.48-4.52.31-8.66.67-12.33,1s-6.86.66-9.5.94c-5.27.58-8.28,1-8.28,1a2.45,2.45,0,0,0,0,4.85s3,.46,8.28,1c2.64.29,5.84.65,9.5.95s7.81.69,12.33,1c9,.63,19.57,1.16,30.86,1.48,5.65.15,11.48.29,17.41.34s11.95.05,18,0,12.05-.13,18-.27,11.77-.31,17.41-.56c11.29-.46,21.83-1.1,30.87-1.82,4.51-.34,8.65-.75,12.32-1.1s6.87-.73,9.5-1,4.71-.6,6.12-.78l2.17-.31a1.42,1.42,0,0,0,0-2.81Z"/></g></g></svg>
