<svg xmlns="http://www.w3.org/2000/svg" viewBox="0 0 832.22 832.22"><defs><style>.cls-1,.cls-6{fill:#221e1f;}.cls-2{fill:#FFDD57;}.cls-2,.cls-3,.cls-4,.cls-6{fill-rule:evenodd;}.cls-3{fill:#fff;}.cls-4,.cls-5{fill:#FFDD57;}</style></defs><title>Element 8</title><g id="Ebene_2" data-name="Ebene 2"><g id="Layer_3" data-name="Layer 3"><circle class="cls-1" cx="416.11" cy="416.11" r="415.99" transform="translate(-172.36 416.11) rotate(-45)"/><path class="cls-2" d="M724.25,325.12a5.45,5.45,0,1,0-7,3.24A5.46,5.46,0,0,0,724.25,325.12Z"/><path class="cls-2" d="M401.92,65a5.45,5.45,0,1,0-7,3.24A5.45,5.45,0,0,0,401.92,65Z"/><path class="cls-3" d="M286.1,604.79c-2.63,1.22-13.05-.72-13.05-.72s9.21,5.25,10.43,7.89-.73,13-.73,13,5.26-9.21,7.89-10.43,13.06.73,13.06.73-9.21-5.26-10.43-7.89.72-13.06.72-13.06-5.25,9.21-7.89,10.43Z"/><path class="cls-4" d="M61.76,511.83c-2.14,1-10.65-.59-10.65-.59s7.51,4.29,8.51,6.43S59,528.33,59,528.33s4.29-7.52,6.44-8.51,10.65.59,10.65.59-7.52-4.29-8.51-6.44.59-10.65.59-10.65-4.29,7.51-6.44,8.51Z"/><path class="cls-4" d="M314.39,56c-1.81.84-9-.49-9-.49s6.32,3.61,7.16,5.42-.49,9-.49,9,3.61-6.33,5.41-7.17,9,.5,9,.5-6.33-3.61-7.17-5.42.5-9,.5-9-3.61,6.32-5.42,7.16Z"/><path class="cls-3" d="M104.26,192.76a69.59,69.59,0,0,1-10,3.1,72.08,72.08,0,0,1,10.46-.46,69.62,69.62,0,0,1-2.31,10.22,71.06,71.06,0,0,1,4.83-9.29,69.24,69.24,0,0,1,7.69,7.11,70.25,70.25,0,0,1-5.63-8.83,69.59,69.59,0,0,1,10-3.1,72.17,72.17,0,0,1-10.47.46,70.47,70.47,0,0,1,2.32-10.22,69.36,69.36,0,0,1-4.84,9.29,70.46,70.46,0,0,1-7.68-7.11,72.32,72.32,0,0,1,5.63,8.83Z"/><path class="cls-3" d="M212.78,710.54a72.1,72.1,0,0,1-10,3.1,70.54,70.54,0,0,1,10.46-.46,70.47,70.47,0,0,1-2.32,10.22,70.44,70.44,0,0,1,4.84-9.3,71.81,71.81,0,0,1,7.69,7.12,70.08,70.08,0,0,1-5.63-8.84,71.62,71.62,0,0,1,10-3.1,70.57,70.57,0,0,1-10.46.46,70.16,70.16,0,0,1,2.32-10.21,71.35,71.35,0,0,1-4.84,9.29,71.81,71.81,0,0,1-7.69-7.12,70.08,70.08,0,0,1,5.63,8.84Z"/><path class="cls-3" d="M92.92,377.79a70.21,70.21,0,0,1-10,3.1,70.57,70.57,0,0,1,10.46-.46,71.35,71.35,0,0,1-2.31,10.22,70.86,70.86,0,0,1,4.83-9.3,71.81,71.81,0,0,1,7.69,7.12A71,71,0,0,1,98,379.64a69.75,69.75,0,0,1,10-3.1A70,70,0,0,1,97.5,377a70.45,70.45,0,0,1,2.32-10.21A69.36,69.36,0,0,1,95,376.07,70.19,70.19,0,0,1,87.29,369a70.25,70.25,0,0,1,5.63,8.83Z"/><path class="cls-3" d="M454.63,190.56c0-.05-7.53,3-12.32,3.81,4.79-.83,12.91-.53,12.89-.56s-1.18,8-2.86,12.57c1.68-4.56,6-11.44,6-11.44s6.35,5,9.47,8.76c-3.12-3.73-6.92-10.91-6.93-10.87s7.52-3,12.31-3.82c-4.79.83-12.91.53-12.88.57s1.18-8,2.85-12.58c-1.67,4.57-6,11.45-5.95,11.44s-6.35-5-9.46-8.76c3.11,3.73,6.91,10.92,6.93,10.88Z"/><path class="cls-3" d="M719.38,220.29s-7.53,3-12.31,3.81c4.78-.83,12.91-.53,12.88-.56s-1.18,8-2.85,12.57c1.67-4.56,6-11.44,5.95-11.43s6.34,5,9.46,8.75c-3.12-3.73-6.92-10.91-6.93-10.87s7.53-3,12.31-3.82c-4.78.84-12.9.54-12.88.57s1.18-8,2.86-12.57c-1.68,4.56-6,11.44-6,11.43s-6.35-5-9.47-8.75c3.12,3.73,6.92,10.91,6.93,10.87Z"/><path class="cls-3" d="M206.85,103.32a3.38,3.38,0,1,0-4.34,2A3.38,3.38,0,0,0,206.85,103.32Z"/><path class="cls-3" d="M81.71,217.08a3.38,3.38,0,1,0-4.34,2A3.37,3.37,0,0,0,81.71,217.08Z"/><path class="cls-3" d="M50.43,399.56a3.39,3.39,0,1,0-4.34,2A3.4,3.4,0,0,0,50.43,399.56Z"/><path class="cls-3" d="M264.93,276.31a6.77,6.77,0,1,0-8.69,4A6.78,6.78,0,0,0,264.93,276.31Z"/><path class="cls-2" d="M324.13,334.51a3.8,3.8,0,1,0-4.88,2.26A3.81,3.81,0,0,0,324.13,334.51Z"/><path class="cls-2" d="M202,568.93a3.8,3.8,0,1,0-4.87,2.26A3.79,3.79,0,0,0,202,568.93Z"/><path class="cls-3" d="M503.58,274.68c-2.4,1.11-11.89-.66-11.89-.66s8.39,4.79,9.5,7.18-.66,11.89-.66,11.89,4.78-8.38,7.18-9.5,11.89.66,11.89.66-8.39-4.78-9.5-7.18.66-11.88.66-11.88-4.79,8.38-7.18,9.49Z"/><path class="cls-4" d="M630.47,121.11c-1.65.77-8.17-.45-8.17-.45s5.76,3.29,6.52,4.94-.45,8.16-.45,8.16,3.29-5.76,4.94-6.52,8.16.45,8.16.45-5.76-3.29-6.52-4.93.45-8.17.45-8.17-3.29,5.76-4.93,6.52Z"/><path class="cls-4" d="M563.51,335c-1.65.76-8.17-.45-8.17-.45s5.76,3.29,6.52,4.93-.45,8.17-.45,8.17,3.29-5.76,4.94-6.52,8.16.45,8.16.45-5.76-3.29-6.52-4.94.45-8.16.45-8.16-3.29,5.76-4.93,6.52Z"/><path class="cls-4" d="M408.16,770c-2,.9-9.7-.54-9.7-.54s6.84,3.9,7.74,5.86-.53,9.7-.53,9.7,3.9-6.84,5.86-7.75,9.7.54,9.7.54-6.85-3.91-7.75-5.86.54-9.7.54-9.7-3.91,6.84-5.86,7.75Z"/><path class="cls-4" d="M755.16,473.6c-1.95.91-9.7-.53-9.7-.53s6.85,3.9,7.75,5.86-.54,9.69-.54,9.69,3.91-6.84,5.86-7.74,9.7.53,9.7.53-6.84-3.9-7.74-5.85.53-9.7.53-9.7-3.9,6.84-5.86,7.74Z"/><path class="cls-3" d="M616.73,714.13s-6.85,2.72-11.21,3.47c4.36-.75,11.76-.48,11.73-.51s-1.07,7.29-2.6,11.45c1.53-4.16,5.46-10.42,5.42-10.42s5.78,4.58,8.62,8c-2.84-3.4-6.3-9.94-6.31-9.9s6.85-2.72,11.21-3.48c-4.36.76-11.75.49-11.73.52s1.08-7.3,2.6-11.45c-1.52,4.15-5.46,10.42-5.42,10.41s-5.78-4.57-8.61-8c2.83,3.4,6.29,9.94,6.3,9.9Z"/><path class="cls-3" d="M680.24,661.76a3.08,3.08,0,1,0-4,1.84A3.08,3.08,0,0,0,680.24,661.76Z"/><path class="cls-3" d="M96.39,434.56a3.08,3.08,0,1,0-4,1.83A3.08,3.08,0,0,0,96.39,434.56Z"/><path class="cls-3" d="M660.76,181.64a3.08,3.08,0,1,0-4,1.83A3.08,3.08,0,0,0,660.76,181.64Z"/><path class="cls-3" d="M596.84,611.48a6.17,6.17,0,1,0-7.91,3.66A6.16,6.16,0,0,0,596.84,611.48Z"/><path class="cls-3" d="M794.64,364.37a6.16,6.16,0,1,0-7.91,3.67A6.17,6.17,0,0,0,794.64,364.37Z"/><path class="cls-2" d="M563.9,509.76a3.46,3.46,0,1,0-4.44,2.06A3.46,3.46,0,0,0,563.9,509.76Z"/><path class="cls-2" d="M654.09,728.55a3.46,3.46,0,1,0-4.44,2.06A3.47,3.47,0,0,0,654.09,728.55Z"/><path class="cls-3" d="M468.27,798.21c-.91.42-4.49-.25-4.49-.25s3.17,1.81,3.59,2.71-.25,4.49-.25,4.49,1.8-3.16,2.71-3.58,4.48.25,4.48.25-3.16-1.81-3.58-2.71.25-4.49.25-4.49-1.81,3.16-2.71,3.58Z"/><path class="cls-3" d="M713.81,603.94c-.9.42-4.48-.25-4.48-.25s3.16,1.81,3.58,2.71-.25,4.49-.25,4.49,1.81-3.17,2.71-3.59,4.49.25,4.49.25-3.17-1.8-3.59-2.71.25-4.48.25-4.48-1.8,3.16-2.71,3.58Z"/><path class="cls-3" d="M677,450.31c22.17,7.23,35.23,25.69,39.89,33.44-1.35-8.68-7.46-29.53-21.12-48-13.55-18.31-30.21-28.66-49.5-30.75a.93.93,0,0,1-.55-.25c-12.74-12.61-26.57-19-41.11-19-17.43,0-35.09,9.51-48.45,26.09a.91.91,0,0,1-1.16.22c-10.65-6.09-22.94-9.58-33.72-9.58-7.1,0-12.7,1.55-15.76,4.36a.91.91,0,0,1-.89.2,10.52,10.52,0,0,0-7.51.68c-7.3,3.29-18.73,11.93-26.55,23.15a.93.93,0,0,1-1.06.33,100.31,100.31,0,0,0-33.73-5.75,79,79,0,0,0-20.55,2.48.92.92,0,0,1-1-.43c-.81-1.44-1.7-3-2.78-4.8C405.2,412.38,385,406,369.1,405.87a.94.94,0,0,1-.83-.55.91.91,0,0,1,.16-1c7.38-8.23,20.11-24.57,24.91-35.87a.9.9,0,0,1,.91-.55c1.57.13,3.34.19,5.28.19,13.58,0,33.5-3.11,45.36-7.09a.89.89,0,0,1,1,.26c3.22,3.69,11.67,7.53,22.36,12.4,4.15,1.89,8.86,4,13.7,6.37l.24.11c11.92,5.79,19.8,9.61,24.13,11a.88.88,0,0,1,.2.09,5.17,5.17,0,0,0,5.24.14c2.46-1.25,4.35-6,6.34-11l.17-.42c3.77-9.51,9.2-11.56,14.46-13.54,1.08-.41,2.17-.82,3.25-1.3.38-.17.68-.32.92-.44l-.62,0c-5.11,0-16.35,2.43-24.19,7-5.73,3.3-7.79,7.26-8.51,10a.87.87,0,0,1-.6.64.92.92,0,0,1-.86-.17c-11.31-9.49-34.37-24.88-47.95-27.76a1,1,0,0,1-.62-.48c-2.55-5-14.68-8-32.46-8-2.2,0-4.48.05-6.78.14-14,.55-23.85,6.24-27.46,11.64a1,1,0,0,1-.6.39c-10.64,1.93-16,13.16-28.8,40.29l-2.91,6.15a.92.92,0,0,1-.8.52,1,1,0,0,1-.83-.48c-7.73-14.21-27.5-25.73-52.9-30.84a.92.92,0,0,1-.7-.63c-1.66-5.67-6.1-19.9-11.51-29.67a.91.91,0,0,1,.36-1.24C301,335.07,319.53,320,327,310.51a1,1,0,0,1,.63-.35,1,1,0,0,1,.69.22c3.67,3.21,12.53,5.89,23.75,9.28,4.39,1.33,9.37,2.83,14.53,4.52l.25.08c12.67,4.15,21.05,6.9,25.5,7.65a.88.88,0,0,1,.42.18,5.14,5.14,0,0,0,6.09.39c2.43-1.51,4.09-6.77,5.69-11.85,3.06-9.74,8.35-12.17,13.46-14.52,1.05-.48,2.12-1,3.17-1.53.37-.19.65-.36.88-.5-4.07.06-16.07,3.13-24.25,8.69-5.88,4-7.52,8.29-7.86,11.17a.93.93,0,0,1-.52.72.89.89,0,0,1-.88-.07c-12.13-8-40.77-22.21-54.67-22.21a12.48,12.48,0,0,0-3.89.53.88.88,0,0,1-.84-.14,8.07,8.07,0,0,0-5-1.33c-7.16,0-19.31,5-33.33,13.78-13.39,8.42-19.92,21-17.62,27.42a.86.86,0,0,1,0,.59,16,16,0,0,0-.55,7.13.91.91,0,0,1-1.56.75c-11-11.66-26.77-22.41-41.2-28.05a.94.94,0,0,1-.56-.65c-2.85-12.9-16.69-49.58-31-55.78a5.34,5.34,0,0,0-2.24-.38,28.14,28.14,0,0,0-4.54.53.91.91,0,0,1-1-1.3,31,31,0,0,0,1.23-2.89c6.31-17.27-2.93-47.44-7.19-59.61l-.17-.47a6.16,6.16,0,0,0-3.16-3,.93.93,0,0,1-.5-.77,1,1,0,0,1,.42-.81c.46-.29.93-.63,1.39-1,16.52-12.63,20.15-28.1,20.29-38.87,0-.6,0-1.17.05-1.69a.91.91,0,0,1,1-.83l1.94.14.85,0c9.52,0,23.42-8.22,33-14.4.56-.34,1-.66,1.48-1l.31-.2a.91.91,0,0,1,1.23.2c6.65,8.75,30.19,27.87,37,27.87a30.37,30.37,0,0,0,8.44-1.36.92.92,0,0,1,1,.31,20.38,20.38,0,0,1,2.08,3,.89.89,0,0,1,0,.78.85.85,0,0,1-.57.51c-6.85,2-11.83,9-13.67,19.18-2.11,11.64.55,24,6.06,28.2a.92.92,0,0,1,.19,1.27c-.11.13-10.14,13.87-5.4,24.7,3,6.94,10.64,11.89,15.85,14.6a22.53,22.53,0,0,1-5.48-9c-.93-3.35.06-7.65,2.66-11.52a22.15,22.15,0,0,1,15.83-9.65c12.63-1.55,26.7-16.73,26.62-34.72-.15-20.17-18-27.29-23.92-29.64a62.3,62.3,0,0,1-10.79-5.44.9.9,0,0,1-.42-.73,6.08,6.08,0,0,0-1.2-3.05c-8.13-11.36-18.32-24-32.08-31.08-5.76-3-9.76-4.3-13-4.3a16.55,16.55,0,0,0-5,.93.9.9,0,0,1-1.07-.44c-.84-1.56-2.54-3.44-8.23-4.08a19.34,19.34,0,0,0-2.15-.11c-12.62,0-40.22,7.85-46.33,19a21.59,21.59,0,0,0-1.86,4.45.91.91,0,0,1-1.2.61,6.94,6.94,0,0,0-2.46-.49c-2.1,0-4.22,1.2-6.66,3.79-10.44,11.06-27.18,34.43-27.66,50,0,1.43,1.91,2.58,3.55,3.29a.91.91,0,0,1,0,1.69c-3.84,1.38-8.49,4.07-8.82,9.08-1,14.6,1.45,49.4,8.41,62.42a10.45,10.45,0,0,0,3.67,4,.91.91,0,0,1,.13,1.42,10.21,10.21,0,0,0-2.88,11.4,119.25,119.25,0,0,1,2.69,13c3,16.84,8,45,19.77,52.84a.89.89,0,0,1,.37,1c-7.45,27.12-1.22,58.42.87,67.37a.92.92,0,0,1-1.18,1.07c-16.06-5.35-24.9-7.9-31.75-7.9a17.1,17.1,0,0,0-8.43,1.93.87.87,0,0,1-.48.11c-6.71-.3-17.18,8.22-22.73,22.73-7.18,18.92-9.3,33.88-5.52,39a.91.91,0,0,1,.07.95c-5.53,11,9.59,50.37,17.2,63.39a.89.89,0,0,1,0,.84.9.9,0,0,1-.66.52c-4.45.83-8.36,4.54-10.73,10.19-4,9.37-4.56,21.95-3.83,25.59.1-.27.22-.61.36-1,.34-1.13.61-2.26.88-3.39,1.31-5.48,2.67-11.15,11.59-16,5-2.75,9.54-5.27,10.5-7.9a5.1,5.1,0,0,0-2.33-6.44.89.89,0,0,1-.43-.71c-.35-4.53-2.19-12.89-5.17-26.16-1.18-5.34-2.2-10.48-3.09-15-2.39-12.11-4.27-21.67-7.42-25.1a.91.91,0,0,1,0-1.23c7.78-8.45,19.63-30.42,24.38-45.21a.89.89,0,0,1,1.13-.59c12.76,3.92,32.43,5.71,41.83,5.91a.91.91,0,0,1,.81.55l.21.43.25.52c3.41,7.46,6.89,11.07,11.28,11.68a.91.91,0,0,1,.64.4.94.94,0,0,1,.11.75c-1.44,5.06-1.6,8.76,1.25,17.27,2.71,8.15,8.31,17.36,17.11,28.17a.91.91,0,0,1,.19.76.89.89,0,0,1-.48.62l-2,1.06c-22.81,11.73-34.26,17.63-37.95,25.88a.9.9,0,0,1-.3.37C167.57,529,161.51,537,159,549.35c-4.06,19.68-3.79,34.76.7,39.36a.85.85,0,0,1,.25.52c1.92,14.62,14.24,38.82,22,50.57a.91.91,0,0,1,.11.77.92.92,0,0,1-.53.58c-2.71,1.12-6.43,3.85-8.73,10.54-3.31,9.63-3,22.23-2,25.79a10.37,10.37,0,0,0,.29-1.08c.25-1.14.43-2.28.62-3.41.91-5.57,1.85-11.33,10.42-16.86l.15-.1c4.65-3,9-5.83,9.79-8.49a5.2,5.2,0,0,0-2.7-6.25.93.93,0,0,1-.46-.57c-1.27-4.78-3.64-11.87-7.11-22.13-1.74-5.15-3.28-10.13-4.65-14.52-3-9.66-5.38-17.28-8-21.64a.94.94,0,0,1,0-.89c6.19-12,12.82-32.92,14.48-45.66a.89.89,0,0,1,.48-.69c11.82-6.14,29-20.59,36.33-28.23a1,1,0,0,1,.67-.28.89.89,0,0,1,.67.3c3.31,3.66,6.7,7.3,10,10.87l2.9,3.1c4.32,4.57,10.07,7.15,17.07,7.65a.92.92,0,0,1,.67.36.89.89,0,0,1,.16.74c-.6,2.77.53,5.56,3.56,8.79a95.75,95.75,0,0,0,13.18,11.43.9.9,0,0,1,.37.72.92.92,0,0,1-.35.73l-3.59,2.81c-24.24,18.92-34.28,26.76-33,38.23a.88.88,0,0,1-.28.75c-4.87,4.65-6.24,17.86-.11,31.9,7.39,17,15.54,28.67,21.8,31.31a1,1,0,0,1,.52.59c4.08,14.17,25.82,38.51,36.33,47.59a.9.9,0,0,1,.3.87.93.93,0,0,1-.61.69c-4.54,1.48-7.9,6-9.22,12.44-2.1,10.28,0,22.36,1.36,25.76a9,9,0,0,0,.13-1c.11-1.18.15-2.35.19-3.52.2-5.61.4-11.42,8.16-18,4.29-3.65,8.31-7.05,8.71-9.81a4.92,4.92,0,0,0-1.14-4.22.93.93,0,0,1-.19-.37c-.95-3.48-6-11.28-14.73-24.77-3-4.57-5.7-9-8.12-12.95-6.56-10.64-11.74-19-15.9-21.05a.88.88,0,0,1-.51-.72c-1.47-14.05-9.45-38.93-16.12-50.23a.91.91,0,0,1,.27-1.21c12.07-8.29,30.21-31.37,34.17-38.61l.15-.31c0-.09.09-.17.12-.26a.91.91,0,0,1,.57-.53.88.88,0,0,1,.77.1c9.79,6.23,29.48,17.42,51.34,22.33,5.83,1.31,12.09-.26,18.63-4.69a1,1,0,0,1,.51-.15.87.87,0,0,1,.42.1.89.89,0,0,1,.49.79,14,14,0,0,0,1.14,5.46,6.21,6.21,0,0,0,2.69,2.61.94.94,0,0,1,.46.72.92.92,0,0,1-.35.78c-22,17.39-32.07,25.33-31.85,35.93a.94.94,0,0,1-.07.37c-2.81,6.72-3.21,15.75-1.08,24.78,4.37,19,10.74,32.55,16.64,35.33a.91.91,0,0,1,.49.59c3.68,13.89,25.87,38.56,36.73,47.88a.91.91,0,0,1-.32,1.56c-4.65,1.45-8.08,6-9.39,12.48-2.1,10.29,0,22.39,1.37,25.79,0-.27.09-.6.13-1,.11-1.21.14-2.39.18-3.57.19-5.62.38-11.43,8.16-18,4.3-3.65,8.31-7,8.71-9.81a5,5,0,0,0-.8-3.77,1,1,0,0,1-.15-.37c-.51-3.18-5.93-11.42-14.91-25.07-3.1-4.7-5.87-9.12-8.31-13-6.44-10.31-11.53-18.45-15.68-20.73a.9.9,0,0,1-.47-.87c1.11-12.86-1.62-36.62-5.74-49.85a.91.91,0,0,1,.27-.95c11.6-10.17,25.64-28.6,29.12-34.84a.89.89,0,0,1,.92-.46,123.74,123.74,0,0,0,17,1.06c4.73,0,9.6-.21,14.49-.62a1,1,0,0,1,.79.34.93.93,0,0,1,.16.85c-3.89,12.23-4.14,25.49-2.73,32.64a10,10,0,0,0,5,7.26.92.92,0,0,1,.49.74c.74,10,11.47,26.45,29.9,37.12a.89.89,0,0,1,.42,1c-5.49,22.35-1.45,45.75,10.55,61.07,11,14.06,28.37,20.85,49.89,19.52a.84.84,0,0,1,.57.16c11,7.72,23.89,11.63,38.22,11.63,29.65,0,58.06-17,66.82-24.39a85.39,85.39,0,0,1-25.62,4.08A66.89,66.89,0,0,1,548,734.4a.94.94,0,0,1-.56-.83.93.93,0,0,1,.53-.84c7.23-3.34,14.89-7.33,22.75-11.87,28.13-16.16,59.88-43.39,64.56-65.78-25.23,9.66-43.39,14.17-57.06,14.17-18,0-26.24-7.9-35.79-17-10.27-9.83-21.91-21-48.91-26.3a55.53,55.53,0,0,0-10.73-1.07,46.39,46.39,0,0,0-29,9.78,1,1,0,0,1-.78.17.91.91,0,0,1-.61-.52c-.73-1.65-1.5-3.13-2.23-4.5a33.28,33.28,0,0,0-17.86-15.21.93.93,0,0,1-.56-.6.9.9,0,0,1,.15-.81A69.93,69.93,0,0,0,436.1,607c6.57-10.63,9-21.43,6.93-30.39a.91.91,0,0,1,.49-1,287.29,287.29,0,0,0,47.78-29.66.9.9,0,0,1,1.27.16c3.88,4.94,10.46,6,15.3,6a38.92,38.92,0,0,0,7.07-.67,46.86,46.86,0,0,1-6.45-20,.87.87,0,0,1,.26-.71,74.61,74.61,0,0,0,7.7-9,.93.93,0,0,1,.68-.38c1.19-.09,2.39-.13,3.59-.13a44.68,44.68,0,0,1,8.82.84c-.49-3-2.17-10.67-6.87-15.54a.91.91,0,0,1-.25-.7c1-13.83-6.33-32.12-19.65-48.92a.92.92,0,0,1-.06-1.05,61.65,61.65,0,0,0,4.54-8.76c1.1-2.58,2.11-5.3,3-8.08a.91.91,0,0,1,.59-.59.87.87,0,0,1,.82.13,33.39,33.39,0,0,0,19.62,6.64H532c2.51-.09,5-.29,7.31-.58a.89.89,0,0,1,.77.28.9.9,0,0,1,.24.78,43,43,0,0,0-.62,5.3c-1.25,18.88,7.82,35.37,24.89,45.26,19.33,11.16,33.43,12.67,44.67,12.67,3.28,0,6.41-.14,9.43-.28s5.58-.25,8.28-.25c18.23,0,34.52,4.39,63.52,59.25,11.22-20,5.25-61.39-5.28-92.05-2.87-8.43-6-16.48-9.31-23.91a.92.92,0,0,1,.16-1A.91.91,0,0,1,677,450.31ZM298.13,222.8c11.32-10.89,9.25-24.23,2.19-32.63-2-2.36-2.47-5-1.34-7.43,1.5-3.2,5.6-5.44,10-5.44a13.3,13.3,0,0,1,11.29,6.32,22,22,0,0,1,2.35,19.27c-3.08,9.34-11.66,17.15-23.54,21.42a1.12,1.12,0,0,1-.31.05.9.9,0,0,1-.63-1.56ZM245.2,126.51a.82.82,0,0,1,.75-.33.89.89,0,0,1,.71.4c7.09,10.62,18.72,17.89,25.66,22.24,4.42,2.76,6,3.78,6.13,4.9a1.23,1.23,0,0,1-.28,1,5.13,5.13,0,0,1-4.08,1.59c-2.72,0-7.51-1.36-14.94-7.8C247.56,138.54,241.18,131.38,245.2,126.51ZM198.34,133c7.58-7.08,21.2-11.46,29.48-11.46,3.24,0,5.32.68,6.18,2a2.15,2.15,0,0,1,.14,2.2c-2.41,4.91-26.15,8-35.1,8.8H199a.91.91,0,0,1-.62-1.58Zm-36.82,51c7.51-16.67,20.91-35.48,27-38,5.08-2.1,8.29.44,8.29,6.08,0,1.67-1.77,2.78-5,4.79-5.87,3.68-16.8,10.52-28.76,28a.94.94,0,0,1-.75.4.92.92,0,0,1-.45-.12A.91.91,0,0,1,161.52,184Zm-1.66,34.3a.92.92,0,0,1-.85.58h-.13a.91.91,0,0,1-.78-.84c-.48-7,.88-12.29,4.05-15.68a12.17,12.17,0,0,1,9-3.81,11.94,11.94,0,0,1,4.84,1,2.1,2.1,0,0,1,1.42,1.69c.08,1.45-1.74,2.59-4.76,4.48C168.5,208.29,162.16,212.26,159.86,218.28Zm26.73,50.12a139,139,0,0,0-16.34,4.79,1,1,0,0,1-.33.05.93.93,0,0,1-.73-.36.91.91,0,0,1,0-1.1c.22-.29,5.47-7,11.93-7a9.44,9.44,0,0,1,5.8,2,.89.89,0,0,1,.34.92A.92.92,0,0,1,186.59,268.4Zm8.21,75.27a.9.9,0,0,1-.66.28.88.88,0,0,1-.47-.13.9.9,0,0,1-.39-1.07c.24-.73,6.19-18.08,19.63-18.08a19.48,19.48,0,0,1,9,2.46.91.91,0,0,1,.46,1,.89.89,0,0,1-.82.72C208.11,329.93,194.93,343.53,194.8,343.67Zm79.45,37.62c-25.14,8.69-55.1,47.81-55.4,48.21a.9.9,0,0,1-.72.36.88.88,0,0,1-.44-.12.9.9,0,0,1-.41-1.12c.1-.28,10.94-28.34,31.07-41.16,11.51-7.38,18.22-8.92,21.82-8.92,3.1,0,4.3,1.11,4.43,1.24a.92.92,0,0,1-.35,1.51Zm74.06,34c-24.08,5.84-68.09,75.69-68.53,76.4a.91.91,0,0,1-.77.42.79.79,0,0,1-.3-.05.91.91,0,0,1-.61-.95c1.37-13,31.34-78.38,64-78.38a24.1,24.1,0,0,1,6.21.8.91.91,0,0,1,0,1.76Zm66.57,47c-.22,0-22.17,4.85-31.37,20.84-9.32,16.34-20.52,46.33-20.63,46.63a.92.92,0,0,1-.85.59h-.17a.92.92,0,0,1-.75-.9c0-1.78.18-43.77,15.69-57.5,12.52-11,21.16-13.65,24.22-14.25-.93-2.55-2.83-9-.39-13.82,1.36-2.71,3.84-4.49,7.37-5.28a.92.92,0,0,1,1,.4.9.9,0,0,1-.05,1.05,10.52,10.52,0,0,0-2.46,8.28c1,6.86,8.68,12.27,8.76,12.33a.92.92,0,0,1,.37.93A.94.94,0,0,1,414.88,462.31Zm78.51,177.41a15.28,15.28,0,0,1,8.23-2.82c5.58,0,10.1,4.2,16.36,10,8.91,8.28,21.1,19.62,44.58,27a.91.91,0,0,1-.27,1.78h0c-27.27-1.18-69.54-15.93-72.84-28.13C488.85,645.52,489.09,642.48,493.39,639.72ZM448.22,515.78a6.66,6.66,0,0,1-3.52-1,6.77,6.77,0,0,1,3.53-12.57,6.86,6.86,0,0,1,6.59,5.18,6.78,6.78,0,0,1-6.6,8.4Zm15.37-2.85a17.16,17.16,0,0,1-10.42,7.72l-.23,0a.92.92,0,0,1-.38-1.75A10.83,10.83,0,1,0,439,503.38a10.74,10.74,0,0,0,2.11,13.71.9.9,0,0,1,.14,1.23.92.92,0,0,1-1.21.24,17,17,0,1,1,23.58-5.63Zm14.94-27.76a6.7,6.7,0,0,1-3.47-1,6.81,6.81,0,0,1-2.3-9.32,6.7,6.7,0,0,1,5.79-3.28,6.79,6.79,0,1,1,0,13.57Zm15.36-2.85A16.91,16.91,0,0,1,483.46,490l-.22,0a.92.92,0,0,1-.37-1.75,10.81,10.81,0,0,0,1.29-19.17,10.66,10.66,0,0,0-5.59-1.59,10.85,10.85,0,0,0-7.18,19,.89.89,0,0,1,.13,1.22.91.91,0,0,1-1.21.23,17.19,17.19,0,0,1-5.57-23.39,17.06,17.06,0,0,1,29.15,17.73Zm171.68-20.75a1,1,0,0,1-.37.08.9.9,0,0,1-.78-.43C651.32,440.4,637.26,431.47,627,425s-16.86-10.7-13.21-21.94c1.58-4.83,4.44-5.85,6.56-5.85,12.63,0,37.65,37.16,45.72,63.31A.9.9,0,0,1,665.57,461.57Z"/><path class="cls-5" d="M641.61,260.85c-2.5-.77-5-1.47-7.58-2.06s-5.13-1.1-7.73-1.54-5.26-.71-7.94-.89c-1.34-.08-2.69-.15-4.06-.13a38.82,38.82,0,0,0-4.15.17,2.66,2.66,0,0,0-1.76.94,2.62,2.62,0,0,0,.35,3.7,39.7,39.7,0,0,0,3.36,2.44c1.13.78,2.29,1.47,3.45,2.15,2.33,1.34,4.7,2.54,7.1,3.66,2.11.95,4.23,1.85,6.39,2.66-1,.42-2.08.86-3.3,1.32a39.32,39.32,0,0,1-10.2,2.53c-3.85.36-7.88-.34-10.72-2.9s-4.93-7-6-12.36a54.09,54.09,0,0,1-.93-8.45c0-1.48,0-2.81,0-4.44s.12-3.33.18-5c.25-6.74.41-13.71.56-20.8s.22-14.28.27-21.47,0-14.39,0-21.48-.18-14-.34-20.8c0-1.68-.09-3.36-.13-5a52.14,52.14,0,0,0-.43-5.61,35.62,35.62,0,0,0-3.28-11.11,23.93,23.93,0,0,0-17.47-13.24,32.71,32.71,0,0,0-17,1.77,41.63,41.63,0,0,0-10.93,5.94,37.55,37.55,0,0,0-3,2.43,25,25,0,0,0-5.88-6.38,24.13,24.13,0,0,0-8.11-4,30.45,30.45,0,0,0-15-.06,38.65,38.65,0,0,0-10.9,4.46,40.2,40.2,0,0,0-7,5.18,42.43,42.43,0,0,0-2.37-6.55,29.58,29.58,0,0,0-6.21-8.65,68.58,68.58,0,0,0-5.54-4.77c-1.47-1.21-2.64-2.06-3.46-2.78l-1.26-1a2.47,2.47,0,0,0-3.7,3.13l.8,1.41c.5.88,1.37,2.31,2.52,4s2.49,3.59,3.8,5.65A24.65,24.65,0,0,1,487,129.8a45,45,0,0,1,1.2,9.28c.16,3.51.17,7.31.05,11.32s-.27,8.39-.3,12.71-.05,8.8,0,13.24.13,8.87.27,13.24.31,8.67.56,12.83c.46,8.31,1.1,16.08,1.82,22.73.34,3.33.75,6.38,1.1,9.08s.73,5.06,1,7,.6,3.46.77,4.5l.32,1.6a1.43,1.43,0,0,0,2.81,0l.31-1.6c.17-1,.5-2.56.78-4.5s.69-4.3,1-7,.76-5.75,1.1-9.08c.71-6.65,1.36-14.42,1.81-22.73.25-4.16.42-8.46.57-12.83s.22-8.8.27-13.24.05-8.87,0-13.24c0-2.18-.05-4.35-.13-6.49s-.11-4.28-.25-6.45a101,101,0,0,0-1.1-10.58c.72-.42,1.55-.88,2.52-1.42a48.51,48.51,0,0,1,6.78-2.87,36.63,36.63,0,0,1,8.93-1.77,20.9,20.9,0,0,1,9.38,1.3,12,12,0,0,1,6.37,6,24.82,24.82,0,0,1,2.19,10.91v15c0,5.09.12,10.18.27,15.2s.31,9.95.56,14.73c.46,9.55,1.1,18.46,1.81,26.1.34,3.82.76,7.33,1.11,10.43s.72,5.81,1,8,.6,4,.77,5.18.32,1.83.32,1.83a1.43,1.43,0,0,0,2.81,0l.31-1.83c.17-1.2.49-2.95.78-5.18s.69-4.93,1-8,.77-6.61,1.11-10.43c.71-7.64,1.35-16.55,1.81-26.1.25-4.78.42-9.72.56-14.73s.23-10.11.28-15.2q0-3.83,0-7.64c0-1.26,0-2.53,0-3.79s0-2.4-.08-3.95a39,39,0,0,0-2.35-12.55c1.06-.64,2.33-1.36,3.82-2.11a40.77,40.77,0,0,1,9.72-3.34,25.08,25.08,0,0,1,12.1.29,12.88,12.88,0,0,1,8.55,8,23.27,23.27,0,0,1,1.49,7.21c.11,1.36.08,2.68.07,4.22s-.09,3.33-.14,5c-.15,6.75-.29,13.72-.33,20.8s-.06,14.28,0,21.48.13,14.39.28,21.47.31,14.06.56,20.8c0,1.69.11,3.36.17,5s.19,3.63.4,5.39A58.55,58.55,0,0,0,588,263.35a39.77,39.77,0,0,0,4.23,9.49,24.11,24.11,0,0,0,7.21,7.53,19.48,19.48,0,0,0,9.25,3.14,25,25,0,0,0,8.15-.8,39.23,39.23,0,0,0,11.15-5c.32-.18.58-.36.87-.55-.46,1.69-.9,3.38-1.27,5.1-.65,2.93-1.2,5.9-1.57,8.93-.19,1.52-.36,3-.44,4.6a46.39,46.39,0,0,0-.09,4.73,1.52,1.52,0,0,0,.45,1,1.54,1.54,0,0,0,2.17,0,46.52,46.52,0,0,0,3.09-3.58c1-1.21,1.88-2.46,2.76-3.71,1.74-2.51,3.32-5.08,4.8-7.69s2.82-5.28,4.1-8c.6-1.36,1.25-2.7,1.81-4.07s1.17-2.73,1.68-4.13l0-.08.12-.35A7.32,7.32,0,0,0,641.61,260.85Z"/><path class="cls-6" d="M590.69,422.76a72.42,72.42,0,0,1-10,3.1,69.22,69.22,0,0,1,10.47-.46,71.62,71.62,0,0,1-2.32,10.21,70.05,70.05,0,0,1,4.84-9.29,72.1,72.1,0,0,1,7.68,7.12,71.34,71.34,0,0,1-5.63-8.84,72.42,72.42,0,0,1,10-3.1,70.66,70.66,0,0,1-10.47.46,71.94,71.94,0,0,1,2.32-10.22,72.18,72.18,0,0,1-4.83,9.3,70.82,70.82,0,0,1-7.69-7.12,70.08,70.08,0,0,1,5.63,8.84Z"/></g></g></svg>
