<svg xmlns="http://www.w3.org/2000/svg" viewBox="0 0 832.09 832.09"><defs><style>.cls-1{fill:#221e1f;}.cls-2{fill:#FFDD57;}.cls-2,.cls-3,.cls-4{fill-rule:evenodd;}.cls-3{fill:#fff;}.cls-4,.cls-5{fill:#FFDD57;}</style></defs><title>Element 9</title><g id="Ebene_2" data-name="Ebene 2"><g id="Layer_3" data-name="Layer 3"><circle class="cls-1" cx="416.05" cy="416.05" r="416"/><path class="cls-2" d="M261.48,697.72a5.45,5.45,0,1,1,4.66-6.14A5.45,5.45,0,0,1,261.48,697.72Z"/><path class="cls-2" d="M76,327.36a5.45,5.45,0,1,1,4.66-6.14A5.45,5.45,0,0,1,76,327.36Z"/><path class="cls-3" d="M558.42,349.58c1.75-2.31,2.07-12.91,2.07-12.91s3.18,10.12,5.49,11.87,12.91,2.07,12.91,2.07-10.12,3.18-11.87,5.49S564.94,369,564.94,369s-3.17-10.12-5.48-11.87-12.91-2.08-12.91-2.08,10.12-3.17,11.87-5.48Z"/><path class="cls-4" d="M659.84,128.66c1.43-1.88,1.7-10.53,1.7-10.53s2.58,8.25,4.47,9.68,10.53,1.7,10.53,1.7-8.25,2.59-9.68,4.47-1.7,10.53-1.7,10.53-2.58-8.25-4.47-9.68-10.53-1.69-10.53-1.69,8.25-2.59,9.68-4.48Z"/><path class="cls-4" d="M367,67.21c1.21-1.59,1.43-8.87,1.43-8.87s2.18,7,3.77,8.15,8.87,1.43,8.87,1.43-6.95,2.18-8.16,3.77-1.42,8.87-1.42,8.87-2.18-7-3.77-8.16S358.85,71,358.85,71s6.95-2.18,8.15-3.77Z"/><path class="cls-3" d="M264.29,63.76a71.28,71.28,0,0,0,5.16-9.11,70.32,70.32,0,0,0-2.68,10.12,71.69,71.69,0,0,0,10.47-.08,69.56,69.56,0,0,0-10.11,2.74,72,72,0,0,0,5.32,9A71.77,71.77,0,0,0,265,69.07a70,70,0,0,0-5.17,9.12,70.67,70.67,0,0,0,2.68-10.13,70.73,70.73,0,0,0-10.47.09,72.42,72.42,0,0,0,10.11-2.74,70.7,70.7,0,0,0-5.32-9,69.91,69.91,0,0,0,7.44,7.38Z"/><path class="cls-3" d="M408.07,546.66a70,70,0,0,0,5.16-9.11,71.42,71.42,0,0,0-2.68,10.13,70.89,70.89,0,0,0,10.48-.09,72.42,72.42,0,0,0-10.11,2.74,70.15,70.15,0,0,0,5.31,9A69.2,69.2,0,0,0,408.8,552a71.28,71.28,0,0,0-5.16,9.11A70,70,0,0,0,406.32,551a70.89,70.89,0,0,0-10.48.09A70.54,70.54,0,0,0,406,548.31a70.15,70.15,0,0,0-5.31-9,70.19,70.19,0,0,0,7.43,7.38Z"/><path class="cls-3" d="M640,328.1a70,70,0,0,0,5.17-9.12,70.67,70.67,0,0,0-2.68,10.13A70.73,70.73,0,0,0,653,329a70.46,70.46,0,0,0-10.11,2.75,71.61,71.61,0,0,0,5.31,9,71.31,71.31,0,0,0-7.43-7.38,71.68,71.68,0,0,0-5.16,9.12,70.67,70.67,0,0,0,2.68-10.13,70.75,70.75,0,0,0-10.47.09,70.46,70.46,0,0,0,10.11-2.75,72.17,72.17,0,0,0-5.32-9A72.36,72.36,0,0,0,640,328.1Z"/><path class="cls-3" d="M557.05,167.76a70.4,70.4,0,0,0,5.16-9.12,70.1,70.1,0,0,0-2.67,10.13,70.73,70.73,0,0,0,10.47-.09,70.46,70.46,0,0,0-10.11,2.75,70.3,70.3,0,0,0,5.31,9,70.24,70.24,0,0,0-7.43-7.38,71.68,71.68,0,0,0-5.16,9.12,70.67,70.67,0,0,0,2.68-10.13,70.75,70.75,0,0,0-10.47.09,69.77,69.77,0,0,0,10.1-2.75,70.87,70.87,0,0,0-5.31-9,71.77,71.77,0,0,0,7.43,7.39Z"/><path class="cls-3" d="M191.11,368c-.05,0,4.52-6.72,6.35-11.22-1.83,4.5-3.27,12.5-3.3,12.46s8.08.56,12.9-.11c-4.82.67-12.46,3.42-12.45,3.38s3.56,7.27,6.54,11.11c-3-3.84-9.19-9.08-9.14-9.09s-4.52,6.72-6.36,11.22c1.84-4.5,3.27-12.5,3.3-12.46s-8.08-.56-12.89.11c4.81-.67,12.46-3.42,12.44-3.38s-3.56-7.27-6.54-11.11c3,3.84,9.19,9.08,9.15,9.09Z"/><path class="cls-3" d="M194.41,670.91s4.52-6.72,6.35-11.22c-1.83,4.5-3.27,12.5-3.3,12.46s8.08.56,12.9-.1c-4.82.66-12.46,3.41-12.45,3.37s3.56,7.28,6.54,11.11c-3-3.83-9.19-9.08-9.14-9.08s-4.52,6.72-6.36,11.22c1.84-4.5,3.27-12.5,3.3-12.47s-8.08-.55-12.89.11c4.81-.66,12.46-3.42,12.44-3.38s-3.56-7.27-6.54-11.11c3,3.84,9.19,9.08,9.15,9.09Z"/><path class="cls-3" d="M155,144.94a3.39,3.39,0,1,1,2.89-3.81A3.39,3.39,0,0,1,155,144.94Z"/><path class="cls-3" d="M292.85,46.92a3.39,3.39,0,1,1,2.89-3.82A3.4,3.4,0,0,1,292.85,46.92Z"/><path class="cls-3" d="M594.83,88.11a3.39,3.39,0,1,1,2.89-3.81A3.39,3.39,0,0,1,594.83,88.11Z"/><path class="cls-3" d="M314.15,164.52a6.77,6.77,0,1,1,5.79-7.63A6.77,6.77,0,0,1,314.15,164.52Z"/><path class="cls-2" d="M385.57,328a3.8,3.8,0,1,1,3.25-4.28A3.81,3.81,0,0,1,385.57,328Z"/><path class="cls-2" d="M611,239.45a3.8,3.8,0,1,1,3.25-4.28A3.79,3.79,0,0,1,611,239.45Z"/><path class="cls-3" d="M233,475.8c1.6-2.11,1.89-11.75,1.89-11.75s2.89,9.21,5,10.8,11.75,1.89,11.75,1.89-9.21,2.89-10.81,5-1.89,11.76-1.89,11.76-2.88-9.21-5-10.81-11.75-1.89-11.75-1.89,9.21-2.89,10.8-5Z"/><path class="cls-4" d="M758.52,287.39c1.1-1.45,1.3-8.08,1.3-8.08s2,6.33,3.43,7.43,8.08,1.3,8.08,1.3-6.33,2-7.43,3.43-1.3,8.07-1.3,8.07-2-6.33-3.43-7.42-8.07-1.3-8.07-1.3,6.33-2,7.42-3.43Z"/><path class="cls-4" d="M474.22,475.2c1.09-1.44,1.29-8.07,1.29-8.07s2,6.32,3.43,7.42,8.08,1.3,8.08,1.3-6.33,2-7.43,3.43-1.29,8.08-1.29,8.08-2-6.33-3.43-7.43-8.08-1.3-8.08-1.3,6.33-2,7.43-3.43Z"/><path class="cls-4" d="M638.91,552.38c1.31-1.71,1.55-9.59,1.55-9.59s2.35,7.52,4.07,8.82,9.59,1.54,9.59,1.54-7.52,2.36-8.82,4.08-1.54,9.59-1.54,9.59-2.36-7.52-4.07-8.82-9.59-1.54-9.59-1.54,7.51-2.36,8.81-4.08Z"/><path class="cls-4" d="M400,759.56c1.3-1.71,1.54-9.59,1.54-9.59s2.36,7.52,4.07,8.82,9.59,1.54,9.59,1.54-7.51,2.36-8.81,4.08-1.55,9.59-1.55,9.59-2.35-7.52-4.07-8.82-9.59-1.54-9.59-1.54,7.52-2.36,8.82-4.08Z"/><path class="cls-3" d="M686.68,630.7s4.12-6.11,5.79-10.21c-1.67,4.1-3,11.38-3,11.35s7.36.5,11.74-.1c-4.38.6-11.34,3.11-11.33,3.07s3.24,6.63,6,10.12c-2.72-3.49-8.37-8.27-8.33-8.27s-4.11,6.12-5.78,10.21c1.67-4.09,3-11.38,3-11.35s-7.36-.5-11.74.1c4.38-.6,11.34-3.11,11.33-3.07s-3.24-6.63-6-10.12c2.72,3.49,8.37,8.27,8.33,8.27Z"/><path class="cls-3" d="M599.77,726.46a3.08,3.08,0,1,1,2.64-3.48A3.08,3.08,0,0,1,599.77,726.46Z"/><path class="cls-3" d="M502.2,107.6a3.08,3.08,0,1,1,2.64-3.47A3.06,3.06,0,0,1,502.2,107.6Z"/><path class="cls-3" d="M113.81,498.8a3.08,3.08,0,1,1,2.63-3.47A3.08,3.08,0,0,1,113.81,498.8Z"/><path class="cls-3" d="M568.41,634.26a6.17,6.17,0,1,1,5.27-7A6.16,6.16,0,0,1,568.41,634.26Z"/><path class="cls-3" d="M173.4,608.42a6.16,6.16,0,1,1,5.27-6.94A6.16,6.16,0,0,1,173.4,608.42Z"/><path class="cls-2" d="M476.05,580.4a3.46,3.46,0,1,1,3-3.89A3.47,3.47,0,0,1,476.05,580.4Z"/><path class="cls-2" d="M670.6,715.14a3.46,3.46,0,1,1,2.95-3.9A3.46,3.46,0,0,1,670.6,715.14Z"/><path class="cls-3" d="M778.26,548.43c.6-.79.71-4.43.71-4.43s1.09,3.47,1.89,4.08,4.43.71,4.43.71-3.47,1.09-4.08,1.88-.71,4.44-.71,4.44-1.09-3.48-1.88-4.08-4.44-.71-4.44-.71,3.48-1.09,4.08-1.89Z"/><path class="cls-3" d="M557,512.65c.6-.79.72-4.43.72-4.43s1.09,3.47,1.88,4.07S564,513,564,513s-3.48,1.09-4.08,1.88-.72,4.44-.72,4.44-1.09-3.48-1.88-4.08-4.44-.72-4.44-.72,3.48-1.09,4.08-1.88Z"/><path class="cls-3" d="M758.07,407c-10.55-10.26-29.54-23.31-33.24-22.93L585.41,398c-5.79.58-11.23,4.63-14.84,9H340.38c-7.13-14.55-28-27.26-17.29-79.92,1.78-8.72,23.65-8.62,28.62-25.48,5.44-18.6-14.55-38.45,7.94-60.42,57.29-56,99.58-34.3,157.83-82.76,12.81-10.65,19.75-29.53,21.48-48.66L779.5,407Zm-187.5,18c3.61,4.43,9,8.48,14.84,9.06L724.83,448c3.7.39,22.69-12.67,33.24-23H779.5L539,722.29c-1.73-19.07-8.67-38-21.48-48.61C459.23,625.22,416.94,647,359.65,590.92c-22.49-22-2.5-41.86-7.94-60.41-5-16.86-26.84-16.77-28.62-25.54-10.74-52.6,10.16-65.32,17.29-79.92ZM169.8,407h99.33c-7.8-18.78-29.43-57.81-16.38-105.26,19.95-72.6,93.27-95.44,110-114.85,4.43-5.15,14.35-25.29,21-24,5.49,1.11,6.12,14.5,15.18,16.33C433,186.05,519.5,153.68,525,98.42c1.35-13.73-11.41-15.27-17.63-13.73-22.4,5.54-31.6-32.23,1.54-35.55,18.74-1.88,29.53,21.2,30.4,47.4l.77-.62L799.16,416,540.07,736.17l-.77-.58c-.87,26.21-11.66,49.28-30.4,47.36-33.14-3.33-23.94-41.05-1.54-35.56,6.22,1.55,19,.05,17.63-13.68-5.49-55.3-92-87.63-126.07-80.84-9.06,1.79-9.69,15.23-15.18,16.33-6.65,1.31-16.57-18.83-21-24-16.72-19.41-90-42.25-110-114.85-13.05-47.45,8.53-86.47,16.38-105.31H169.8v.05c-9,6.5-35.37,18.31-37.63,22.64,0,0-6.26-1.3-16.91-4.09S56.63,425.92,37.07,416c19.56-9.83,67.59-24.76,78.19-27.55s16.91-4.15,16.91-4.15c2.55,5,28.38,15.32,37.63,21.15ZM64,416a400.88,400.88,0,0,1,69-4c15.32.63,28.66,3.33,28.66,4s-13.34,3.37-28.66,4a395.72,395.72,0,0,1-69-4Zm205.33,0a279.68,279.68,0,0,1,47.69-2.7c10.6.39,19.8,2.27,19.8,2.7s-9.2,2.31-19.8,2.75A275.45,275.45,0,0,1,269.33,416ZM532,81.75c-7.13-25.24-26.21-29-30.5-21.92s-1,15.76,5.25,17.15-1.06-12.62,8-10.26,14.41,8.87,17.25,15ZM309.41,238.47c63.49-16.67,75.06-45.62,71.15-52.08-2.12-3.52-7.51-.58-10.64,4-10.55,15.27-19.47,27.22-60.51,48.13Zm-44.08,66.09c14.35-41.47,63.78-47.83,67.54-31.89s-36.18.53-67.54,31.89Zm3.18,36.71c.53-25.53,27.12-44.17,48.89-43.59s9.59,13.24-14.35,18.59-34.54,25-34.54,25ZM309.46,396c-42.54-27.07-31.9-58.48-16.48-63.25s17.54,14.88,5.3,22.35-1.06,30.83,11.18,40.9ZM532,750.33c-7.13,25.29-26.21,29.1-30.5,22s-1-15.75,5.25-17.2-1.06,12.67,8,10.26,14.41-8.81,17.25-15ZM309.41,593.62c63.49,16.71,75.06,45.62,71.15,52.12-2.12,3.52-7.51.58-10.64-4-10.55-15.27-19.47-27.22-60.51-48.17Zm-44.08-66c14.35,41.48,63.78,47.84,67.54,31.89s-36.18-.53-67.54-31.89Zm3.18-36.71c.53,25.53,27.12,44.13,48.89,43.6s9.59-13.3-14.35-18.6-34.54-25-34.54-25Zm40.95-54.78c-42.54,27.13-31.9,58.49-16.48,63.31s17.54-14.89,5.3-22.36-1.06-30.83,11.18-40.95Zm270.79-20a1109.18,1109.18,0,0,1,115-4c25.53.63,47.74,3.33,47.74,4s-22.21,3.37-47.74,4a1094.78,1094.78,0,0,1-115-4Z"/><path class="cls-5" d="M270.51,155.1a7.21,7.21,0,0,0-7.29-7.1l-6.59.09-6.63.22c-4.43.22-8.85.47-13.28.91s-8.85.93-13.28,1.62c-2.22.36-4.43.71-6.65,1.17s-4.43.91-6.64,1.52a1.46,1.46,0,0,0,0,2.81c2.2.64,4.41,1.13,6.62,1.61s4.42.87,6.63,1.26c4.42.75,8.84,1.33,13.26,1.81,4.12.46,8.24.76,12.36,1l-3.24,2.7c-2.83,2.36-6,5-9.42,8-6.84,5.94-14.66,13-22.87,20.77-4.1,3.89-8.33,7.91-12.55,12.07s-8.49,8.41-12.73,12.69-8.43,8.6-12.51,12.9q-4.45,4.66-8.69,9.23c-.8-.71-1.6-1.39-2.39-2a60.78,60.78,0,0,0-7.06-5,43.05,43.05,0,0,0-5.63-2.87,21.19,21.19,0,0,0-2.34-.88,2.84,2.84,0,0,0-1.53,0,2.78,2.78,0,0,0-1.9,3.43,22.7,22.7,0,0,0,.87,2.35,43.93,43.93,0,0,0,2.88,5.62,61,61,0,0,0,5,7.06c.78.95,1.6,1.91,2.46,2.85-5.14,5.7-9.89,11.12-14.07,16-3,3.44-5.59,6.66-7.94,9.5s-4.34,5.37-6,7.44-2.9,3.75-3.77,4.87l-1.31,1.75a1.42,1.42,0,0,0,2,2l1.75-1.31c1.12-.87,2.81-2.11,4.87-3.77s4.62-3.64,7.44-6,6.06-5,9.5-7.94c5-4.23,10.44-9.05,16.22-14.26,1,.8,2,1.59,3,2.32a65.3,65.3,0,0,0,7.29,4.72A48.28,48.28,0,0,0,182,269c.71.31,1.34.49,1.74.64l.64.2a1.59,1.59,0,0,0,2-2l-.2-.64c-.15-.4-.33-1-.64-1.74a49,49,0,0,0-2.75-5.75,66.41,66.41,0,0,0-4.73-7.29c-.61-.84-1.27-1.67-1.94-2.5q4.68-4.36,9.46-8.91c4.3-4.09,8.61-8.29,12.9-12.51s8.56-8.48,12.69-12.73,8.18-8.45,12.07-12.55c7.75-8.21,14.83-16,20.77-22.87,3-3.41,5.65-6.59,8-9.42,1.5-1.77,2.84-3.42,4.06-4.92,0,.57,0,1.14.05,1.7q.22,6.24.75,12.48c.37,4.16.83,8.31,1.46,12.47.32,2.08.64,4.16,1.07,6.24s.84,4.16,1.41,6.24a2.51,2.51,0,0,0,4.85,0c.56-2.08,1-4.16,1.4-6.24s.75-4.16,1.08-6.24c.62-4.16,1.08-8.31,1.45-12.47s.61-8.32.75-12.48c.1-2.08.1-4.16.16-6.23s0-4.16,0-6.24v-.19Z"/></g></g></svg>
